<?xml version="1.0" encoding="UTF-8" standalone="no"?>
<!-- Created with Inkscape (http://www.inkscape.org/) -->

<svg
   width="519.91199"
   height="519.91199"
   viewBox="0 0 519.91201 519.91203"
   version="1.1"
   id="svg5"
   inkscape:version="1.3 (0e150ed6c4, 2023-07-21)"
   sodipodi:docname="Anargia.svg"
   inkscape:export-filename="..\..\..\..\..\photos\vector stuffs\png-export\anargia.png"
   inkscape:export-xdpi="200"
   inkscape:export-ydpi="200"
   xmlns:inkscape="http://www.inkscape.org/namespaces/inkscape"
   xmlns:sodipodi="http://sodipodi.sourceforge.net/DTD/sodipodi-0.dtd"
   xmlns:xlink="http://www.w3.org/1999/xlink"
   xmlns="http://www.w3.org/2000/svg"
   xmlns:svg="http://www.w3.org/2000/svg">
  <sodipodi:namedview
     id="namedview7"
     pagecolor="#505050"
     bordercolor="#ffffff"
     borderopacity="1"
     inkscape:showpageshadow="0"
     inkscape:pageopacity="0"
     inkscape:pagecheckerboard="1"
     inkscape:deskcolor="#505050"
     inkscape:document-units="px"
     showgrid="false"
     inkscape:lockguides="false"
     showguides="true"
     inkscape:zoom="1"
     inkscape:cx="323.5"
     inkscape:cy="173.5"
     inkscape:window-width="1920"
     inkscape:window-height="1057"
     inkscape:window-x="-8"
     inkscape:window-y="-8"
     inkscape:window-maximized="1"
     inkscape:current-layer="layer1" />
  <defs
     id="defs2">
    <linearGradient
       id="linearGradient1"
       inkscape:collect="always">
      <stop
         style="stop-color:#00070d;stop-opacity:1;"
         offset="0"
         id="stop1" />
      <stop
         style="stop-color:#1e345f;stop-opacity:1;"
         offset="1"
         id="stop2" />
    </linearGradient>
    <pattern
       inkscape:collect="always"
       xlink:href="#halftones"
       preserveAspectRatio="xMidYMid"
       id="pattern24"
       patternTransform="scale(2.81)"
       x="0"
       y="0" />
    <pattern
       patternUnits="userSpaceOnUse"
       width="10"
       height="10"
       preserveAspectRatio="xMidYMid"
       style="fill:#000000"
       id="halftones"
       x="0"
       y="0"
       inkscape:label="Halftones"
       inkscape:collect="always"
       inkscape:isstock="true">
      <g
         id="fullPattern"
         style="display:inline"
         transform="scale(0.1)">
        <circle
           style="fill-opacity:1;stroke:none;paint-order:markers fill stroke;stop-color:#000000"
           id="circle10"
           cx="50"
           cy="50"
           r="25" />
        <path
           id="circle37"
           style="paint-order:markers fill stroke"
           d="M 25,0 A 25,25 0 0 1 0,25 25,25 0 0 1 -25,0 25,25 0 0 1 0,-25 25,25 0 0 1 25,0 Z" />
        <path
           id="circle39"
           style="paint-order:markers fill stroke"
           d="M 125,0 A 25,25 0 0 1 100,25 25,25 0 0 1 75,0 25,25 0 0 1 100,-25 25,25 0 0 1 125,0 Z" />
        <path
           id="circle43"
           style="paint-order:markers fill stroke"
           d="M 25,100 A 25,25 0 0 1 0,125 25,25 0 0 1 -25,100 25,25 0 0 1 0,75 25,25 0 0 1 25,100 Z" />
        <path
           id="circle45"
           style="paint-order:markers fill stroke"
           d="m 125,100 a 25,25 0 0 1 -25,25 25,25 0 0 1 -25,-25 25,25 0 0 1 25,-25 25,25 0 0 1 25,25 z" />
      </g>
    </pattern>
    <linearGradient
       inkscape:collect="always"
       xlink:href="#linearGradient1"
       id="linearGradient2"
       x1="202.17198"
       y1="570.37714"
       x2="202.17198"
       y2="55.421104"
       gradientUnits="userSpaceOnUse" />
    <filter
       inkscape:collect="always"
       style="color-interpolation-filters:sRGB"
       id="filter43"
       x="-0.080546438"
       y="-0.080546438"
       width="1.1610929"
       height="1.1610929">
      <feGaussianBlur
         inkscape:collect="always"
         stdDeviation="1.9180765"
         id="feGaussianBlur43" />
    </filter>
    <filter
       inkscape:collect="always"
       style="color-interpolation-filters:sRGB"
       id="filter44"
       x="-0.080546438"
       y="-0.080546438"
       width="1.1610929"
       height="1.1610929">
      <feGaussianBlur
         inkscape:collect="always"
         stdDeviation="1.9180765"
         id="feGaussianBlur44" />
    </filter>
    <filter
       inkscape:collect="always"
       style="color-interpolation-filters:sRGB"
       id="filter45"
       x="-0.080546438"
       y="-0.080546438"
       width="1.1610929"
       height="1.1610929">
      <feGaussianBlur
         inkscape:collect="always"
         stdDeviation="1.9180765"
         id="feGaussianBlur45" />
    </filter>
  </defs>
  <g
     inkscape:label="Layer 1"
     inkscape:groupmode="layer"
     id="layer1"
     transform="translate(-196.97198,-55.421106)"
     style="display:inline">
    <circle
       style="fill:url(#linearGradient2);fill-opacity:1;stroke:#693500;stroke-width:14.912;stroke-linecap:square;stroke-dasharray:none;stroke-opacity:1;paint-order:normal"
       id="path1"
       cx="456.92798"
       cy="315.37711"
       r="252.5" />
    <g
       id="g2379"
       inkscape:label="moon"
       style="fill:url(#pattern24);fill-opacity:1;stroke-width:6.303;stroke-dasharray:none">
      <path
         style="display:inline;fill:#000000;fill-opacity:1;stroke:#000000;stroke-width:6.303;stroke-linecap:round;stroke-linejoin:round;stroke-dasharray:none;stroke-opacity:1;paint-order:fill markers stroke"
         d="m 552.10812,188.23777 c -26.11726,-0.19138 -51.90295,8.21965 -73.58406,22.62317 -16.18998,10.47712 -29.49898,25.0475 -39.91151,41.18155 -4.67293,8.24912 -9.44172,16.63456 -12.29756,25.70494 -0.86461,3.37301 1.72873,-0.17231 2.40268,-1.04401 12.53017,-25.413 35.75455,-45.18213 62.78739,-53.56088 14.96373,-4.86976 31.01762,-5.50545 46.50537,-3.60118 29.67759,4.10204 57.0426,22.18179 72.95983,47.42204 18.25494,28.19328 21.36276,65.31615 8.35524,96.16731 -12.70013,31.18626 -41.41205,55.14737 -74.31677,62.11986 -13.69785,2.9934 -27.98644,2.89754 -41.80487,0.65119 -30.86623,-5.74834 -58.64474,-26.18212 -73.13972,-54.0965 -1.13853,-1.38229 -2.32668,-3.13124 -3.35538,-4.50525 0.39537,1.86838 0.77238,3.7204 1.32433,5.78838 14.18971,35.63497 44.1853,64.56103 80.42409,77.20104 15.47827,5.4756 31.9948,8.07263 48.39437,7.71453 18.53993,-0.85717 37.0903,-4.65509 53.82016,-12.88354 37.48289,-17.32259 66.02598,-52.8124 74.55022,-93.26055 3.63921,-15.44398 3.41407,-31.52287 1.90111,-47.224 -5.46438,-40.00597 -29.70441,-77.16593 -64.73862,-97.45235 -21.11324,-12.71957 -45.60565,-19.47087 -70.2763,-18.94575 z"
         id="path8"
         sodipodi:nodetypes="ccccccccccccccccccccc" />
      <path
         style="display:inline;fill:none;fill-opacity:1;stroke:#000000;stroke-width:13.103;stroke-linecap:butt;stroke-linejoin:round;stroke-dasharray:none;stroke-opacity:1;paint-order:fill markers stroke"
         d="m 552.10812,176.14618 c -26.11726,-0.19138 -51.90295,8.21965 -73.58406,22.62317 -16.18998,10.47712 -29.49898,25.0475 -39.91151,41.18155 -4.67293,8.24912 -9.44172,16.63456 -12.29756,25.70494 -0.86461,3.37301 1.72873,-0.17231 2.40268,-1.04401 12.53017,-25.413 35.75455,-45.18213 62.78739,-53.56088 14.96373,-4.86976 31.01762,-5.50545 46.50537,-3.60118 29.67759,4.10204 57.0426,22.18179 72.95983,47.42204 18.25494,28.19328 21.36276,65.31615 8.35524,96.16731 -12.70013,31.18626 -41.41205,55.14737 -74.31677,62.11986 -13.69785,2.9934 -27.98644,2.89754 -41.80487,0.65119 -30.86623,-5.74834 -58.64474,-26.18212 -73.13972,-54.0965 -1.13853,-1.38229 -2.32668,-3.13124 -3.35538,-4.50525 0.39537,1.86838 0.77238,3.7204 1.32433,5.78838 14.18971,35.63497 44.1853,64.56103 80.42409,77.20104 15.47827,5.4756 31.9948,8.07263 48.39437,7.71453 18.53993,-0.85717 37.0903,-4.65509 53.82016,-12.88354 37.48289,-17.32259 66.02598,-52.8124 74.55022,-93.26055 3.63921,-15.44398 3.41407,-31.52287 1.90111,-47.224 -5.46438,-40.00597 -29.70441,-77.16593 -64.73862,-97.45235 -21.11324,-12.71957 -45.60565,-19.47087 -70.2763,-18.94575 z"
         id="path25"
         sodipodi:nodetypes="ccccccccccccccccccccc" />
      <path
         style="display:inline;fill:#424242;fill-opacity:1;stroke:#693500;stroke-width:6.303;stroke-linecap:butt;stroke-linejoin:round;stroke-dasharray:none;stroke-opacity:1;paint-order:fill markers stroke"
         d="m 552.10812,176.14618 c -26.11726,-0.19138 -51.90295,8.21965 -73.58406,22.62317 -16.18998,10.47712 -29.49898,25.0475 -39.91151,41.18155 -4.67293,8.24912 -9.44172,16.63456 -12.29756,25.70494 -0.86461,3.37301 1.72873,-0.17231 2.40268,-1.04401 12.53017,-25.413 35.75455,-45.18213 62.78739,-53.56088 14.96373,-4.86976 31.01762,-5.50545 46.50537,-3.60118 29.67759,4.10204 57.0426,22.18179 72.95983,47.42204 18.25494,28.19328 21.36276,65.31615 8.35524,96.16731 -12.70013,31.18626 -41.41205,55.14737 -74.31677,62.11986 -13.69785,2.9934 -27.98644,2.89754 -41.80487,0.65119 -30.86623,-5.74834 -58.64474,-26.18212 -73.13972,-54.0965 -1.13853,-1.38229 -2.32668,-3.13124 -3.35538,-4.50525 0.39537,1.86838 0.77238,3.7204 1.32433,5.78838 14.18971,35.63497 44.1853,64.56103 80.42409,77.20104 15.47827,5.4756 31.9948,8.07263 48.39437,7.71453 18.53993,-0.85717 37.0903,-4.65509 53.82016,-12.88354 37.48289,-17.32259 66.02598,-52.8124 74.55022,-93.26055 3.63921,-15.44398 3.41407,-31.52287 1.90111,-47.224 -5.46438,-40.00597 -29.70441,-77.16593 -64.73862,-97.45235 -21.11324,-12.71957 -45.60565,-19.47087 -70.2763,-18.94575 z"
         id="path24"
         sodipodi:nodetypes="ccccccccccccccccccccc" />
      <path
         style="display:inline;opacity:0.225882;mix-blend-mode:normal;fill:url(#pattern24);fill-opacity:1;stroke:#693500;stroke-width:6.303;stroke-linecap:butt;stroke-linejoin:round;stroke-dasharray:none;stroke-opacity:1;paint-order:normal"
         d="m 552.10812,176.14618 c -26.11726,-0.19138 -51.90295,8.21965 -73.58406,22.62317 -16.18998,10.47712 -29.49898,25.0475 -39.91151,41.18155 -4.67293,8.24912 -9.44172,16.63456 -12.29756,25.70494 -0.86461,3.37301 1.72873,-0.17231 2.40268,-1.04401 12.53017,-25.413 35.75455,-45.18213 62.78739,-53.56088 14.96373,-4.86976 31.01762,-5.50545 46.50537,-3.60118 29.67759,4.10204 57.0426,22.18179 72.95983,47.42204 18.25494,28.19328 21.36276,65.31615 8.35524,96.16731 -12.70013,31.18626 -41.41205,55.14737 -74.31677,62.11986 -13.69785,2.9934 -27.98644,2.89754 -41.80487,0.65119 -30.86623,-5.74834 -58.64474,-26.18212 -73.13972,-54.0965 -1.13853,-1.38229 -2.32668,-3.13124 -3.35538,-4.50525 0.39537,1.86838 0.77238,3.7204 1.32433,5.78838 14.18971,35.63497 44.1853,64.56103 80.42409,77.20104 15.47827,5.4756 31.9948,8.07263 48.39437,7.71453 18.53993,-0.85717 37.0903,-4.65509 53.82016,-12.88354 37.48289,-17.32259 66.02598,-52.8124 74.55022,-93.26055 3.63921,-15.44398 3.41407,-31.52287 1.90111,-47.224 -5.46438,-40.00597 -29.70441,-77.16593 -64.73862,-97.45235 -21.11324,-12.71957 -45.60565,-19.47087 -70.2763,-18.94575 z"
         id="path18500"
         sodipodi:nodetypes="ccccccccccccccccccccc" />
    </g>
    <text
       xml:space="preserve"
       style="font-style:normal;font-variant:normal;font-weight:normal;font-stretch:normal;font-size:87.5261px;font-family:'Young Serif';-inkscape-font-specification:'Young Serif';text-align:center;letter-spacing:-0.37px;word-spacing:4.51072px;text-anchor:middle;fill:#000000;fill-opacity:1;stroke:#000000;stroke-width:0;stroke-linecap:square;stroke-dasharray:none;paint-order:markers stroke fill"
       x="440.76373"
       y="347.56094"
       id="text1"
       transform="scale(0.99350783,1.0065346)"><tspan
         sodipodi:role="line"
         id="tspan1"
         x="440.76373"
         y="347.56094"
         style="letter-spacing:-0.37px;fill:#000000;fill-opacity:1;stroke-width:0">ANARGIA</tspan><tspan
         sodipodi:role="line"
         x="440.57874"
         y="456.96857"
         id="tspan2"
         style="letter-spacing:-0.37px;fill:#000000;fill-opacity:1;stroke-width:0">PIXELS</tspan></text>
    <g
       aria-label="ANARGIA PIXELS"
       id="g21"
       style="font-size:85.3333px;font-family:'Imprint MT Shadow';-inkscape-font-specification:'Imprint MT Shadow, Normal';text-align:center;text-anchor:middle;white-space:pre;inline-size:661.166;display:inline;fill:#693500;fill-opacity:1;stroke:#ffffff;stroke-width:5;stroke-linecap:round;stroke-linejoin:round;stroke-dasharray:none;stroke-opacity:1;paint-order:markers stroke fill"
       inkscape:label="text-path"
       transform="translate(0,0.93557325)">
      <path
         d="m 268.4431,329.15314 -4.66666,-11.91666 h -19.70833 l -2.74999,7.08333 q -1.08334,2.70833 -1.08334,5.625 0,2.79166 1.75,4.91666 1.79167,2.125 4.95833,2.25 v 2.29167 h -19.29165 v -2.29167 q 6.45833,-0.95833 10.41666,-11.12499 l 14.41666,-36.91666 q -1.125,-1.95833 -2.375,-2.62499 -1.25,-0.70834 -3.66667,-0.95834 v -2.04166 l 10,-3.41667 h 3.83333 l 19.29166,49.20831 q 1.66667,4.16667 3.33333,5.66667 1.66667,1.45833 5.08333,2.20833 v 2.29167 h -24.74999 v -2.29167 q 3.20834,-0.33333 4.79167,-1 1.625,-0.66666 1.625,-2.58333 0,-1.66667 -1.20834,-4.375 z m -23.37499,-14.58333 h 17.66666 l -8.87499,-22.45832 z m 27.16666,13.04167 -14.87499,-37.70832 q -1.08334,-2.83333 -2.25,-4 -1.16667,-1.20833 -3.20834,-1.20833 -1.20833,0 -1.95833,0.16666 2,0.79167 3,2.20834 1.04167,1.41666 1.95833,3.79166 l 14.75,37.70832 q 1.375,3.33333 1.375,5.20833 0,1.20833 -0.45834,1.75 -0.45833,0.54167 -1.83333,1.58333 h 0.91667 q 1.95833,0 3,-1.04166 1.08333,-1.04167 1.08333,-2.45834 0,-2.04166 -1.5,-5.99999 z m -40.12498,9.49999 h 7.99999 q -2.625,-2.04166 -2.625,-5.125 0,-0.875 0.0833,-1.375 -1.125,2.08334 -2.29167,3.54167 -1.125,1.45833 -3.16666,2.95833 z"
         id="path9"
         style="fill:#693500;fill-opacity:1;stroke:#ffffff;stroke-width:5;stroke-linejoin:round;stroke-dasharray:none;stroke-opacity:1;paint-order:markers stroke fill" />
      <path
         d="m 333.73475,282.90316 v -2.29166 h 22.29165 v 2.29166 q -2.79166,0.0833 -4.91666,1.25 -2.08333,1.16667 -3.29167,3.41667 -1.20833,2.20833 -1.20833,5.33333 l 0.79167,47.79164 h -2.58334 l -42.58331,-49.74998 0.625,33.45832 q 0.0833,3.125 0.5,5.29167 0.41667,2.125 1.5,3.70833 1.08333,1.58333 3.08333,2.5 2.04167,0.91666 5.25,1.20833 v 2.29167 H 291.0681 v -2.29167 q 4.33333,-0.33333 6.41666,-2.33333 2.125,-2 2.625,-4.95833 0.5,-3 0.33333,-7.5 l -0.58333,-34.12498 q -2.375,-2.58334 -4.625,-3.91667 -2.25,-1.375 -4.66666,-1.375 h -0.5 v -2.29166 h 17.20832 l 37.54165,43.79164 -0.58333,-29.29165 q 0,-3.375 -0.70833,-5.70833 -0.66667,-2.375 -2.29167,-3.83333 -1.16666,-1.16667 -3.375,-1.91667 -2.16666,-0.79167 -4.12499,-0.75 z m 14.58332,0 h -9.12499 q 2.08333,0.70833 3.375,1.95833 1.33333,1.25 2.24999,3.41667 0.95834,-3.70833 3.5,-5.375 z m -6.54166,47.70831 -37.54165,-43.79164 q -1.16667,-1.5 -2.79167,-2.70834 -1.58333,-1.20833 -4.5,-1.20833 h -1.87499 q 2.33333,0.83333 3.62499,2.04167 1.29167,1.16666 3.625,3.95833 l 42.79165,49.83331 q -0.0417,-1.20833 -0.125,-2.33333 -0.0417,-1.16667 -0.25,-1.70833 -0.20833,-0.58334 -0.79166,-1.41667 -0.58334,-0.83333 -2.16667,-2.66667 z m -45.58332,6.5 h 8.79167 q -1.83333,-1.41666 -2.625,-2.625 -0.75,-1.20833 -1.29167,-3.375 -0.54166,1.95834 -1.66666,3.41667 -1.125,1.41667 -3.20834,2.58333 z"
         id="path10"
         style="fill:#693500;fill-opacity:1;stroke:#ffffff;stroke-width:5;stroke-linejoin:round;stroke-dasharray:none;stroke-opacity:1;paint-order:markers stroke fill" />
      <path
         d="m 399.06806,329.15314 -4.66667,-11.91666 h -19.70832 l -2.75,7.08333 q -1.08333,2.70833 -1.08333,5.625 0,2.79166 1.75,4.91666 1.79166,2.125 4.95833,2.25 v 2.29167 h -19.29166 v -2.29167 q 6.45833,-0.95833 10.41666,-11.12499 l 14.41666,-36.91666 q -1.125,-1.95833 -2.375,-2.62499 -1.25,-0.70834 -3.66666,-0.95834 v -2.04166 l 9.99999,-3.41667 h 3.83334 l 19.29165,49.20831 q 1.66667,4.16667 3.33334,5.66667 1.66666,1.45833 5.08333,2.20833 v 2.29167 h -24.74999 v -2.29167 q 3.20833,-0.33333 4.79166,-1 1.625,-0.66666 1.625,-2.58333 0,-1.66667 -1.20833,-4.375 z m -23.37499,-14.58333 h 17.66666 l -8.875,-22.45832 z m 27.16665,13.04167 -14.87499,-37.70832 q -1.08333,-2.83333 -2.25,-4 -1.16666,-1.20833 -3.20833,-1.20833 -1.20833,0 -1.95833,0.16666 2,0.79167 3,2.20834 1.04166,1.41666 1.95833,3.79166 l 14.74999,37.70832 q 1.375,3.33333 1.375,5.20833 0,1.20833 -0.45833,1.75 -0.45834,0.54167 -1.83333,1.58333 h 0.91666 q 1.95833,0 3,-1.04166 1.08333,-1.04167 1.08333,-2.45834 0,-2.04166 -1.5,-5.99999 z m -40.12498,9.49999 h 8 q -2.625,-2.04166 -2.625,-5.125 0,-0.875 0.0833,-1.375 -1.125,2.08334 -2.29166,3.54167 -1.125,1.45833 -3.16667,2.95833 z"
         id="path11"
         style="fill:#693500;fill-opacity:1;stroke:#ffffff;stroke-width:5;stroke-linejoin:round;stroke-dasharray:none;stroke-opacity:1;paint-order:markers stroke fill" />
      <path
         d="m 450.90136,339.40314 h -28.87499 v -2.29167 q 4.04167,-0.0833 6,-0.625 1.95833,-0.58333 2.66667,-2.04166 0.75,-1.45834 0.75,-4.58334 v -38.91665 q 0,-3.33333 -0.625,-4.95833 -0.625,-1.625 -2.58334,-2.29166 -1.91666,-0.66667 -6.20833,-0.79167 v -2.29166 h 32.87499 q 6.20833,0 10.83333,2.16666 4.66666,2.125 7,5.70833 2.37499,3.54167 2.37499,7.66667 0,2.70833 -1.08333,5.29166 -1.08333,2.54167 -3.125,4.625 -2.04166,2.08333 -4.95833,3.58333 -2.875,1.45833 -6.70833,2.08333 2.875,2.875 7.08333,8.125 l 4.125,4.875 q 0.33333,0.375 0.83333,0.95833 0.5,0.54167 1.29167,1.41667 2,2.41666 3.375,3.99999 1.375,1.54167 2.70833,2.79167 1.375,1.25 2.66666,2.04167 1.29167,0.75 2.75,1.16666 v 2.29167 h -7.83333 q -2.66666,0 -5.04166,-1.16667 -2.375,-1.20833 -4.58333,-3.375 -2.16667,-2.16666 -4.95833,-5.70833 l -5.83333,-7.41666 q -4.04167,-5.25 -6.04167,-7.25 -1.95833,-2.04166 -3.41666,-2.04166 h -4.625 v 17.66665 q 0,2.625 0.66666,4.125 0.66667,1.5 2.91667,2.16667 1.20833,0.33333 2.95833,0.54166 1.75,0.20834 2.625,0.16667 z m -18.12499,-48.79165 v 41.12498 q 0,3.91667 -2.875,5.375 5.45833,-0.125 5.45833,-4.20833 v -42.04165 q 0,-3.20833 -0.375,-4.83333 -0.33333,-1.66667 -1.625,-2.45833 -1.25,-0.79167 -3.875,-0.66667 2.16667,0.95833 2.70834,2.54167 0.58333,1.54166 0.58333,5.16666 z m 8.95833,0.75 v 18.79166 h 6.75 q 3.41666,0 6.74999,-1.08333 3.33333,-1.125 5.04167,-2.79167 3.41666,-3.20833 3.41666,-9.79166 0,-7.79166 -5.29166,-11.45833 -1.875,-1.29167 -3.91667,-1.70833 -2.04166,-0.41667 -5.20833,-0.41667 -3.20833,0 -4.875,0.875 -1.625,0.83333 -2.16666,2.58333 -0.5,1.70834 -0.5,5 z m 10.87499,21.08333 h -3.41666 q 1.5,1.12499 3.45833,3.37499 2,2.25 5,6.08333 3,3.83334 6.04166,7.79167 2.79167,3.54166 5.16667,5.45833 2.375,1.875 4.20833,2.41666 1.83333,0.54167 3.91666,0.625 -2.58333,-1.25 -4.95833,-3.41666 -2.375,-2.20833 -5.125,-5.54167 -2.70833,-3.37499 -5.62499,-7.08333 -2.875,-3.70833 -5.95833,-6.99999 -0.41667,-0.58334 -1.04167,-1.29167 -0.58333,-0.75 -1.66667,-1.41666 z m 3.66667,-2.5 q 5.58333,-0.70834 8.58333,-4.16667 3,-3.45833 3,-9.37499 0,-5.75 -2.66667,-9.125 -2.66666,-3.41667 -7.58333,-4.125 3.75,1.91667 5.58333,5.16667 1.875,3.20833 1.875,8.58332 0,5.66667 -2.20833,8.5 -2.16667,2.83333 -6.58333,4.54167 z"
         id="path12"
         style="fill:#693500;fill-opacity:1;stroke:#ffffff;stroke-width:5;stroke-linejoin:round;stroke-dasharray:none;stroke-opacity:1;paint-order:markers stroke fill" />
      <path
         d="m 542.85967,279.81983 0.70834,18.37499 h -2.25 q -1.91667,-3.91666 -4.33333,-7 -2.41667,-3.08333 -5,-5.04166 -2.58333,-2 -5.41667,-2.95833 -2.83333,-0.95834 -5.87499,-0.95834 -5.75,0 -10.25,3.54167 -4.5,3.54166 -7,9.83333 -2.45833,6.29166 -2.45833,14.41666 0,8.08333 2.70833,14.41666 2.75,6.33333 7.375,9.83333 4.66666,3.5 10.125,3.5 3.20833,0 5.95833,-1.25 2.79166,-1.25 4.20833,-3.25 1.125,-1.54167 1.45833,-3.33333 0.33333,-1.79167 0.33333,-4.45833 0,-4.20834 -0.45833,-5.875 -0.41667,-1.70833 -2.08333,-2.375 -1.66667,-0.70833 -5.75,-1.04167 v -2.375 h 27.04166 v 2.375 q -4.125,0.33334 -5.75,1 -1.58333,0.625 -2.125,2.33334 -0.54167,1.66666 -0.54167,5.70833 v 9.29166 q -3.45833,1.79167 -7.45833,3.16666 -3.95833,1.33334 -8.04166,2.08334 -4.04167,0.75 -8,0.75 -7.29166,0 -13.16666,-2.33334 -5.875,-2.33333 -9.87499,-6.54166 -4,-4.20833 -6.04167,-9.70833 -2.04166,-5.5 -2.04166,-11.54166 0,-5.91666 1.99999,-11.54166 2.04167,-5.625 5.83334,-9.95833 3.79166,-4.375 9.12499,-6.875 5.33333,-2.54166 11.70833,-2.54166 4.29167,0 9.875,1.20833 5.62499,1.20833 7.04166,1.20833 3.875,0 5.375,-2.08333 z m -4,11.20833 -0.58333,-7.58333 q -1.875,0.75 -3.08333,0.75 -0.91667,0 -1.66667,-0.0833 -0.75,-0.125 -1.66666,-0.33333 -0.91667,-0.25 -1.29167,-0.33333 4.25,2.58333 8.29166,7.58333 z m -4.33333,31.45832 v 5.5 q 0,2.54166 -1.33333,5.04166 -1.33333,2.45833 -4.33333,4.08333 3.29166,-0.70833 5.08333,-2 1.83333,-1.33333 2.58333,-3.41666 0.79167,-2.08334 0.79167,-5.41667 0,-4.125 -0.33333,-5.91666 -0.29167,-1.83333 -1.58334,-2.83333 -1.25,-1.04167 -4.04166,-1.33334 1.54166,1.125 2.33333,2.45834 0.83333,1.29166 0.83333,3.83333 z m -20.41665,16.58332 q -4.125,-1.83333 -7,-3.58333 -2.875,-1.79166 -5.875,-4.95833 -3.95833,-4.25 -6.125,-9.625 -2.16666,-5.41666 -2.16666,-10.74999 0,-6.20833 2.75,-12.5 2.79166,-6.29166 7.58333,-10.83332 2.375,-2.20834 4.45833,-3.375 2.125,-1.20834 5,-2.5 -3,0.58333 -4.75,1.29166 -3.625,1.41667 -6.83333,4.16667 -3.16667,2.70833 -5.70833,6.625 -2.54167,3.87499 -3.875,8.24999 -1.33333,4.33333 -1.33333,8.95833 0,5.83333 2.16666,11.54166 2.20833,5.66667 6.08333,9.58333 2.375,2.33334 4.83333,3.79167 2.45834,1.41667 4.79167,2.25 2.375,0.79166 6,1.66666 z"
         id="path13"
         style="fill:#693500;fill-opacity:1;stroke:#ffffff;stroke-width:5;stroke-linejoin:round;stroke-dasharray:none;stroke-opacity:1;paint-order:markers stroke fill" />
      <path
         d="m 556.52631,280.6115 h 27.74999 v 2.29166 q -3.91667,0.0833 -6.08333,1.04167 -2.125,0.91666 -2.29167,3.75 -0.0833,1.74999 -0.16666,2.79166 -0.0833,1 -0.0833,0.875 v 38.41665 q 0,2.45833 0.5,3.91667 0.54167,1.45833 1.5,2.08333 0.95834,0.625 2.20834,0.875 1.24999,0.20833 4.41666,0.45833 v 2.29167 h -27.74999 v -2.29167 q 3.70833,-0.0417 5.58333,-0.75 1.91667,-0.75 2.45833,-2.33333 0.58334,-1.625 0.58334,-5.125 v -37.20832 q 0,-3.33333 -0.33334,-4.91666 -0.29166,-1.625 -1.16666,-2.33333 -0.875,-0.70834 -2.375,-0.95834 -1.45833,-0.29166 -4.75,-0.58333 z m 10,9.87499 v 41.49998 q 0,2.125 -0.75,3.125 -0.75,1 -2.58333,2 2.70833,-0.0833 4.37499,-0.875 1.66667,-0.83333 1.66667,-3.58333 v -44.20831 q 0,-2.83334 -1.16667,-4.25 -1.16666,-1.41667 -4.62499,-1.29167 3.16666,1.66667 3.16666,6.33333 0,0.33333 -0.0417,0.625 0,0.29167 -0.0417,0.625 z"
         id="path14"
         style="fill:#693500;fill-opacity:1;stroke:#ffffff;stroke-width:5;stroke-linejoin:round;stroke-dasharray:none;stroke-opacity:1;paint-order:markers stroke fill" />
      <path
         d="m 629.2763,329.15314 -4.66667,-11.91666 h -19.70832 l -2.75,7.08333 q -1.08334,2.70833 -1.08334,5.625 0,2.79166 1.75,4.91666 1.79167,2.125 4.95833,2.25 v 2.29167 h -19.29165 v -2.29167 q 6.45833,-0.95833 10.41666,-11.12499 l 14.41666,-36.91666 q -1.125,-1.95833 -2.375,-2.62499 -1.25,-0.70834 -3.66667,-0.95834 v -2.04166 l 10,-3.41667 h 3.83333 l 19.29166,49.20831 q 1.66667,4.16667 3.33333,5.66667 1.66667,1.45833 5.08333,2.20833 v 2.29167 h -24.74999 v -2.29167 q 3.20834,-0.33333 4.79167,-1 1.625,-0.66666 1.625,-2.58333 0,-1.66667 -1.20833,-4.375 z m -23.37499,-14.58333 h 17.66665 l -8.87499,-22.45832 z m 27.16665,13.04167 -14.87499,-37.70832 q -1.08334,-2.83333 -2.25,-4 -1.16667,-1.20833 -3.20833,-1.20833 -1.20834,0 -1.95834,0.16666 2,0.79167 3,2.20834 1.04167,1.41666 1.95833,3.79166 l 14.75,37.70832 q 1.375,3.33333 1.375,5.20833 0,1.20833 -0.45834,1.75 -0.45833,0.54167 -1.83333,1.58333 h 0.91667 q 1.95833,0 3,-1.04166 1.08333,-1.04167 1.08333,-2.45834 0,-2.04166 -1.5,-5.99999 z m -40.12498,9.49999 h 7.99999 q -2.62499,-2.04166 -2.62499,-5.125 0,-0.875 0.0833,-1.375 -1.125,2.08334 -2.29167,3.54167 -1.125,1.45833 -3.16666,2.95833 z"
         id="path15"
         style="fill:#693500;fill-opacity:1;stroke:#ffffff;stroke-width:5;stroke-linejoin:round;stroke-dasharray:none;stroke-opacity:1;paint-order:markers stroke fill" />
      <path
         d="m 294.27643,419.36145 v 17.66666 q 0,2.5 0.70833,3.87499 0.75,1.33334 2,1.91667 1.25,0.54167 3.54166,0.70833 2.29167,0.16667 4.25,0.25 v 2.29167 h -30.29165 v -2.29167 q 3.375,-0.0833 5.04166,-0.375 1.70834,-0.29166 2.66667,-1.125 1,-0.83333 1.33333,-2.125 0.375,-1.33333 0.375,-3.62499 v -36.70832 q 0,-4.58333 -0.41666,-6.5 -0.375,-1.91666 -2.375,-2.83333 -1.95834,-0.91667 -6.625,-0.91667 v -2.29166 h 28.66665 q 1.91667,0 9.16667,0.66666 2.33333,0.20834 4.95833,1.375 2.66666,1.16667 4.95833,3.20833 2.33333,2 3.75,4.79167 1.41666,2.75 1.41666,6 0,3.625 -1.45833,6.54166 -1.41667,2.91667 -4.41666,5.04167 -2.95834,2.12499 -7.5,3.29166 -4.5,1.16667 -10.5,1.16667 z m -9.04167,-20.04166 v 39.16665 q 0,3.95833 -3.04166,5.29166 h 1.08333 q 4.625,0 4.625,-4.37499 v -38.12499 q 0,-5.125 -0.0833,-6.70833 -0.0417,-1.58333 -0.54167,-2.70833 -0.45833,-1.125 -1.70833,-1.625 -1.20834,-0.54167 -3.75,-0.75 1.66667,0.79167 2.33333,1.79167 0.66667,0.99999 0.875,2.83333 0.20833,1.83333 0.20833,5.20833 z m 9.04167,17.74999 h 5.83333 q 5.29166,0 8.79166,-1.25 3.5,-1.29166 5.375,-4.29166 1.875,-3.04167 1.875,-8.125 0,-7.625 -5.125,-11.41666 -2.04167,-1.5 -4.125,-1.95833 -2.08333,-0.45834 -5.16666,-0.45834 -3.54167,0 -5.125,1 -1.54167,1 -1.95833,3 -0.375,2 -0.375,5.91667 z m 15.95832,-0.45833 q 5,-0.75 7.45833,-3.95833 2.45834,-3.20834 2.45834,-9.08333 0,-6.20833 -2.5,-9.29167 -2.5,-3.12499 -7.5,-4.16666 2.375,1.20833 4.04167,3.16666 1.66666,1.95834 2.49999,4.58334 0.83334,2.62499 0.83334,5.70833 0,9.91666 -7.29167,13.04166 z"
         id="path16"
         style="fill:#693500;fill-opacity:1;stroke:#ffffff;stroke-width:5;stroke-linejoin:round;stroke-dasharray:none;stroke-opacity:1;paint-order:markers stroke fill" />
      <path
         d="m 334.31808,387.27813 h 27.74999 v 2.29166 q -3.91667,0.0833 -6.08333,1.04167 -2.125,0.91667 -2.29167,3.75 -0.0833,1.75 -0.16667,2.79166 -0.0833,1 -0.0833,0.875 v 38.41665 q 0,2.45834 0.5,3.91667 0.54167,1.45833 1.5,2.08333 0.95833,0.625 2.20833,0.875 1.25,0.20833 4.41667,0.45833 v 2.29167 h -27.74999 v -2.29167 q 3.70833,-0.0417 5.58333,-0.75 1.91666,-0.75 2.45833,-2.33333 0.58333,-1.625 0.58333,-5.125 v -37.20831 q 0,-3.33334 -0.33333,-4.91667 -0.29167,-1.625 -1.16667,-2.33333 -0.875,-0.70833 -2.37499,-0.95833 -1.45834,-0.29167 -4.75,-0.58334 z m 9.99999,9.87499 v 41.49999 q 0,2.12499 -0.75,3.12499 -0.75,1 -2.58333,2 2.70833,-0.0833 4.375,-0.875 1.66667,-0.83333 1.66667,-3.58333 v -44.20831 q 0,-2.83334 -1.16667,-4.25 -1.16667,-1.41667 -4.625,-1.29167 3.16667,1.66667 3.16667,6.33333 0,0.33334 -0.0417,0.625 0,0.29167 -0.0417,0.625 z"
         id="path17"
         style="fill:#693500;fill-opacity:1;stroke:#ffffff;stroke-width:5;stroke-linejoin:round;stroke-dasharray:none;stroke-opacity:1;paint-order:markers stroke fill" />
      <path
         d="m 406.73472,387.27813 h 23.04165 v 2.29166 q -4.24999,0.29167 -8.20833,3.29167 -3.91666,3 -9.37499,9.49999 l -9.04166,10.875 14.87499,19.41666 q 3.75,4.95833 5.16666,6.66666 1.45834,1.66667 3.75,3.04167 2.33333,1.375 5.41667,1.41666 v 2.29167 h -30.04166 v -2.29167 h 1 q 3.04167,0 4.5,-1 1.5,-1 1.5,-2.33333 0,-1.58333 -1.29167,-3.58333 -1.25,-2.04167 -3.5,-4.95833 l -8.04166,-10.58333 -8,9.45833 q -2.29166,2.70833 -3.33333,4.58333 -1,1.875 -1,3.625 0,2.33333 1.70834,3.45833 1.70833,1.125 4.91666,1.33333 v 2.29167 h -23.29166 v -2.29167 h 0.5 q 1.91667,0 4.625,-1.33333 2.70833,-1.375 6.16667,-4.375 3.45833,-3 6.95833,-7.29166 l 9.41666,-11.33333 -15.29166,-20.04166 q -3.29167,-4.375 -5,-6.29166 -1.70833,-1.91667 -3.41666,-2.70833 -1.70834,-0.79167 -4.375,-0.83334 v -2.29166 h 28.58332 v 2.29166 h -3 q -1.70833,0 -2.91667,0.75 -1.16666,0.70834 -1.16666,2 0,1.04167 0.54166,2.04167 0.54167,0.95833 1.91667,2.79166 l 10.66666,14.16666 7.70833,-9.29166 q 4,-4.79166 4,-7.83333 0,-1.83333 -1.70833,-3.16666 -1.70833,-1.33334 -4.95833,-1.45834 z m 14.41666,2.29166 h -8.95833 q 2.58333,1.54167 2.58333,4.375 0,0.75 -0.0833,1.25 2.41666,-3.625 6.45833,-5.625 z m -12.95833,40.45832 -26.70832,-35.16665 q -1.91667,-2.45834 -2.91667,-3.375 -0.95833,-0.95833 -2.41666,-1.45833 -1.41667,-0.5 -3.79167,-0.54167 1.54167,0.58333 3.20833,2.29167 1.70834,1.66666 4.20833,4.95833 l 27.99999,37.29165 q 2.875,3.91666 2.875,6.33333 0,1.70833 -2.20833,3.41666 2.5,0.0417 3.79166,-0.95833 1.33334,-1 1.33334,-2.70833 0,-1.79167 -1.29167,-4.08333 -1.25,-2.33334 -4.08333,-6 z m -35.08332,13.74999 h 10.16666 q -2.375,-1.375 -2.375,-3.83333 0,-1.29166 0.66667,-2.83333 -1.625,1.70833 -2.375,2.45833 -0.75,0.75 -2.375,1.91667 -1.58333,1.125 -3.70833,2.29166 z"
         id="path18"
         style="fill:#693500;fill-opacity:1;stroke:#ffffff;stroke-width:5;stroke-linejoin:round;stroke-dasharray:none;stroke-opacity:1;paint-order:markers stroke fill" />
      <path
         d="m 455.44303,416.98645 v 18.33332 q 0,3.04167 0.41667,4.75 0.45833,1.66667 1.625,2.5 1.16667,0.79167 3.33333,1 2.20833,0.20833 6,0.20833 4.58333,0 8.20833,-1.375 3.66666,-1.41666 6.875,-4.12499 3.24999,-2.75 7.08333,-7.29167 h 3.33333 l -5.20833,15.08333 h -51.29165 v -2.29167 q 3.70833,-0.0833 5.625,-0.625 1.95833,-0.58333 2.75,-1.875 0.83333,-1.33333 0.83333,-3.74999 v -41.20832 q 0,-2.91667 -0.75,-4.25 -0.75,-1.33333 -2.54166,-1.79166 -1.79167,-0.5 -5.91667,-0.70834 v -2.29166 h 49.24998 l 5.04167,13.29166 h -3 q -2.41667,-3.04167 -5.91667,-5.5 -3.45833,-2.5 -7.79166,-4 -4.29167,-1.5 -9.08333,-1.5 -3.79167,0 -5.70833,0.83334 -1.91667,0.79166 -2.54167,2.24999 -0.625,1.45834 -0.625,3.83334 v 18.16666 h 8.375 q 10.95833,0 11.08333,-10.04167 h 2.91666 v 22.08333 h -2.58333 q -0.5,-5.08333 -2.875,-7.375 -2.33333,-2.33333 -7.16666,-2.33333 z m 27.49999,26.79165 2.875,-7.24999 q -2.45833,2.66666 -4.45833,3.99999 -2,1.29167 -5.66667,3.25 z m -8.54166,-24.08332 v -8.16666 q -1.625,2.79166 -5.91667,4.08333 2.29167,0.625 3.625,1.5 1.33334,0.875 2.29167,2.58333 z m 6.75,-30.12499 h -7.54167 q 3.125,1.04167 5.54167,2.5 2.41666,1.45833 5.12499,3.5 z m -34.74999,7.08333 v 40.29165 q 0,3.04167 -0.70833,4.45833 -0.70834,1.41667 -2.125,2.375 3.45833,-0.0417 4.45833,-1.79166 1.04167,-1.79167 1.04167,-5.75 v -40.33332 q 0,-3.54166 -1.20834,-4.66666 -1.20833,-1.16667 -4.29166,-1.25 1.54166,0.83333 2.16666,2.25 0.66667,1.375 0.66667,4.41666 z"
         id="path19"
         style="fill:#693500;fill-opacity:1;stroke:#ffffff;stroke-width:5;stroke-linejoin:round;stroke-dasharray:none;stroke-opacity:1;paint-order:markers stroke fill" />
      <path
         d="m 495.98469,389.56979 v -2.29166 h 28.95832 v 2.29166 h -1.29167 q -3.25,0 -5,0.58334 -1.70833,0.58333 -2.41666,2.16666 -0.70833,1.54167 -0.70833,4.41667 v 40.79165 q 0,2.37499 0.79166,3.70833 0.83334,1.29166 2.95833,1.91666 2.125,0.625 6,0.625 3.29167,0 6.04167,-0.54166 2.74999,-0.54167 5.45833,-1.91667 2.70833,-1.375 5.58333,-3.91666 2.875,-2.54167 5.79166,-6.33333 h 3.83333 l -5.54166,14.99999 h -50.45831 v -2.29167 h 0.54166 q 3.75,0 5.54167,-0.66666 1.79166,-0.70834 2.41666,-2.16667 0.66667,-1.5 0.66667,-4.16666 v -39.41665 q 0,-3.125 -0.58333,-4.70834 -0.54167,-1.58333 -2.54167,-2.33333 -1.95833,-0.75 -6.04166,-0.75 z m 10.49999,6.41667 v 42.66665 q 0,2.04166 -0.75,3.16666 -0.70833,1.125 -2.20833,1.95833 0.16667,0 0.70833,0.0833 0.54167,0.0833 0.70834,0.0833 4.20833,0 4.20833,-6.08333 v -39.99998 q 0,-4.20834 -0.66667,-6.25 -0.625,-2.04167 -3.70833,-2.04167 h -1.25 q 1.70833,1 2.33333,2.16667 0.625,1.16666 0.625,4.25 z m 28.24999,47.79164 h 7.625 l 3.58333,-8.20833 q -2.375,2.83334 -5.08333,4.83333 -2.66667,1.95834 -6.125,3.375 z"
         id="path20"
         style="fill:#693500;fill-opacity:1;stroke:#ffffff;stroke-width:5;stroke-linejoin:round;stroke-dasharray:none;stroke-opacity:1;paint-order:markers stroke fill" />
      <path
         d="m 558.48467,424.90311 h 2.74999 q 2.29167,6.58333 5.5,11.08333 3.25,4.45833 7.04167,6.625 3.83333,2.16666 7.99999,2.16666 5.20833,0 8.91667,-3.25 3.70833,-3.24999 3.70833,-8.33333 0,-4.74999 -2.45833,-7.37499 -2.45834,-2.66667 -5.875,-3.70833 -3.41667,-1.08334 -9,-2 -5.58333,-0.91667 -7.91666,-1.70834 -3.625,-1.25 -6.16667,-3.41666 -2.54166,-2.20833 -3.87499,-5.25 -1.29167,-3.08333 -1.29167,-6.58333 0,-3.33333 1.16667,-6.41666 1.16666,-3.08334 3.29166,-5.45833 2.125,-2.375 5.16667,-3.75 3.08333,-1.375 6.83333,-1.375 2.70833,0 6.62499,0.79166 3.95833,0.75 5.75,0.75 2.25,0 4.25,-1 h 3.16666 l 1.79167,17.125 h -2.91667 q -4.08333,-7.66667 -8.58332,-11.66667 -4.45834,-4.04166 -10.5,-4.04166 -3,0 -5.58333,1.41667 -2.58333,1.375 -4.16667,3.83333 -1.54166,2.45833 -1.54166,5.41666 0,4.16667 2.83333,6.375 2.83333,2.20833 8.375,3.33333 5.58333,1.125 9.95833,1.91667 4.41666,0.79166 6.99999,2.04166 4.75,2.33334 7.375,6.45833 2.625,4.125 2.625,9.33333 0,5 -2.41667,9.33333 -2.41666,4.33333 -6.79166,6.95833 -4.375,2.58334 -9.75,2.58334 -3.04166,0 -4.58333,-0.45834 -1.54166,-0.45833 -5.29166,-1.79166 -3.75,-1.33334 -5.75,-1.33334 -3.33333,0 -5.29167,2.54167 h -2.37499 z m 32.79165,-26.95832 -1.375,-7.95833 q -1.375,0.45833 -2.75,0.45833 -1.5,0 -3.25,-0.45833 1.66667,1.08333 2.91667,2.41666 1.25,1.33334 2.625,3.20834 1.375,1.875 1.83333,2.33333 z m -31.41665,34.70832 v 11.12499 q 1.20833,-1.58333 2.20833,-2.04166 1.04166,-0.45834 3.16666,-0.375 -1.375,-1.625 -2,-2.375 -0.58333,-0.79167 -1.5,-2.29167 -0.875,-1.54166 -1.87499,-4.04166 z m 0,-34.37499 q -0.70834,3.16667 -0.70834,5.125 0,2.20833 0.75,4.45833 0.75,2.20833 2.20833,4.20833 1.45834,1.95834 3.29167,3.20834 2.45833,1.66666 5.41666,2.37499 2.95834,0.66667 8.625,1.625 5.70833,0.91667 7.875,1.79167 4,1.45833 6.20833,4.45833 2.25,3 2.25,7.04166 0,3 -1.70834,6.33334 3.41667,-3.54167 3.41667,-8.29167 0,-4.91666 -2.54167,-7.70833 -2.49999,-2.83333 -6.24999,-4.16666 -3.70834,-1.375 -10.16667,-2.5 -6.45833,-1.16667 -6.62499,-1.20833 -5.91667,-1.54167 -9,-5.33334 -3.04166,-3.79166 -3.04166,-8.74999 0,-0.91667 -0.0417,-1.54167 0,-0.625 0.0417,-1.125 z"
         id="path21"
         style="fill:#693500;fill-opacity:1;stroke:#ffffff;stroke-width:5;stroke-linejoin:round;stroke-dasharray:none;stroke-opacity:1;paint-order:markers stroke fill" />
    </g>
    <g
       id="g43"
       style="display:inline">
      <path
         sodipodi:type="star"
         style="opacity:0.469914;fill:#ffffff;stroke:none;stroke-width:5;stroke-linecap:square;stroke-linejoin:round;stroke-dasharray:none;filter:url(#filter43)"
         id="path41"
         inkscape:flatsided="false"
         sodipodi:sides="4"
         sodipodi:cx="-562.1499"
         sodipodi:cy="-27.577164"
         sodipodi:r1="39.712536"
         sodipodi:r2="10.325259"
         sodipodi:arg1="0.76761303"
         sodipodi:arg2="1.5530112"
         inkscape:rounded="0"
         inkscape:randomized="0"
         d="M -533.57394,5.9650018e-7 -561.96628,-17.253537 l -27.76079,18.25233372 17.25354,-28.39233372 -18.25233,-27.760791 28.39233,17.253538 27.76079,-18.252334 -17.25354,28.392334 z"
         transform="matrix(0.48273907,-0.46664729,0.46664729,0.48273907,585.18362,-41.814305)"
         inkscape:transform-center-x="3.3838926"
         inkscape:transform-center-y="-0.28230288" />
      <path
         sodipodi:type="star"
         style="opacity:0.469914;fill:#ffffff;stroke:none;stroke-width:5;stroke-linecap:square;stroke-linejoin:round;stroke-dasharray:none;filter:url(#filter44)"
         id="path42"
         inkscape:flatsided="false"
         sodipodi:sides="4"
         sodipodi:cx="-562.1499"
         sodipodi:cy="-27.577164"
         sodipodi:r1="39.712536"
         sodipodi:r2="10.325259"
         sodipodi:arg1="0.76761303"
         sodipodi:arg2="1.5530112"
         inkscape:rounded="0"
         inkscape:randomized="0"
         d="M -533.57394,5.9650018e-7 -561.96628,-17.253537 l -27.76079,18.25233372 17.25354,-28.39233372 -18.25233,-27.760791 28.39233,17.253538 27.76079,-18.252334 -17.25354,28.392334 z"
         transform="matrix(0.48273907,-0.46664729,0.46664729,0.48273907,707.2064,-137.35341)"
         inkscape:transform-center-x="3.3838926"
         inkscape:transform-center-y="-0.28230288" />
      <path
         sodipodi:type="star"
         style="opacity:0.469914;fill:#ffffff;stroke:none;stroke-width:5;stroke-linecap:square;stroke-linejoin:round;stroke-dasharray:none;filter:url(#filter45)"
         id="path43"
         inkscape:flatsided="false"
         sodipodi:sides="4"
         sodipodi:cx="-562.1499"
         sodipodi:cy="-27.577164"
         sodipodi:r1="39.712536"
         sodipodi:r2="10.325259"
         sodipodi:arg1="0.76761303"
         sodipodi:arg2="1.5530112"
         inkscape:rounded="0"
         inkscape:randomized="0"
         d="M -533.57394,5.9650018e-7 -561.96628,-17.253537 l -27.76079,18.25233372 17.25354,-28.39233372 -18.25233,-27.760791 28.39233,17.253538 27.76079,-18.252334 -17.25354,28.392334 z"
         transform="matrix(0.48273907,-0.46664729,0.46664729,0.48273907,722.32657,-60.330652)"
         inkscape:transform-center-x="3.3838926"
         inkscape:transform-center-y="-0.28230288" />
    </g>
    <g
       id="g41">
      <path
         sodipodi:type="star"
         style="opacity:0.280802;fill:#ffffff;stroke:none;stroke-width:5;stroke-linecap:square;stroke-linejoin:round;stroke-dasharray:none"
         id="path35"
         inkscape:flatsided="false"
         sodipodi:sides="4"
         sodipodi:cx="-562.1499"
         sodipodi:cy="-27.577164"
         sodipodi:r1="39.712536"
         sodipodi:r2="10.325259"
         sodipodi:arg1="0.76761303"
         sodipodi:arg2="1.5530112"
         inkscape:rounded="0"
         inkscape:randomized="0"
         d="M -533.57394,5.9650018e-7 -561.96628,-17.253537 l -27.76079,18.25233372 17.25354,-28.39233372 -18.25233,-27.760791 28.39233,17.253538 27.76079,-18.252334 -17.25354,28.392334 z"
         transform="matrix(0.33523547,-0.32406062,0.32406062,0.33523547,498.33235,34.273048)"
         inkscape:transform-center-x="3.3838926"
         inkscape:transform-center-y="-0.28230288" />
      <path
         sodipodi:type="star"
         style="opacity:0.280802;fill:#ffffff;stroke:none;stroke-width:5;stroke-linecap:square;stroke-linejoin:round;stroke-dasharray:none"
         id="path36"
         inkscape:flatsided="false"
         sodipodi:sides="4"
         sodipodi:cx="-562.1499"
         sodipodi:cy="-27.577164"
         sodipodi:r1="39.712536"
         sodipodi:r2="10.325259"
         sodipodi:arg1="0.76761303"
         sodipodi:arg2="1.5530112"
         inkscape:rounded="0"
         inkscape:randomized="0"
         d="M -533.57394,5.9650018e-7 -561.96628,-17.253537 l -27.76079,18.25233372 17.25354,-28.39233372 -18.25233,-27.760791 28.39233,17.253538 27.76079,-18.252334 -17.25354,28.392334 z"
         transform="matrix(0.33523547,-0.32406062,0.32406062,0.33523547,620.35513,-61.266058)"
         inkscape:transform-center-x="3.3838926"
         inkscape:transform-center-y="-0.28230288" />
      <path
         sodipodi:type="star"
         style="opacity:0.280802;fill:#ffffff;stroke:none;stroke-width:5;stroke-linecap:square;stroke-linejoin:round;stroke-dasharray:none"
         id="path37"
         inkscape:flatsided="false"
         sodipodi:sides="4"
         sodipodi:cx="-562.1499"
         sodipodi:cy="-27.577164"
         sodipodi:r1="39.712536"
         sodipodi:r2="10.325259"
         sodipodi:arg1="0.76761303"
         sodipodi:arg2="1.5530112"
         inkscape:rounded="0"
         inkscape:randomized="0"
         d="M -533.57394,5.9650018e-7 -561.96628,-17.253537 l -27.76079,18.25233372 17.25354,-28.39233372 -18.25233,-27.760791 28.39233,17.253538 27.76079,-18.252334 -17.25354,28.392334 z"
         transform="matrix(0.33523547,-0.32406062,0.32406062,0.33523547,635.4753,15.7567)"
         inkscape:transform-center-x="3.3838926"
         inkscape:transform-center-y="-0.28230288" />
    </g>
    <g
       id="g40">
      <path
         sodipodi:type="star"
         style="opacity:1;fill:#ffffff;stroke:none;stroke-width:5;stroke-linecap:square;stroke-linejoin:round;stroke-dasharray:none"
         id="path38"
         inkscape:flatsided="false"
         sodipodi:sides="4"
         sodipodi:cx="-562.1499"
         sodipodi:cy="-27.577164"
         sodipodi:r1="39.712536"
         sodipodi:r2="10.325259"
         sodipodi:arg1="0.76761303"
         sodipodi:arg2="1.5530112"
         inkscape:rounded="0"
         inkscape:randomized="0"
         d="M -533.57394,5.9650018e-7 -561.96628,-17.253537 l -27.76079,18.25233372 17.25354,-28.39233372 -18.25233,-27.760791 28.39233,17.253538 27.76079,-18.252334 -17.25354,28.392334 z"
         transform="matrix(0.2145507,-0.2073988,0.2073988,0.2145507,427.27222,96.526337)"
         inkscape:transform-center-x="3.3838926"
         inkscape:transform-center-y="-0.28230288" />
      <path
         sodipodi:type="star"
         style="opacity:1;fill:#ffffff;stroke:none;stroke-width:5;stroke-linecap:square;stroke-linejoin:round;stroke-dasharray:none"
         id="path39"
         inkscape:flatsided="false"
         sodipodi:sides="4"
         sodipodi:cx="-562.1499"
         sodipodi:cy="-27.577164"
         sodipodi:r1="39.712536"
         sodipodi:r2="10.325259"
         sodipodi:arg1="0.76761303"
         sodipodi:arg2="1.5530112"
         inkscape:rounded="0"
         inkscape:randomized="0"
         d="M -533.57394,5.9650018e-7 -561.96628,-17.253537 l -27.76079,18.25233372 17.25354,-28.39233372 -18.25233,-27.760791 28.39233,17.253538 27.76079,-18.252334 -17.25354,28.392334 z"
         transform="matrix(0.2145507,-0.2073988,0.2073988,0.2145507,549.295,0.98723082)"
         inkscape:transform-center-x="3.3838926"
         inkscape:transform-center-y="-0.28230288" />
      <path
         sodipodi:type="star"
         style="opacity:1;fill:#ffffff;stroke:none;stroke-width:5;stroke-linecap:square;stroke-linejoin:round;stroke-dasharray:none"
         id="path40"
         inkscape:flatsided="false"
         sodipodi:sides="4"
         sodipodi:cx="-562.1499"
         sodipodi:cy="-27.577164"
         sodipodi:r1="39.712536"
         sodipodi:r2="10.325259"
         sodipodi:arg1="0.76761303"
         sodipodi:arg2="1.5530112"
         inkscape:rounded="0"
         inkscape:randomized="0"
         d="M -533.57394,5.9650018e-7 -561.96628,-17.253537 l -27.76079,18.25233372 17.25354,-28.39233372 -18.25233,-27.760791 28.39233,17.253538 27.76079,-18.252334 -17.25354,28.392334 z"
         transform="matrix(0.2145507,-0.2073988,0.2073988,0.2145507,564.41517,78.009989)"
         inkscape:transform-center-x="3.3838926"
         inkscape:transform-center-y="-0.28230288" />
    </g>
  </g>
  <g
     inkscape:groupmode="layer"
     id="layer2"
     inkscape:label="Layer 2"
     style="display:none"
     transform="translate(22.170041,114.14503)">
    <g
       id="g5"
       inkscape:label="moon"
       style="fill:url(#pattern24);fill-opacity:1;stroke-width:6.303;stroke-dasharray:none"
       transform="translate(459.85798,-169.56614)">
      <path
         style="display:inline;fill:#000000;fill-opacity:1;stroke:#000000;stroke-width:6.303;stroke-linecap:round;stroke-linejoin:round;stroke-dasharray:none;stroke-opacity:1;paint-order:fill markers stroke"
         d="m 552.10812,188.23777 c -26.11726,-0.19138 -51.90295,8.21965 -73.58406,22.62317 -16.18998,10.47712 -29.49898,25.0475 -39.91151,41.18155 -4.67293,8.24912 -9.44172,16.63456 -12.29756,25.70494 -0.86461,3.37301 1.72873,-0.17231 2.40268,-1.04401 12.53017,-25.413 35.75455,-45.18213 62.78739,-53.56088 14.96373,-4.86976 31.01762,-5.50545 46.50537,-3.60118 29.67759,4.10204 57.0426,22.18179 72.95983,47.42204 18.25494,28.19328 21.36276,65.31615 8.35524,96.16731 -12.70013,31.18626 -41.41205,55.14737 -74.31677,62.11986 -13.69785,2.9934 -27.98644,2.89754 -41.80487,0.65119 -30.86623,-5.74834 -58.64474,-26.18212 -73.13972,-54.0965 -1.13853,-1.38229 -2.32668,-3.13124 -3.35538,-4.50525 0.39537,1.86838 0.77238,3.7204 1.32433,5.78838 14.18971,35.63497 44.1853,64.56103 80.42409,77.20104 15.47827,5.4756 31.9948,8.07263 48.39437,7.71453 18.53993,-0.85717 37.0903,-4.65509 53.82016,-12.88354 37.48289,-17.32259 66.02598,-52.8124 74.55022,-93.26055 3.63921,-15.44398 3.41407,-31.52287 1.90111,-47.224 -5.46438,-40.00597 -29.70441,-77.16593 -64.73862,-97.45235 -21.11324,-12.71957 -45.60565,-19.47087 -70.2763,-18.94575 z"
         id="path2"
         sodipodi:nodetypes="ccccccccccccccccccccc" />
      <path
         style="display:inline;fill:none;fill-opacity:1;stroke:#000000;stroke-width:13.103;stroke-linecap:butt;stroke-linejoin:round;stroke-dasharray:none;stroke-opacity:1;paint-order:fill markers stroke"
         d="m 552.10812,176.14618 c -26.11726,-0.19138 -51.90295,8.21965 -73.58406,22.62317 -16.18998,10.47712 -29.49898,25.0475 -39.91151,41.18155 -4.67293,8.24912 -9.44172,16.63456 -12.29756,25.70494 -0.86461,3.37301 1.72873,-0.17231 2.40268,-1.04401 12.53017,-25.413 35.75455,-45.18213 62.78739,-53.56088 14.96373,-4.86976 31.01762,-5.50545 46.50537,-3.60118 29.67759,4.10204 57.0426,22.18179 72.95983,47.42204 18.25494,28.19328 21.36276,65.31615 8.35524,96.16731 -12.70013,31.18626 -41.41205,55.14737 -74.31677,62.11986 -13.69785,2.9934 -27.98644,2.89754 -41.80487,0.65119 -30.86623,-5.74834 -58.64474,-26.18212 -73.13972,-54.0965 -1.13853,-1.38229 -2.32668,-3.13124 -3.35538,-4.50525 0.39537,1.86838 0.77238,3.7204 1.32433,5.78838 14.18971,35.63497 44.1853,64.56103 80.42409,77.20104 15.47827,5.4756 31.9948,8.07263 48.39437,7.71453 18.53993,-0.85717 37.0903,-4.65509 53.82016,-12.88354 37.48289,-17.32259 66.02598,-52.8124 74.55022,-93.26055 3.63921,-15.44398 3.41407,-31.52287 1.90111,-47.224 -5.46438,-40.00597 -29.70441,-77.16593 -64.73862,-97.45235 -21.11324,-12.71957 -45.60565,-19.47087 -70.2763,-18.94575 z"
         id="path3"
         sodipodi:nodetypes="ccccccccccccccccccccc" />
      <path
         style="display:inline;fill:#424242;fill-opacity:1;stroke:#693500;stroke-width:6.303;stroke-linecap:butt;stroke-linejoin:round;stroke-dasharray:none;stroke-opacity:1;paint-order:fill markers stroke"
         d="m 552.10812,176.14618 c -26.11726,-0.19138 -51.90295,8.21965 -73.58406,22.62317 -16.18998,10.47712 -29.49898,25.0475 -39.91151,41.18155 -4.67293,8.24912 -9.44172,16.63456 -12.29756,25.70494 -0.86461,3.37301 1.72873,-0.17231 2.40268,-1.04401 12.53017,-25.413 35.75455,-45.18213 62.78739,-53.56088 14.96373,-4.86976 31.01762,-5.50545 46.50537,-3.60118 29.67759,4.10204 57.0426,22.18179 72.95983,47.42204 18.25494,28.19328 21.36276,65.31615 8.35524,96.16731 -12.70013,31.18626 -41.41205,55.14737 -74.31677,62.11986 -13.69785,2.9934 -27.98644,2.89754 -41.80487,0.65119 -30.86623,-5.74834 -58.64474,-26.18212 -73.13972,-54.0965 -1.13853,-1.38229 -2.32668,-3.13124 -3.35538,-4.50525 0.39537,1.86838 0.77238,3.7204 1.32433,5.78838 14.18971,35.63497 44.1853,64.56103 80.42409,77.20104 15.47827,5.4756 31.9948,8.07263 48.39437,7.71453 18.53993,-0.85717 37.0903,-4.65509 53.82016,-12.88354 37.48289,-17.32259 66.02598,-52.8124 74.55022,-93.26055 3.63921,-15.44398 3.41407,-31.52287 1.90111,-47.224 -5.46438,-40.00597 -29.70441,-77.16593 -64.73862,-97.45235 -21.11324,-12.71957 -45.60565,-19.47087 -70.2763,-18.94575 z"
         id="path4"
         sodipodi:nodetypes="ccccccccccccccccccccc" />
      <path
         style="display:inline;opacity:0.225882;mix-blend-mode:normal;fill:url(#pattern24);fill-opacity:1;stroke:#693500;stroke-width:6.303;stroke-linecap:butt;stroke-linejoin:round;stroke-dasharray:none;stroke-opacity:1;paint-order:normal"
         d="m 552.10812,176.14618 c -26.11726,-0.19138 -51.90295,8.21965 -73.58406,22.62317 -16.18998,10.47712 -29.49898,25.0475 -39.91151,41.18155 -4.67293,8.24912 -9.44172,16.63456 -12.29756,25.70494 -0.86461,3.37301 1.72873,-0.17231 2.40268,-1.04401 12.53017,-25.413 35.75455,-45.18213 62.78739,-53.56088 14.96373,-4.86976 31.01762,-5.50545 46.50537,-3.60118 29.67759,4.10204 57.0426,22.18179 72.95983,47.42204 18.25494,28.19328 21.36276,65.31615 8.35524,96.16731 -12.70013,31.18626 -41.41205,55.14737 -74.31677,62.11986 -13.69785,2.9934 -27.98644,2.89754 -41.80487,0.65119 -30.86623,-5.74834 -58.64474,-26.18212 -73.13972,-54.0965 -1.13853,-1.38229 -2.32668,-3.13124 -3.35538,-4.50525 0.39537,1.86838 0.77238,3.7204 1.32433,5.78838 14.18971,35.63497 44.1853,64.56103 80.42409,77.20104 15.47827,5.4756 31.9948,8.07263 48.39437,7.71453 18.53993,-0.85717 37.0903,-4.65509 53.82016,-12.88354 37.48289,-17.32259 66.02598,-52.8124 74.55022,-93.26055 3.63921,-15.44398 3.41407,-31.52287 1.90111,-47.224 -5.46438,-40.00597 -29.70441,-77.16593 -64.73862,-97.45235 -21.11324,-12.71957 -45.60565,-19.47087 -70.2763,-18.94575 z"
         id="path5"
         sodipodi:nodetypes="ccccccccccccccccccccc" />
    </g>
    <text
       xml:space="preserve"
       style="font-style:normal;font-variant:normal;font-weight:normal;font-stretch:normal;font-size:87.5261px;font-family:'Young Serif';-inkscape-font-specification:'Young Serif';text-align:center;letter-spacing:-0.37px;word-spacing:4.51072px;text-anchor:middle;fill:#000000;fill-opacity:1;stroke:#000000;stroke-width:0;stroke-linecap:square;stroke-dasharray:none;paint-order:markers stroke fill"
       x="903.62671"
       y="179.09566"
       id="text6"
       transform="scale(0.99350783,1.0065346)"><tspan
         sodipodi:role="line"
         id="tspan5"
         x="903.62671"
         y="179.09566"
         style="letter-spacing:-0.37px;fill:#000000;fill-opacity:1;stroke-width:0">ANARGIA</tspan><tspan
         sodipodi:role="line"
         x="903.44171"
         y="288.5033"
         id="tspan6"
         style="letter-spacing:-0.37px;fill:#000000;fill-opacity:1;stroke-width:0">PIXELS</tspan></text>
    <g
       aria-label="ANARGIA PIXELS"
       id="g34"
       style="font-size:85.3333px;font-family:'Imprint MT Shadow';-inkscape-font-specification:'Imprint MT Shadow, Normal';text-align:center;text-anchor:middle;white-space:pre;inline-size:661.166;display:inline;fill:#693500;fill-opacity:1;stroke:#ffffff;stroke-width:6.5;stroke-linecap:round;stroke-dasharray:none;stroke-opacity:1;paint-order:markers stroke fill"
       inkscape:label="text-path"
       transform="translate(459.85798,-168.63057)">
      <path
         d="m 268.4431,329.15314 -4.66666,-11.91666 h -19.70833 l -2.74999,7.08333 q -1.08334,2.70833 -1.08334,5.625 0,2.79166 1.75,4.91666 1.79167,2.125 4.95833,2.25 v 2.29167 h -19.29165 v -2.29167 q 6.45833,-0.95833 10.41666,-11.12499 l 14.41666,-36.91666 q -1.125,-1.95833 -2.375,-2.62499 -1.25,-0.70834 -3.66667,-0.95834 v -2.04166 l 10,-3.41667 h 3.83333 l 19.29166,49.20831 q 1.66667,4.16667 3.33333,5.66667 1.66667,1.45833 5.08333,2.20833 v 2.29167 h -24.74999 v -2.29167 q 3.20834,-0.33333 4.79167,-1 1.625,-0.66666 1.625,-2.58333 0,-1.66667 -1.20834,-4.375 z m -23.37499,-14.58333 h 17.66666 l -8.87499,-22.45832 z m 27.16666,13.04167 -14.87499,-37.70832 q -1.08334,-2.83333 -2.25,-4 -1.16667,-1.20833 -3.20834,-1.20833 -1.20833,0 -1.95833,0.16666 2,0.79167 3,2.20834 1.04167,1.41666 1.95833,3.79166 l 14.75,37.70832 q 1.375,3.33333 1.375,5.20833 0,1.20833 -0.45834,1.75 -0.45833,0.54167 -1.83333,1.58333 h 0.91667 q 1.95833,0 3,-1.04166 1.08333,-1.04167 1.08333,-2.45834 0,-2.04166 -1.5,-5.99999 z m -40.12498,9.49999 h 7.99999 q -2.625,-2.04166 -2.625,-5.125 0,-0.875 0.0833,-1.375 -1.125,2.08334 -2.29167,3.54167 -1.125,1.45833 -3.16666,2.95833 z"
         id="path6"
         style="fill:#693500;fill-opacity:1;stroke:#ffffff;stroke-width:6.5;stroke-dasharray:none;stroke-opacity:1;paint-order:markers stroke fill" />
      <path
         d="m 333.73475,282.90316 v -2.29166 h 22.29165 v 2.29166 q -2.79166,0.0833 -4.91666,1.25 -2.08333,1.16667 -3.29167,3.41667 -1.20833,2.20833 -1.20833,5.33333 l 0.79167,47.79164 h -2.58334 l -42.58331,-49.74998 0.625,33.45832 q 0.0833,3.125 0.5,5.29167 0.41667,2.125 1.5,3.70833 1.08333,1.58333 3.08333,2.5 2.04167,0.91666 5.25,1.20833 v 2.29167 H 291.0681 v -2.29167 q 4.33333,-0.33333 6.41666,-2.33333 2.125,-2 2.625,-4.95833 0.5,-3 0.33333,-7.5 l -0.58333,-34.12498 q -2.375,-2.58334 -4.625,-3.91667 -2.25,-1.375 -4.66666,-1.375 h -0.5 v -2.29166 h 17.20832 l 37.54165,43.79164 -0.58333,-29.29165 q 0,-3.375 -0.70833,-5.70833 -0.66667,-2.375 -2.29167,-3.83333 -1.16666,-1.16667 -3.375,-1.91667 -2.16666,-0.79167 -4.12499,-0.75 z m 14.58332,0 h -9.12499 q 2.08333,0.70833 3.375,1.95833 1.33333,1.25 2.24999,3.41667 0.95834,-3.70833 3.5,-5.375 z m -6.54166,47.70831 -37.54165,-43.79164 q -1.16667,-1.5 -2.79167,-2.70834 -1.58333,-1.20833 -4.5,-1.20833 h -1.87499 q 2.33333,0.83333 3.62499,2.04167 1.29167,1.16666 3.625,3.95833 l 42.79165,49.83331 q -0.0417,-1.20833 -0.125,-2.33333 -0.0417,-1.16667 -0.25,-1.70833 -0.20833,-0.58334 -0.79166,-1.41667 -0.58334,-0.83333 -2.16667,-2.66667 z m -45.58332,6.5 h 8.79167 q -1.83333,-1.41666 -2.625,-2.625 -0.75,-1.20833 -1.29167,-3.375 -0.54166,1.95834 -1.66666,3.41667 -1.125,1.41667 -3.20834,2.58333 z"
         id="path7"
         style="fill:#693500;fill-opacity:1;stroke:#ffffff;stroke-width:6.5;stroke-dasharray:none;stroke-opacity:1;paint-order:markers stroke fill" />
      <path
         d="m 399.06806,329.15314 -4.66667,-11.91666 h -19.70832 l -2.75,7.08333 q -1.08333,2.70833 -1.08333,5.625 0,2.79166 1.75,4.91666 1.79166,2.125 4.95833,2.25 v 2.29167 h -19.29166 v -2.29167 q 6.45833,-0.95833 10.41666,-11.12499 l 14.41666,-36.91666 q -1.125,-1.95833 -2.375,-2.62499 -1.25,-0.70834 -3.66666,-0.95834 v -2.04166 l 9.99999,-3.41667 h 3.83334 l 19.29165,49.20831 q 1.66667,4.16667 3.33334,5.66667 1.66666,1.45833 5.08333,2.20833 v 2.29167 h -24.74999 v -2.29167 q 3.20833,-0.33333 4.79166,-1 1.625,-0.66666 1.625,-2.58333 0,-1.66667 -1.20833,-4.375 z m -23.37499,-14.58333 h 17.66666 l -8.875,-22.45832 z m 27.16665,13.04167 -14.87499,-37.70832 q -1.08333,-2.83333 -2.25,-4 -1.16666,-1.20833 -3.20833,-1.20833 -1.20833,0 -1.95833,0.16666 2,0.79167 3,2.20834 1.04166,1.41666 1.95833,3.79166 l 14.74999,37.70832 q 1.375,3.33333 1.375,5.20833 0,1.20833 -0.45833,1.75 -0.45834,0.54167 -1.83333,1.58333 h 0.91666 q 1.95833,0 3,-1.04166 1.08333,-1.04167 1.08333,-2.45834 0,-2.04166 -1.5,-5.99999 z m -40.12498,9.49999 h 8 q -2.625,-2.04166 -2.625,-5.125 0,-0.875 0.0833,-1.375 -1.125,2.08334 -2.29166,3.54167 -1.125,1.45833 -3.16667,2.95833 z"
         id="path22"
         style="fill:#693500;fill-opacity:1;stroke:#ffffff;stroke-width:6.5;stroke-dasharray:none;stroke-opacity:1;paint-order:markers stroke fill" />
      <path
         d="m 450.90136,339.40314 h -28.87499 v -2.29167 q 4.04167,-0.0833 6,-0.625 1.95833,-0.58333 2.66667,-2.04166 0.75,-1.45834 0.75,-4.58334 v -38.91665 q 0,-3.33333 -0.625,-4.95833 -0.625,-1.625 -2.58334,-2.29166 -1.91666,-0.66667 -6.20833,-0.79167 v -2.29166 h 32.87499 q 6.20833,0 10.83333,2.16666 4.66666,2.125 7,5.70833 2.37499,3.54167 2.37499,7.66667 0,2.70833 -1.08333,5.29166 -1.08333,2.54167 -3.125,4.625 -2.04166,2.08333 -4.95833,3.58333 -2.875,1.45833 -6.70833,2.08333 2.875,2.875 7.08333,8.125 l 4.125,4.875 q 0.33333,0.375 0.83333,0.95833 0.5,0.54167 1.29167,1.41667 2,2.41666 3.375,3.99999 1.375,1.54167 2.70833,2.79167 1.375,1.25 2.66666,2.04167 1.29167,0.75 2.75,1.16666 v 2.29167 h -7.83333 q -2.66666,0 -5.04166,-1.16667 -2.375,-1.20833 -4.58333,-3.375 -2.16667,-2.16666 -4.95833,-5.70833 l -5.83333,-7.41666 q -4.04167,-5.25 -6.04167,-7.25 -1.95833,-2.04166 -3.41666,-2.04166 h -4.625 v 17.66665 q 0,2.625 0.66666,4.125 0.66667,1.5 2.91667,2.16667 1.20833,0.33333 2.95833,0.54166 1.75,0.20834 2.625,0.16667 z m -18.12499,-48.79165 v 41.12498 q 0,3.91667 -2.875,5.375 5.45833,-0.125 5.45833,-4.20833 v -42.04165 q 0,-3.20833 -0.375,-4.83333 -0.33333,-1.66667 -1.625,-2.45833 -1.25,-0.79167 -3.875,-0.66667 2.16667,0.95833 2.70834,2.54167 0.58333,1.54166 0.58333,5.16666 z m 8.95833,0.75 v 18.79166 h 6.75 q 3.41666,0 6.74999,-1.08333 3.33333,-1.125 5.04167,-2.79167 3.41666,-3.20833 3.41666,-9.79166 0,-7.79166 -5.29166,-11.45833 -1.875,-1.29167 -3.91667,-1.70833 -2.04166,-0.41667 -5.20833,-0.41667 -3.20833,0 -4.875,0.875 -1.625,0.83333 -2.16666,2.58333 -0.5,1.70834 -0.5,5 z m 10.87499,21.08333 h -3.41666 q 1.5,1.12499 3.45833,3.37499 2,2.25 5,6.08333 3,3.83334 6.04166,7.79167 2.79167,3.54166 5.16667,5.45833 2.375,1.875 4.20833,2.41666 1.83333,0.54167 3.91666,0.625 -2.58333,-1.25 -4.95833,-3.41666 -2.375,-2.20833 -5.125,-5.54167 -2.70833,-3.37499 -5.62499,-7.08333 -2.875,-3.70833 -5.95833,-6.99999 -0.41667,-0.58334 -1.04167,-1.29167 -0.58333,-0.75 -1.66667,-1.41666 z m 3.66667,-2.5 q 5.58333,-0.70834 8.58333,-4.16667 3,-3.45833 3,-9.37499 0,-5.75 -2.66667,-9.125 -2.66666,-3.41667 -7.58333,-4.125 3.75,1.91667 5.58333,5.16667 1.875,3.20833 1.875,8.58332 0,5.66667 -2.20833,8.5 -2.16667,2.83333 -6.58333,4.54167 z"
         id="path23"
         style="fill:#693500;fill-opacity:1;stroke:#ffffff;stroke-width:6.5;stroke-dasharray:none;stroke-opacity:1;paint-order:markers stroke fill" />
      <path
         d="m 542.85967,279.81983 0.70834,18.37499 h -2.25 q -1.91667,-3.91666 -4.33333,-7 -2.41667,-3.08333 -5,-5.04166 -2.58333,-2 -5.41667,-2.95833 -2.83333,-0.95834 -5.87499,-0.95834 -5.75,0 -10.25,3.54167 -4.5,3.54166 -7,9.83333 -2.45833,6.29166 -2.45833,14.41666 0,8.08333 2.70833,14.41666 2.75,6.33333 7.375,9.83333 4.66666,3.5 10.125,3.5 3.20833,0 5.95833,-1.25 2.79166,-1.25 4.20833,-3.25 1.125,-1.54167 1.45833,-3.33333 0.33333,-1.79167 0.33333,-4.45833 0,-4.20834 -0.45833,-5.875 -0.41667,-1.70833 -2.08333,-2.375 -1.66667,-0.70833 -5.75,-1.04167 v -2.375 h 27.04166 v 2.375 q -4.125,0.33334 -5.75,1 -1.58333,0.625 -2.125,2.33334 -0.54167,1.66666 -0.54167,5.70833 v 9.29166 q -3.45833,1.79167 -7.45833,3.16666 -3.95833,1.33334 -8.04166,2.08334 -4.04167,0.75 -8,0.75 -7.29166,0 -13.16666,-2.33334 -5.875,-2.33333 -9.87499,-6.54166 -4,-4.20833 -6.04167,-9.70833 -2.04166,-5.5 -2.04166,-11.54166 0,-5.91666 1.99999,-11.54166 2.04167,-5.625 5.83334,-9.95833 3.79166,-4.375 9.12499,-6.875 5.33333,-2.54166 11.70833,-2.54166 4.29167,0 9.875,1.20833 5.62499,1.20833 7.04166,1.20833 3.875,0 5.375,-2.08333 z m -4,11.20833 -0.58333,-7.58333 q -1.875,0.75 -3.08333,0.75 -0.91667,0 -1.66667,-0.0833 -0.75,-0.125 -1.66666,-0.33333 -0.91667,-0.25 -1.29167,-0.33333 4.25,2.58333 8.29166,7.58333 z m -4.33333,31.45832 v 5.5 q 0,2.54166 -1.33333,5.04166 -1.33333,2.45833 -4.33333,4.08333 3.29166,-0.70833 5.08333,-2 1.83333,-1.33333 2.58333,-3.41666 0.79167,-2.08334 0.79167,-5.41667 0,-4.125 -0.33333,-5.91666 -0.29167,-1.83333 -1.58334,-2.83333 -1.25,-1.04167 -4.04166,-1.33334 1.54166,1.125 2.33333,2.45834 0.83333,1.29166 0.83333,3.83333 z m -20.41665,16.58332 q -4.125,-1.83333 -7,-3.58333 -2.875,-1.79166 -5.875,-4.95833 -3.95833,-4.25 -6.125,-9.625 -2.16666,-5.41666 -2.16666,-10.74999 0,-6.20833 2.75,-12.5 2.79166,-6.29166 7.58333,-10.83332 2.375,-2.20834 4.45833,-3.375 2.125,-1.20834 5,-2.5 -3,0.58333 -4.75,1.29166 -3.625,1.41667 -6.83333,4.16667 -3.16667,2.70833 -5.70833,6.625 -2.54167,3.87499 -3.875,8.24999 -1.33333,4.33333 -1.33333,8.95833 0,5.83333 2.16666,11.54166 2.20833,5.66667 6.08333,9.58333 2.375,2.33334 4.83333,3.79167 2.45834,1.41667 4.79167,2.25 2.375,0.79166 6,1.66666 z"
         id="path26"
         style="fill:#693500;fill-opacity:1;stroke:#ffffff;stroke-width:6.5;stroke-dasharray:none;stroke-opacity:1;paint-order:markers stroke fill" />
      <path
         d="m 556.52631,280.6115 h 27.74999 v 2.29166 q -3.91667,0.0833 -6.08333,1.04167 -2.125,0.91666 -2.29167,3.75 -0.0833,1.74999 -0.16666,2.79166 -0.0833,1 -0.0833,0.875 v 38.41665 q 0,2.45833 0.5,3.91667 0.54167,1.45833 1.5,2.08333 0.95834,0.625 2.20834,0.875 1.24999,0.20833 4.41666,0.45833 v 2.29167 h -27.74999 v -2.29167 q 3.70833,-0.0417 5.58333,-0.75 1.91667,-0.75 2.45833,-2.33333 0.58334,-1.625 0.58334,-5.125 v -37.20832 q 0,-3.33333 -0.33334,-4.91666 -0.29166,-1.625 -1.16666,-2.33333 -0.875,-0.70834 -2.375,-0.95834 -1.45833,-0.29166 -4.75,-0.58333 z m 10,9.87499 v 41.49998 q 0,2.125 -0.75,3.125 -0.75,1 -2.58333,2 2.70833,-0.0833 4.37499,-0.875 1.66667,-0.83333 1.66667,-3.58333 v -44.20831 q 0,-2.83334 -1.16667,-4.25 -1.16666,-1.41667 -4.62499,-1.29167 3.16666,1.66667 3.16666,6.33333 0,0.33333 -0.0417,0.625 0,0.29167 -0.0417,0.625 z"
         id="path27"
         style="fill:#693500;fill-opacity:1;stroke:#ffffff;stroke-width:6.5;stroke-dasharray:none;stroke-opacity:1;paint-order:markers stroke fill" />
      <path
         d="m 629.2763,329.15314 -4.66667,-11.91666 h -19.70832 l -2.75,7.08333 q -1.08334,2.70833 -1.08334,5.625 0,2.79166 1.75,4.91666 1.79167,2.125 4.95833,2.25 v 2.29167 h -19.29165 v -2.29167 q 6.45833,-0.95833 10.41666,-11.12499 l 14.41666,-36.91666 q -1.125,-1.95833 -2.375,-2.62499 -1.25,-0.70834 -3.66667,-0.95834 v -2.04166 l 10,-3.41667 h 3.83333 l 19.29166,49.20831 q 1.66667,4.16667 3.33333,5.66667 1.66667,1.45833 5.08333,2.20833 v 2.29167 h -24.74999 v -2.29167 q 3.20834,-0.33333 4.79167,-1 1.625,-0.66666 1.625,-2.58333 0,-1.66667 -1.20833,-4.375 z m -23.37499,-14.58333 h 17.66665 l -8.87499,-22.45832 z m 27.16665,13.04167 -14.87499,-37.70832 q -1.08334,-2.83333 -2.25,-4 -1.16667,-1.20833 -3.20833,-1.20833 -1.20834,0 -1.95834,0.16666 2,0.79167 3,2.20834 1.04167,1.41666 1.95833,3.79166 l 14.75,37.70832 q 1.375,3.33333 1.375,5.20833 0,1.20833 -0.45834,1.75 -0.45833,0.54167 -1.83333,1.58333 h 0.91667 q 1.95833,0 3,-1.04166 1.08333,-1.04167 1.08333,-2.45834 0,-2.04166 -1.5,-5.99999 z m -40.12498,9.49999 h 7.99999 q -2.62499,-2.04166 -2.62499,-5.125 0,-0.875 0.0833,-1.375 -1.125,2.08334 -2.29167,3.54167 -1.125,1.45833 -3.16666,2.95833 z"
         id="path28"
         style="fill:#693500;fill-opacity:1;stroke:#ffffff;stroke-width:6.5;stroke-dasharray:none;stroke-opacity:1;paint-order:markers stroke fill" />
      <path
         d="m 294.27643,419.36145 v 17.66666 q 0,2.5 0.70833,3.87499 0.75,1.33334 2,1.91667 1.25,0.54167 3.54166,0.70833 2.29167,0.16667 4.25,0.25 v 2.29167 h -30.29165 v -2.29167 q 3.375,-0.0833 5.04166,-0.375 1.70834,-0.29166 2.66667,-1.125 1,-0.83333 1.33333,-2.125 0.375,-1.33333 0.375,-3.62499 v -36.70832 q 0,-4.58333 -0.41666,-6.5 -0.375,-1.91666 -2.375,-2.83333 -1.95834,-0.91667 -6.625,-0.91667 v -2.29166 h 28.66665 q 1.91667,0 9.16667,0.66666 2.33333,0.20834 4.95833,1.375 2.66666,1.16667 4.95833,3.20833 2.33333,2 3.75,4.79167 1.41666,2.75 1.41666,6 0,3.625 -1.45833,6.54166 -1.41667,2.91667 -4.41666,5.04167 -2.95834,2.12499 -7.5,3.29166 -4.5,1.16667 -10.5,1.16667 z m -9.04167,-20.04166 v 39.16665 q 0,3.95833 -3.04166,5.29166 h 1.08333 q 4.625,0 4.625,-4.37499 v -38.12499 q 0,-5.125 -0.0833,-6.70833 -0.0417,-1.58333 -0.54167,-2.70833 -0.45833,-1.125 -1.70833,-1.625 -1.20834,-0.54167 -3.75,-0.75 1.66667,0.79167 2.33333,1.79167 0.66667,0.99999 0.875,2.83333 0.20833,1.83333 0.20833,5.20833 z m 9.04167,17.74999 h 5.83333 q 5.29166,0 8.79166,-1.25 3.5,-1.29166 5.375,-4.29166 1.875,-3.04167 1.875,-8.125 0,-7.625 -5.125,-11.41666 -2.04167,-1.5 -4.125,-1.95833 -2.08333,-0.45834 -5.16666,-0.45834 -3.54167,0 -5.125,1 -1.54167,1 -1.95833,3 -0.375,2 -0.375,5.91667 z m 15.95832,-0.45833 q 5,-0.75 7.45833,-3.95833 2.45834,-3.20834 2.45834,-9.08333 0,-6.20833 -2.5,-9.29167 -2.5,-3.12499 -7.5,-4.16666 2.375,1.20833 4.04167,3.16666 1.66666,1.95834 2.49999,4.58334 0.83334,2.62499 0.83334,5.70833 0,9.91666 -7.29167,13.04166 z"
         id="path29"
         style="fill:#693500;fill-opacity:1;stroke:#ffffff;stroke-width:6.5;stroke-dasharray:none;stroke-opacity:1;paint-order:markers stroke fill" />
      <path
         d="m 334.31808,387.27813 h 27.74999 v 2.29166 q -3.91667,0.0833 -6.08333,1.04167 -2.125,0.91667 -2.29167,3.75 -0.0833,1.75 -0.16667,2.79166 -0.0833,1 -0.0833,0.875 v 38.41665 q 0,2.45834 0.5,3.91667 0.54167,1.45833 1.5,2.08333 0.95833,0.625 2.20833,0.875 1.25,0.20833 4.41667,0.45833 v 2.29167 h -27.74999 v -2.29167 q 3.70833,-0.0417 5.58333,-0.75 1.91666,-0.75 2.45833,-2.33333 0.58333,-1.625 0.58333,-5.125 v -37.20831 q 0,-3.33334 -0.33333,-4.91667 -0.29167,-1.625 -1.16667,-2.33333 -0.875,-0.70833 -2.37499,-0.95833 -1.45834,-0.29167 -4.75,-0.58334 z m 9.99999,9.87499 v 41.49999 q 0,2.12499 -0.75,3.12499 -0.75,1 -2.58333,2 2.70833,-0.0833 4.375,-0.875 1.66667,-0.83333 1.66667,-3.58333 v -44.20831 q 0,-2.83334 -1.16667,-4.25 -1.16667,-1.41667 -4.625,-1.29167 3.16667,1.66667 3.16667,6.33333 0,0.33334 -0.0417,0.625 0,0.29167 -0.0417,0.625 z"
         id="path30"
         style="fill:#693500;fill-opacity:1;stroke:#ffffff;stroke-width:6.5;stroke-dasharray:none;stroke-opacity:1;paint-order:markers stroke fill" />
      <path
         d="m 406.73472,387.27813 h 23.04165 v 2.29166 q -4.24999,0.29167 -8.20833,3.29167 -3.91666,3 -9.37499,9.49999 l -9.04166,10.875 14.87499,19.41666 q 3.75,4.95833 5.16666,6.66666 1.45834,1.66667 3.75,3.04167 2.33333,1.375 5.41667,1.41666 v 2.29167 h -30.04166 v -2.29167 h 1 q 3.04167,0 4.5,-1 1.5,-1 1.5,-2.33333 0,-1.58333 -1.29167,-3.58333 -1.25,-2.04167 -3.5,-4.95833 l -8.04166,-10.58333 -8,9.45833 q -2.29166,2.70833 -3.33333,4.58333 -1,1.875 -1,3.625 0,2.33333 1.70834,3.45833 1.70833,1.125 4.91666,1.33333 v 2.29167 h -23.29166 v -2.29167 h 0.5 q 1.91667,0 4.625,-1.33333 2.70833,-1.375 6.16667,-4.375 3.45833,-3 6.95833,-7.29166 l 9.41666,-11.33333 -15.29166,-20.04166 q -3.29167,-4.375 -5,-6.29166 -1.70833,-1.91667 -3.41666,-2.70833 -1.70834,-0.79167 -4.375,-0.83334 v -2.29166 h 28.58332 v 2.29166 h -3 q -1.70833,0 -2.91667,0.75 -1.16666,0.70834 -1.16666,2 0,1.04167 0.54166,2.04167 0.54167,0.95833 1.91667,2.79166 l 10.66666,14.16666 7.70833,-9.29166 q 4,-4.79166 4,-7.83333 0,-1.83333 -1.70833,-3.16666 -1.70833,-1.33334 -4.95833,-1.45834 z m 14.41666,2.29166 h -8.95833 q 2.58333,1.54167 2.58333,4.375 0,0.75 -0.0833,1.25 2.41666,-3.625 6.45833,-5.625 z m -12.95833,40.45832 -26.70832,-35.16665 q -1.91667,-2.45834 -2.91667,-3.375 -0.95833,-0.95833 -2.41666,-1.45833 -1.41667,-0.5 -3.79167,-0.54167 1.54167,0.58333 3.20833,2.29167 1.70834,1.66666 4.20833,4.95833 l 27.99999,37.29165 q 2.875,3.91666 2.875,6.33333 0,1.70833 -2.20833,3.41666 2.5,0.0417 3.79166,-0.95833 1.33334,-1 1.33334,-2.70833 0,-1.79167 -1.29167,-4.08333 -1.25,-2.33334 -4.08333,-6 z m -35.08332,13.74999 h 10.16666 q -2.375,-1.375 -2.375,-3.83333 0,-1.29166 0.66667,-2.83333 -1.625,1.70833 -2.375,2.45833 -0.75,0.75 -2.375,1.91667 -1.58333,1.125 -3.70833,2.29166 z"
         id="path31"
         style="fill:#693500;fill-opacity:1;stroke:#ffffff;stroke-width:6.5;stroke-dasharray:none;stroke-opacity:1;paint-order:markers stroke fill" />
      <path
         d="m 455.44303,416.98645 v 18.33332 q 0,3.04167 0.41667,4.75 0.45833,1.66667 1.625,2.5 1.16667,0.79167 3.33333,1 2.20833,0.20833 6,0.20833 4.58333,0 8.20833,-1.375 3.66666,-1.41666 6.875,-4.12499 3.24999,-2.75 7.08333,-7.29167 h 3.33333 l -5.20833,15.08333 h -51.29165 v -2.29167 q 3.70833,-0.0833 5.625,-0.625 1.95833,-0.58333 2.75,-1.875 0.83333,-1.33333 0.83333,-3.74999 v -41.20832 q 0,-2.91667 -0.75,-4.25 -0.75,-1.33333 -2.54166,-1.79166 -1.79167,-0.5 -5.91667,-0.70834 v -2.29166 h 49.24998 l 5.04167,13.29166 h -3 q -2.41667,-3.04167 -5.91667,-5.5 -3.45833,-2.5 -7.79166,-4 -4.29167,-1.5 -9.08333,-1.5 -3.79167,0 -5.70833,0.83334 -1.91667,0.79166 -2.54167,2.24999 -0.625,1.45834 -0.625,3.83334 v 18.16666 h 8.375 q 10.95833,0 11.08333,-10.04167 h 2.91666 v 22.08333 h -2.58333 q -0.5,-5.08333 -2.875,-7.375 -2.33333,-2.33333 -7.16666,-2.33333 z m 27.49999,26.79165 2.875,-7.24999 q -2.45833,2.66666 -4.45833,3.99999 -2,1.29167 -5.66667,3.25 z m -8.54166,-24.08332 v -8.16666 q -1.625,2.79166 -5.91667,4.08333 2.29167,0.625 3.625,1.5 1.33334,0.875 2.29167,2.58333 z m 6.75,-30.12499 h -7.54167 q 3.125,1.04167 5.54167,2.5 2.41666,1.45833 5.12499,3.5 z m -34.74999,7.08333 v 40.29165 q 0,3.04167 -0.70833,4.45833 -0.70834,1.41667 -2.125,2.375 3.45833,-0.0417 4.45833,-1.79166 1.04167,-1.79167 1.04167,-5.75 v -40.33332 q 0,-3.54166 -1.20834,-4.66666 -1.20833,-1.16667 -4.29166,-1.25 1.54166,0.83333 2.16666,2.25 0.66667,1.375 0.66667,4.41666 z"
         id="path32"
         style="fill:#693500;fill-opacity:1;stroke:#ffffff;stroke-width:6.5;stroke-dasharray:none;stroke-opacity:1;paint-order:markers stroke fill" />
      <path
         d="m 495.98469,389.56979 v -2.29166 h 28.95832 v 2.29166 h -1.29167 q -3.25,0 -5,0.58334 -1.70833,0.58333 -2.41666,2.16666 -0.70833,1.54167 -0.70833,4.41667 v 40.79165 q 0,2.37499 0.79166,3.70833 0.83334,1.29166 2.95833,1.91666 2.125,0.625 6,0.625 3.29167,0 6.04167,-0.54166 2.74999,-0.54167 5.45833,-1.91667 2.70833,-1.375 5.58333,-3.91666 2.875,-2.54167 5.79166,-6.33333 h 3.83333 l -5.54166,14.99999 h -50.45831 v -2.29167 h 0.54166 q 3.75,0 5.54167,-0.66666 1.79166,-0.70834 2.41666,-2.16667 0.66667,-1.5 0.66667,-4.16666 v -39.41665 q 0,-3.125 -0.58333,-4.70834 -0.54167,-1.58333 -2.54167,-2.33333 -1.95833,-0.75 -6.04166,-0.75 z m 10.49999,6.41667 v 42.66665 q 0,2.04166 -0.75,3.16666 -0.70833,1.125 -2.20833,1.95833 0.16667,0 0.70833,0.0833 0.54167,0.0833 0.70834,0.0833 4.20833,0 4.20833,-6.08333 v -39.99998 q 0,-4.20834 -0.66667,-6.25 -0.625,-2.04167 -3.70833,-2.04167 h -1.25 q 1.70833,1 2.33333,2.16667 0.625,1.16666 0.625,4.25 z m 28.24999,47.79164 h 7.625 l 3.58333,-8.20833 q -2.375,2.83334 -5.08333,4.83333 -2.66667,1.95834 -6.125,3.375 z"
         id="path33"
         style="fill:#693500;fill-opacity:1;stroke:#ffffff;stroke-width:6.5;stroke-dasharray:none;stroke-opacity:1;paint-order:markers stroke fill" />
      <path
         d="m 558.48467,424.90311 h 2.74999 q 2.29167,6.58333 5.5,11.08333 3.25,4.45833 7.04167,6.625 3.83333,2.16666 7.99999,2.16666 5.20833,0 8.91667,-3.25 3.70833,-3.24999 3.70833,-8.33333 0,-4.74999 -2.45833,-7.37499 -2.45834,-2.66667 -5.875,-3.70833 -3.41667,-1.08334 -9,-2 -5.58333,-0.91667 -7.91666,-1.70834 -3.625,-1.25 -6.16667,-3.41666 -2.54166,-2.20833 -3.87499,-5.25 -1.29167,-3.08333 -1.29167,-6.58333 0,-3.33333 1.16667,-6.41666 1.16666,-3.08334 3.29166,-5.45833 2.125,-2.375 5.16667,-3.75 3.08333,-1.375 6.83333,-1.375 2.70833,0 6.62499,0.79166 3.95833,0.75 5.75,0.75 2.25,0 4.25,-1 h 3.16666 l 1.79167,17.125 h -2.91667 q -4.08333,-7.66667 -8.58332,-11.66667 -4.45834,-4.04166 -10.5,-4.04166 -3,0 -5.58333,1.41667 -2.58333,1.375 -4.16667,3.83333 -1.54166,2.45833 -1.54166,5.41666 0,4.16667 2.83333,6.375 2.83333,2.20833 8.375,3.33333 5.58333,1.125 9.95833,1.91667 4.41666,0.79166 6.99999,2.04166 4.75,2.33334 7.375,6.45833 2.625,4.125 2.625,9.33333 0,5 -2.41667,9.33333 -2.41666,4.33333 -6.79166,6.95833 -4.375,2.58334 -9.75,2.58334 -3.04166,0 -4.58333,-0.45834 -1.54166,-0.45833 -5.29166,-1.79166 -3.75,-1.33334 -5.75,-1.33334 -3.33333,0 -5.29167,2.54167 h -2.37499 z m 32.79165,-26.95832 -1.375,-7.95833 q -1.375,0.45833 -2.75,0.45833 -1.5,0 -3.25,-0.45833 1.66667,1.08333 2.91667,2.41666 1.25,1.33334 2.625,3.20834 1.375,1.875 1.83333,2.33333 z m -31.41665,34.70832 v 11.12499 q 1.20833,-1.58333 2.20833,-2.04166 1.04166,-0.45834 3.16666,-0.375 -1.375,-1.625 -2,-2.375 -0.58333,-0.79167 -1.5,-2.29167 -0.875,-1.54166 -1.87499,-4.04166 z m 0,-34.37499 q -0.70834,3.16667 -0.70834,5.125 0,2.20833 0.75,4.45833 0.75,2.20833 2.20833,4.20833 1.45834,1.95834 3.29167,3.20834 2.45833,1.66666 5.41666,2.37499 2.95834,0.66667 8.625,1.625 5.70833,0.91667 7.875,1.79167 4,1.45833 6.20833,4.45833 2.25,3 2.25,7.04166 0,3 -1.70834,6.33334 3.41667,-3.54167 3.41667,-8.29167 0,-4.91666 -2.54167,-7.70833 -2.49999,-2.83333 -6.24999,-4.16666 -3.70834,-1.375 -10.16667,-2.5 -6.45833,-1.16667 -6.62499,-1.20833 -5.91667,-1.54167 -9,-5.33334 -3.04166,-3.79166 -3.04166,-8.74999 0,-0.91667 -0.0417,-1.54167 0,-0.625 0.0417,-1.125 z"
         id="path34"
         style="fill:#693500;fill-opacity:1;stroke:#ffffff;stroke-width:6.5;stroke-dasharray:none;stroke-opacity:1;paint-order:markers stroke fill" />
    </g>
  </g>
</svg>
