<?xml version="1.0" encoding="UTF-8" standalone="no"?>
<!-- Created with Inkscape (http://www.inkscape.org/) -->

<svg
   width="1010"
   height="620"
   viewBox="0 0 1010 620.00002"
   version="1.1"
   id="svg5"
   inkscape:version="1.2.2 (732a01da63, 2022-12-09)"
   xml:space="preserve"
   sodipodi:docname="portfolio-website-top-image-small.svg"
   xmlns:inkscape="http://www.inkscape.org/namespaces/inkscape"
   xmlns:sodipodi="http://sodipodi.sourceforge.net/DTD/sodipodi-0.dtd"
   xmlns:xlink="http://www.w3.org/1999/xlink"
   xmlns="http://www.w3.org/2000/svg"
   xmlns:svg="http://www.w3.org/2000/svg"><sodipodi:namedview
     id="namedview7"
     pagecolor="#505050"
     bordercolor="#ffffff"
     borderopacity="1"
     inkscape:showpageshadow="0"
     inkscape:pageopacity="0"
     inkscape:pagecheckerboard="1"
     inkscape:deskcolor="#505050"
     inkscape:document-units="px"
     showgrid="false"
     inkscape:lockguides="false"
     showguides="true"
     inkscape:zoom="0.76284305"
     inkscape:cx="225.47233"
     inkscape:cy="322.47787"
     inkscape:window-width="1920"
     inkscape:window-height="1057"
     inkscape:window-x="-8"
     inkscape:window-y="-8"
     inkscape:window-maximized="1"
     inkscape:current-layer="layer1" /><defs
     id="defs2"><inkscape:path-effect
       effect="powerstroke"
       id="path-effect55762"
       is_visible="true"
       lpeversion="1"
       offset_points="0.005829058,1.9490605"
       not_jump="false"
       sort_points="true"
       interpolator_type="CubicBezierJohan"
       interpolator_beta="0.2"
       start_linecap_type="zerowidth"
       linejoin_type="extrp_arc"
       miter_limit="4"
       scale_width="1"
       end_linecap_type="zerowidth" /><inkscape:path-effect
       effect="powerstroke"
       id="path-effect55756"
       is_visible="true"
       lpeversion="1"
       offset_points="0.005829058,1.9490605"
       not_jump="false"
       sort_points="true"
       interpolator_type="CubicBezierJohan"
       interpolator_beta="0.2"
       start_linecap_type="zerowidth"
       linejoin_type="extrp_arc"
       miter_limit="4"
       scale_width="1"
       end_linecap_type="zerowidth" /><inkscape:path-effect
       effect="powerstroke"
       id="path-effect55750"
       is_visible="true"
       lpeversion="1"
       offset_points="0.005829058,1.9490605"
       not_jump="false"
       sort_points="true"
       interpolator_type="CubicBezierJohan"
       interpolator_beta="0.2"
       start_linecap_type="zerowidth"
       linejoin_type="extrp_arc"
       miter_limit="4"
       scale_width="1"
       end_linecap_type="zerowidth" /><inkscape:path-effect
       effect="powerstroke"
       id="path-effect55744"
       is_visible="true"
       lpeversion="1"
       offset_points="0.005829058,1.9490605"
       not_jump="false"
       sort_points="true"
       interpolator_type="CubicBezierJohan"
       interpolator_beta="0.2"
       start_linecap_type="zerowidth"
       linejoin_type="extrp_arc"
       miter_limit="4"
       scale_width="1"
       end_linecap_type="zerowidth" /><inkscape:path-effect
       effect="powerstroke"
       id="path-effect55692"
       is_visible="true"
       lpeversion="1"
       offset_points="0.005829058,2.7242036"
       not_jump="false"
       sort_points="true"
       interpolator_type="CubicBezierJohan"
       interpolator_beta="0.2"
       start_linecap_type="zerowidth"
       linejoin_type="extrp_arc"
       miter_limit="4"
       scale_width="1"
       end_linecap_type="zerowidth" /><inkscape:path-effect
       effect="powerstroke"
       id="path-effect55686"
       is_visible="true"
       lpeversion="1"
       offset_points="0.005829058,1.6283116"
       not_jump="false"
       sort_points="true"
       interpolator_type="CubicBezierJohan"
       interpolator_beta="0.2"
       start_linecap_type="zerowidth"
       linejoin_type="extrp_arc"
       miter_limit="4"
       scale_width="1"
       end_linecap_type="zerowidth" /><inkscape:path-effect
       effect="powerstroke"
       id="path-effect55680"
       is_visible="true"
       lpeversion="1"
       offset_points="0.005829058,1.9490605"
       not_jump="false"
       sort_points="true"
       interpolator_type="CubicBezierJohan"
       interpolator_beta="0.2"
       start_linecap_type="zerowidth"
       linejoin_type="extrp_arc"
       miter_limit="4"
       scale_width="1"
       end_linecap_type="zerowidth" /><inkscape:path-effect
       effect="powerstroke"
       id="path-effect55674"
       is_visible="true"
       lpeversion="1"
       offset_points="0.005829058,2.7242036"
       not_jump="false"
       sort_points="true"
       interpolator_type="CubicBezierJohan"
       interpolator_beta="0.2"
       start_linecap_type="zerowidth"
       linejoin_type="extrp_arc"
       miter_limit="4"
       scale_width="1"
       end_linecap_type="zerowidth" /><linearGradient
       inkscape:collect="always"
       id="linearGradient55653"><stop
         style="stop-color:#ffffff;stop-opacity:1;"
         offset="0"
         id="stop55649" /><stop
         style="stop-color:#ffffff;stop-opacity:0.21022727;"
         offset="0.43292683"
         id="stop55657" /><stop
         style="stop-color:#ffffff;stop-opacity:0;"
         offset="1"
         id="stop55651" /></linearGradient><inkscape:path-effect
       effect="powerstroke"
       id="path-effect55647"
       is_visible="true"
       lpeversion="1"
       offset_points="0.005829058,2.7242036"
       not_jump="false"
       sort_points="true"
       interpolator_type="CubicBezierJohan"
       interpolator_beta="0.2"
       start_linecap_type="zerowidth"
       linejoin_type="extrp_arc"
       miter_limit="4"
       scale_width="1"
       end_linecap_type="zerowidth" /><linearGradient
       inkscape:collect="always"
       id="linearGradient19848"><stop
         style="stop-color:#2a3b48;stop-opacity:1;"
         offset="0.05517242"
         id="stop19844" /><stop
         style="stop-color:#0f1f2d;stop-opacity:1;"
         offset="0.71149427"
         id="stop24862" /><stop
         style="stop-color:#0d1822;stop-opacity:1;"
         offset="1"
         id="stop19846" /></linearGradient><filter
       style="color-interpolation-filters:sRGB"
       inkscape:label="Color Shift"
       id="filter19291"
       x="0"
       y="0"
       width="1"
       height="1"><feColorMatrix
         type="hueRotate"
         values="360"
         result="color1"
         id="feColorMatrix19287" /><feColorMatrix
         type="saturate"
         values="0.323988"
         result="fbSourceGraphic"
         id="feColorMatrix19289" /><feColorMatrix
         result="fbSourceGraphicAlpha"
         in="fbSourceGraphic"
         values="0 0 0 -1 0 0 0 0 -1 0 0 0 0 -1 0 0 0 0 1 0"
         id="feColorMatrix25710" /><feColorMatrix
         id="feColorMatrix25712"
         type="hueRotate"
         values="360"
         result="color1"
         in="fbSourceGraphic" /><feColorMatrix
         id="feColorMatrix25714"
         type="saturate"
         values="1"
         result="fbSourceGraphic" /><feColorMatrix
         result="fbSourceGraphicAlpha"
         in="fbSourceGraphic"
         values="0 0 0 -1 0 0 0 0 -1 0 0 0 0 -1 0 0 0 0 1 0"
         id="feColorMatrix26556" /><feColorMatrix
         id="feColorMatrix26558"
         type="hueRotate"
         values="360"
         result="color1"
         in="fbSourceGraphic" /><feColorMatrix
         id="feColorMatrix26560"
         type="saturate"
         values="1"
         result="color2" /></filter><filter
       style="color-interpolation-filters:sRGB"
       inkscape:label="Color Shift"
       id="filter19297"
       x="0"
       y="0"
       width="1"
       height="1"><feColorMatrix
         type="hueRotate"
         values="360"
         result="color1"
         id="feColorMatrix19293" /><feColorMatrix
         type="saturate"
         values="0.323988"
         result="fbSourceGraphic"
         id="feColorMatrix19295" /><feColorMatrix
         result="fbSourceGraphicAlpha"
         in="fbSourceGraphic"
         values="0 0 0 -1 0 0 0 0 -1 0 0 0 0 -1 0 0 0 0 1 0"
         id="feColorMatrix25722" /><feColorMatrix
         id="feColorMatrix25724"
         type="hueRotate"
         values="360"
         result="color1"
         in="fbSourceGraphic" /><feColorMatrix
         id="feColorMatrix25726"
         type="saturate"
         values="1"
         result="fbSourceGraphic" /><feColorMatrix
         result="fbSourceGraphicAlpha"
         in="fbSourceGraphic"
         values="0 0 0 -1 0 0 0 0 -1 0 0 0 0 -1 0 0 0 0 1 0"
         id="feColorMatrix26568" /><feColorMatrix
         id="feColorMatrix26570"
         type="hueRotate"
         values="360"
         result="color1"
         in="fbSourceGraphic" /><feColorMatrix
         id="feColorMatrix26572"
         type="saturate"
         values="1"
         result="color2" /></filter><filter
       style="color-interpolation-filters:sRGB"
       inkscape:label="Color Shift"
       id="filter19303"
       x="0"
       y="0"
       width="1"
       height="1"><feColorMatrix
         type="hueRotate"
         values="360"
         result="color1"
         id="feColorMatrix19299" /><feColorMatrix
         type="saturate"
         values="0.323988"
         result="fbSourceGraphic"
         id="feColorMatrix19301" /><feColorMatrix
         result="fbSourceGraphicAlpha"
         in="fbSourceGraphic"
         values="0 0 0 -1 0 0 0 0 -1 0 0 0 0 -1 0 0 0 0 1 0"
         id="feColorMatrix25716" /><feColorMatrix
         id="feColorMatrix25718"
         type="hueRotate"
         values="360"
         result="color1"
         in="fbSourceGraphic" /><feColorMatrix
         id="feColorMatrix25720"
         type="saturate"
         values="1"
         result="fbSourceGraphic" /><feColorMatrix
         result="fbSourceGraphicAlpha"
         in="fbSourceGraphic"
         values="0 0 0 -1 0 0 0 0 -1 0 0 0 0 -1 0 0 0 0 1 0"
         id="feColorMatrix26562" /><feColorMatrix
         id="feColorMatrix26564"
         type="hueRotate"
         values="360"
         result="color1"
         in="fbSourceGraphic" /><feColorMatrix
         id="feColorMatrix26566"
         type="saturate"
         values="1"
         result="color2" /></filter><filter
       style="color-interpolation-filters:sRGB"
       inkscape:label="Color Shift"
       id="filter19309"
       x="0"
       y="0"
       width="1"
       height="1"><feColorMatrix
         type="hueRotate"
         values="360"
         result="color1"
         id="feColorMatrix19305" /><feColorMatrix
         type="saturate"
         values="0.323988"
         result="fbSourceGraphic"
         id="feColorMatrix19307" /><feColorMatrix
         result="fbSourceGraphicAlpha"
         in="fbSourceGraphic"
         values="0 0 0 -1 0 0 0 0 -1 0 0 0 0 -1 0 0 0 0 1 0"
         id="feColorMatrix25728" /><feColorMatrix
         id="feColorMatrix25730"
         type="hueRotate"
         values="360"
         result="color1"
         in="fbSourceGraphic" /><feColorMatrix
         id="feColorMatrix25732"
         type="saturate"
         values="1"
         result="fbSourceGraphic" /><feColorMatrix
         result="fbSourceGraphicAlpha"
         in="fbSourceGraphic"
         values="0 0 0 -1 0 0 0 0 -1 0 0 0 0 -1 0 0 0 0 1 0"
         id="feColorMatrix26574" /><feColorMatrix
         id="feColorMatrix26576"
         type="hueRotate"
         values="360"
         result="color1"
         in="fbSourceGraphic" /><feColorMatrix
         id="feColorMatrix26578"
         type="saturate"
         values="1"
         result="color2" /></filter><filter
       style="color-interpolation-filters:sRGB"
       inkscape:label="Color Shift"
       id="filter19315"
       x="-0.001532064"
       y="-0.0045466552"
       width="1.0030641"
       height="1.0090929"><feColorMatrix
         type="hueRotate"
         values="360"
         result="color1"
         id="feColorMatrix19311" /><feColorMatrix
         type="saturate"
         values="0.323988"
         result="color2"
         id="feColorMatrix19313" /></filter><filter
       style="color-interpolation-filters:sRGB"
       inkscape:label="Color Shift"
       id="filter19321"
       x="-0.0018254786"
       y="-0.011588905"
       width="1.003651"
       height="1.0231568"><feColorMatrix
         type="hueRotate"
         values="360"
         result="color1"
         id="feColorMatrix19317" /><feColorMatrix
         type="saturate"
         values="0.323988"
         result="color2"
         id="feColorMatrix19319" /></filter><filter
       style="color-interpolation-filters:sRGB"
       inkscape:label="Color Shift"
       id="filter19327"
       x="-0.0022332598"
       y="-0.007272518"
       width="1.0044665"
       height="1.0145359"><feColorMatrix
         type="hueRotate"
         values="360"
         result="color1"
         id="feColorMatrix19323" /><feColorMatrix
         type="saturate"
         values="0.323988"
         result="color2"
         id="feColorMatrix19325" /></filter><filter
       style="color-interpolation-filters:sRGB"
       inkscape:label="Color Shift"
       id="filter19333"
       x="-0.0019842755"
       y="-0.0082784556"
       width="1.0039686"
       height="1.0165555"><feColorMatrix
         type="hueRotate"
         values="360"
         result="color1"
         id="feColorMatrix19329" /><feColorMatrix
         type="saturate"
         values="0.323988"
         result="color2"
         id="feColorMatrix19331" /></filter><filter
       style="color-interpolation-filters:sRGB"
       inkscape:label="Drop Shadow"
       id="filter16580"
       x="-0.00033857062"
       y="-0.0041939714"
       width="1.0081623"
       height="1.1677588"><feFlood
         flood-opacity="1"
         flood-color="rgb(0,0,0)"
         result="flood"
         id="feFlood16570" /><feComposite
         in="flood"
         in2="SourceGraphic"
         operator="in"
         result="composite1"
         id="feComposite16572" /><feGaussianBlur
         in="composite1"
         stdDeviation="0"
         result="blur"
         id="feGaussianBlur16574" /><feOffset
         dx="6.6324"
         dy="11.4"
         result="offset"
         id="feOffset16576" /><feComposite
         in="SourceGraphic"
         in2="offset"
         operator="over"
         result="composite2"
         id="feComposite16578" /></filter><filter
       style="color-interpolation-filters:sRGB"
       inkscape:label="Drop Shadow"
       id="filter23735"
       x="-0.0025283201"
       y="-0.0024424164"
       width="1.0303584"
       height="1.0471341"><feFlood
         flood-opacity="1"
         flood-color="rgb(0,0,0)"
         result="flood"
         id="feFlood23725" /><feComposite
         in="flood"
         in2="SourceGraphic"
         operator="in"
         result="composite1"
         id="feComposite23727" /><feGaussianBlur
         in="composite1"
         stdDeviation="0"
         result="blur"
         id="feGaussianBlur23729" /><feOffset
         dx="6.6324"
         dy="11.4"
         result="offset"
         id="feOffset23731" /><feComposite
         in="SourceGraphic"
         in2="offset"
         operator="over"
         result="composite2"
         id="feComposite23733" /></filter><filter
       style="color-interpolation-filters:sRGB"
       inkscape:label="Drop Shadow"
       id="filter1163"
       x="-0.00034002989"
       y="-0.004164414"
       width="1.007934"
       height="1.0971697"><feFlood
         flood-opacity="1"
         flood-color="rgb(0,0,0)"
         result="flood"
         id="feFlood1153" /><feComposite
         in="flood"
         in2="SourceGraphic"
         operator="in"
         result="composite1"
         id="feComposite1155" /><feGaussianBlur
         in="composite1"
         stdDeviation="0"
         result="blur"
         id="feGaussianBlur1157" /><feOffset
         dx="6.4"
         dy="6.4"
         result="offset"
         id="feOffset1159" /><feComposite
         in="SourceGraphic"
         in2="offset"
         operator="over"
         result="composite2"
         id="feComposite1161" /></filter><filter
       style="color-interpolation-filters:sRGB"
       inkscape:label="Drop Shadow"
       id="filter23735-5"
       x="-0.0025283201"
       y="-0.0024424165"
       width="1.0303584"
       height="1.047134"><feFlood
         flood-opacity="1"
         flood-color="rgb(0,0,0)"
         result="flood"
         id="feFlood23725-5" /><feComposite
         in="flood"
         in2="SourceGraphic"
         operator="in"
         result="composite1"
         id="feComposite23727-3" /><feGaussianBlur
         in="composite1"
         stdDeviation="0"
         result="blur"
         id="feGaussianBlur23729-5" /><feOffset
         dx="6.6324"
         dy="11.4"
         result="offset"
         id="feOffset23731-3" /><feComposite
         in="SourceGraphic"
         in2="offset"
         operator="over"
         result="composite2"
         id="feComposite23733-2" /></filter><filter
       style="color-interpolation-filters:sRGB"
       inkscape:label="Drop Shadow"
       id="filter3571"
       x="-0.00047369998"
       y="-0.0011931399"
       width="1.0087634"
       height="1.0220731"><feFlood
         flood-opacity="1"
         flood-color="rgb(0,0,0)"
         result="flood"
         id="feFlood3561" /><feComposite
         in="flood"
         in2="SourceGraphic"
         operator="in"
         result="composite1"
         id="feComposite3563" /><feGaussianBlur
         in="composite1"
         stdDeviation="0"
         result="blur"
         id="feGaussianBlur3565" /><feOffset
         dx="3.3"
         dy="3.3"
         result="offset"
         id="feOffset3567" /><feComposite
         in="SourceGraphic"
         in2="offset"
         operator="over"
         result="composite2"
         id="feComposite3569" /></filter><filter
       style="color-interpolation-filters:sRGB"
       inkscape:label="Drop Shadow"
       id="filter1040"
       x="-0.0023195082"
       y="-0.022797512"
       width="1.0084896"
       height="1.0834408"><feFlood
         flood-opacity="1"
         flood-color="rgb(0,0,0)"
         result="flood"
         id="feFlood1030" /><feComposite
         in="flood"
         in2="SourceGraphic"
         operator="in"
         result="composite1"
         id="feComposite1032" /><feGaussianBlur
         in="composite1"
         stdDeviation="0"
         result="blur"
         id="feGaussianBlur1034" /><feOffset
         dx="3.3"
         dy="3.3"
         result="offset"
         id="feOffset1036" /><feComposite
         in="SourceGraphic"
         in2="offset"
         operator="over"
         result="composite2"
         id="feComposite1038" /></filter><radialGradient
       inkscape:collect="always"
       xlink:href="#linearGradient19848"
       id="radialGradient53447"
       cx="728.03693"
       cy="419.38565"
       fx="728.03693"
       fy="419.38565"
       r="505.25885"
       gradientTransform="matrix(0.5355874,0,0,0.50121981,213.58961,106.40523)"
       gradientUnits="userSpaceOnUse" /><linearGradient
       inkscape:collect="always"
       xlink:href="#linearGradient55653"
       id="linearGradient55655"
       x1="128.84413"
       y1="362.36969"
       x2="40.785194"
       y2="275.46942"
       gradientUnits="userSpaceOnUse"
       gradientTransform="translate(-16.68485,-68.593274)" /><linearGradient
       inkscape:collect="always"
       xlink:href="#linearGradient55653"
       id="linearGradient55694"
       gradientUnits="userSpaceOnUse"
       x1="128.84413"
       y1="362.36969"
       x2="40.785194"
       y2="275.46942"
       gradientTransform="translate(699.83678,-221.53774)" /><linearGradient
       inkscape:collect="always"
       xlink:href="#linearGradient55653"
       id="linearGradient55702"
       gradientUnits="userSpaceOnUse"
       x1="128.84413"
       y1="362.36969"
       x2="40.785194"
       y2="275.46942"
       gradientTransform="matrix(0.59772023,0,0,0.59772023,106.31986,-153.62089)" /><linearGradient
       inkscape:collect="always"
       xlink:href="#linearGradient55653"
       id="linearGradient55704"
       gradientUnits="userSpaceOnUse"
       x1="128.84413"
       y1="362.36969"
       x2="40.785194"
       y2="275.46942"
       gradientTransform="matrix(0.71546064,0,0,0.71546064,894.04818,184.13358)" /><linearGradient
       inkscape:collect="always"
       xlink:href="#linearGradient55653"
       id="linearGradient55706"
       gradientUnits="userSpaceOnUse"
       x1="128.84413"
       y1="362.36969"
       x2="40.785194"
       y2="275.46942"
       gradientTransform="translate(230.80709,113.08621)" /><linearGradient
       inkscape:collect="always"
       xlink:href="#linearGradient55653"
       id="linearGradient55764"
       gradientUnits="userSpaceOnUse"
       gradientTransform="matrix(0.71546064,0,0,0.71546064,654.89866,59.924141)"
       x1="128.84413"
       y1="362.36969"
       x2="40.785194"
       y2="275.46942" /><linearGradient
       inkscape:collect="always"
       xlink:href="#linearGradient55653"
       id="linearGradient55766"
       gradientUnits="userSpaceOnUse"
       gradientTransform="matrix(0.71546064,0,0,0.71546064,653.04479,-120.8284)"
       x1="128.84413"
       y1="362.36969"
       x2="40.785194"
       y2="275.46942" /><linearGradient
       inkscape:collect="always"
       xlink:href="#linearGradient55653"
       id="linearGradient55768"
       gradientUnits="userSpaceOnUse"
       gradientTransform="matrix(0.71546064,0,0,0.71546064,878.29027,-109.70517)"
       x1="128.84413"
       y1="362.36969"
       x2="40.785194"
       y2="275.46942" /><linearGradient
       inkscape:collect="always"
       xlink:href="#linearGradient55653"
       id="linearGradient55770"
       gradientUnits="userSpaceOnUse"
       gradientTransform="matrix(0.71546064,0,0,0.71546064,47.755495,-103.21662)"
       x1="128.84413"
       y1="362.36969"
       x2="40.785194"
       y2="275.46942" /><filter
       inkscape:collect="always"
       style="color-interpolation-filters:sRGB"
       id="filter3074"
       x="-0.013941788"
       y="-0.022720082"
       width="1.0285105"
       height="1.0454402"><feGaussianBlur
         inkscape:collect="always"
         stdDeviation="5.8760951"
         id="feGaussianBlur3076" /></filter></defs><g
     inkscape:label="Layer 1"
     inkscape:groupmode="layer"
     id="layer1"
     transform="translate(-0.92693613)"><rect
       style="display:inline;fill:none;fill-opacity:1;stroke:#000000;stroke-width:2;stroke-linecap:round;stroke-dasharray:none;stroke-opacity:1;paint-order:fill markers stroke"
       id="rect2271"
       width="1010"
       height="620"
       x="0.92693615"
       y="0"
       sodipodi:insensitive="true"
       inkscape:label="outline" /><g
       id="g55813"
       style="display:inline;filter:url(#filter3074)"
       inkscape:label="desert"><path
         style="display:inline;fill:url(#radialGradient53447);fill-opacity:1;stroke:none;stroke-width:2.43038;stroke-linecap:round;stroke-dasharray:none;stroke-opacity:1;paint-order:fill markers stroke"
         d="M -0.02560324,0.91659582 C -0.87387684,85.894285 -0.14684802,171.13705 -0.38916918,256.21669 c 0,72.51519 0,145.03038 0,217.54558 8.57241598,5.41917 20.23438818,5.79359 30.28862718,8.21608 50.99387,10.60982 102.039082,-5.27674 151.810032,-14.90591 41.61191,-9.67311 84.60638,-8.22158 127.03224,-7.14354 29.54344,3.35489 60.18409,7.58549 89.33969,-0.13365 37.74703,-7.46637 76.02813,-1.8377 113.86444,1.96951 44.87505,3.98211 90.06342,0.479 134.54863,-5.78906 60.03585,-16.06605 119.66006,-34.21608 180.11876,-48.33635 15.34022,-4.29298 30.42744,2.13262 44.02612,8.6779 40.89093,16.70721 82.59719,32.88509 126.30453,40.36254 4.8545,0.12171 14.9805,3.3158 12.8272,-5.07968 0,-149.87793 0,-299.75586 0,-449.6337815 -5.7021,-3.9833189 -15.45879,-0.5562804 -22.67421,-1.70005485 -328.59534,0 -657.19066,0 -985.7860044,0 L 0.13213924,0.83983988 Z"
         id="path53368"
         inkscape:label="sky"
         transform="translate(0.92693613)" /><g
         id="g55660"
         inkscape:label="shooting stars"
         style="display:inline"><path
           style="fill:url(#linearGradient55655);fill-opacity:1;fill-rule:nonzero;stroke:none;stroke-width:1.854;stroke-linecap:round;stroke-dasharray:none;stroke-opacity:1;paint-order:fill markers stroke"
           d="m 117.25742,290.36275 c -0.1086,-0.10077 1.41851,-2.40006 1.30991,-2.50083 -18.52281,-17.18659 -75.944175,-66.74937 -94.466987,-83.93596 18.522812,17.18659 72.238322,70.74334 90.761137,87.92993 0.1086,0.10077 2.28734,-1.59391 2.39594,-1.49314 z"
           id="path55645"
           inkscape:path-effect="#path-effect55647"
           inkscape:original-d="M 117.25742,290.36275 24.100343,203.92596"
           sodipodi:nodetypes="cc" /><path
           style="fill:url(#linearGradient55706);fill-opacity:1;fill-rule:nonzero;stroke:none;stroke-width:1.854;stroke-linecap:round;stroke-dasharray:none;stroke-opacity:1;paint-order:fill markers stroke"
           d="m 364.74936,472.04223 c -0.1086,-0.10077 1.41851,-2.40006 1.30991,-2.50083 -18.52282,-17.18659 -75.94418,-66.74937 -94.46699,-83.93596 18.52281,17.18659 72.23832,70.74334 90.76114,87.92993 0.1086,0.10077 2.28734,-1.59391 2.39594,-1.49314 z"
           id="path55670"
           inkscape:path-effect="#path-effect55674"
           inkscape:original-d="M 364.74936,472.04223 271.59228,385.60544"
           sodipodi:nodetypes="cc" /><path
           style="fill:url(#linearGradient55704);fill-opacity:1;fill-rule:nonzero;stroke:none;stroke-width:1.32646;stroke-linecap:round;stroke-dasharray:none;stroke-opacity:1;paint-order:fill markers stroke"
           d="m 989.87861,440.95249 c -0.0777,-0.0721 1.01489,-1.71715 0.93719,-1.78925 -13.25235,-12.29632 -54.33507,-47.75654 -67.58741,-60.05287 13.25234,12.29633 51.68367,50.61408 64.93602,62.9104 0.0777,0.0721 1.6365,-1.14038 1.7142,-1.06828 z"
           id="path55676"
           inkscape:path-effect="#path-effect55680"
           inkscape:original-d="M 989.87861,440.95249 923.22839,379.11037"
           sodipodi:nodetypes="cc" /><path
           style="fill:url(#linearGradient55702);fill-opacity:1;fill-rule:nonzero;stroke:none;stroke-width:1.10817;stroke-linecap:round;stroke-dasharray:none;stroke-opacity:1;paint-order:fill markers stroke"
           d="m 186.37987,60.934389 c -0.0649,-0.06023 0.84787,-1.434566 0.78296,-1.494797 C 176.09137,49.166819 141.76946,19.542142 130.698,9.2693696 141.76946,19.542142 173.87631,51.554097 184.94777,61.82687 c 0.0649,0.06023 1.36719,-0.952713 1.4321,-0.892481 z"
           id="path55682"
           inkscape:path-effect="#path-effect55686"
           inkscape:original-d="M 186.37987,60.934389 130.698,9.2693696"
           sodipodi:nodetypes="cc" /><path
           style="fill:url(#linearGradient55694);fill-opacity:1;fill-rule:nonzero;stroke:none;stroke-width:1.854;stroke-linecap:round;stroke-dasharray:none;stroke-opacity:1;paint-order:fill markers stroke"
           d="m 833.77905,137.41828 c -0.1086,-0.10077 1.41851,-2.40006 1.30991,-2.50083 -18.52282,-17.18659 -75.94418,-66.749367 -94.46699,-83.935955 18.52281,17.186588 72.23832,70.743335 90.76114,87.929925 0.1086,0.10077 2.28734,-1.59391 2.39594,-1.49314 z"
           id="path55688"
           inkscape:path-effect="#path-effect55692"
           inkscape:original-d="M 833.77905,137.41828 740.62197,50.981495"
           sodipodi:nodetypes="cc" /><path
           style="fill:url(#linearGradient55770);fill-opacity:1;fill-rule:nonzero;stroke:none;stroke-width:1.32646;stroke-linecap:round;stroke-dasharray:none;stroke-opacity:1;paint-order:fill markers stroke"
           d="m 143.58592,153.60229 c -0.0777,-0.0721 1.01489,-1.71715 0.93719,-1.78925 C 131.27077,139.51672 90.188046,104.0565 76.935705,91.760172 90.188046,104.0565 128.61938,142.37425 141.87172,154.67057 c 0.0777,0.0721 1.6365,-1.14038 1.7142,-1.06828 z"
           id="path55740"
           inkscape:path-effect="#path-effect55744"
           inkscape:original-d="M 143.58592,153.60229 76.935705,91.760172"
           sodipodi:nodetypes="cc" /><path
           style="fill:url(#linearGradient55768);fill-opacity:1;fill-rule:nonzero;stroke:none;stroke-width:1.32646;stroke-linecap:round;stroke-dasharray:none;stroke-opacity:1;paint-order:fill markers stroke"
           d="m 974.1207,147.11374 c -0.0777,-0.0721 1.01489,-1.71715 0.93719,-1.78925 -13.25235,-12.29632 -54.33507,-47.756543 -67.58741,-60.052871 13.25234,12.296328 51.68367,50.614081 64.93602,62.910401 0.0777,0.0721 1.6365,-1.14038 1.7142,-1.06828 z"
           id="path55746"
           inkscape:path-effect="#path-effect55750"
           inkscape:original-d="M 974.1207,147.11374 907.47048,85.271619"
           sodipodi:nodetypes="cc" /><path
           style="fill:url(#linearGradient55766);fill-opacity:1;fill-rule:nonzero;stroke:none;stroke-width:1.32646;stroke-linecap:round;stroke-dasharray:none;stroke-opacity:1;paint-order:fill markers stroke"
           d="m 748.87522,135.99051 c -0.0777,-0.0721 1.01489,-1.71715 0.93719,-1.78925 -13.25235,-12.29633 -54.33507,-47.756546 -67.58741,-60.052875 13.25234,12.296329 51.68367,50.614075 64.93602,62.910405 0.0777,0.0721 1.6365,-1.14038 1.7142,-1.06828 z"
           id="path55752"
           inkscape:path-effect="#path-effect55756"
           inkscape:original-d="M 748.87522,135.99051 682.225,74.148385"
           sodipodi:nodetypes="cc" /><path
           style="fill:url(#linearGradient55764);fill-opacity:1;fill-rule:nonzero;stroke:none;stroke-width:1.32646;stroke-linecap:round;stroke-dasharray:none;stroke-opacity:1;paint-order:fill markers stroke"
           d="m 750.72909,316.74305 c -0.0777,-0.0721 1.01489,-1.71715 0.93719,-1.78925 -13.25235,-12.29632 -54.33507,-47.75654 -67.58741,-60.05287 13.25234,12.29633 51.68367,50.61408 64.93602,62.9104 0.0777,0.0721 1.6365,-1.14038 1.7142,-1.06828 z"
           id="path55758"
           inkscape:path-effect="#path-effect55762"
           inkscape:original-d="M 750.72909,316.74305 684.07887,254.90093"
           sodipodi:nodetypes="cc" /></g><path
         style="display:inline;fill:#592117;fill-opacity:1;stroke:#592117;stroke-width:2.43038;stroke-linecap:round;stroke-dasharray:none;stroke-opacity:1;paint-order:fill markers stroke"
         d="m 837.5917,405.66906 c -4.08573,2.70962 15.31076,13.02397 10.21847,15.1534 -24.12441,19.01963 -54.59259,27.81712 -79.56205,45.52511 -4.22245,2.29067 -2.61343,7.91398 2.01497,8.11366 24.19656,6.54151 48.92764,0.12832 73.17262,-1.70747 32.58738,-0.35602 66.49136,-3.18193 97.55231,8.87126 22.86014,7.94927 67.71808,33.1357 67.71808,33.1357 0,0 -0.1065,-11.00109 0.9903,-14.50669 -0.2707,-14.4358 0.8951,-29.25113 -0.5756,-43.43599 -26.31227,0.37872 -51.09638,-9.77794 -76.15958,-16.81597 -25.90575,-8.679 -55.47359,-20.54398 -80.31695,-31.89086 -2.27872,-0.86439 -13.44513,-3.12894 -15.05257,-2.44215 z"
         id="path47973"
         transform="translate(0.92693613)"
         sodipodi:nodetypes="cccccccccccc" /><path
         style="display:inline;fill:#592117;fill-opacity:1;stroke:none;stroke-width:0.303798;stroke-linecap:round;stroke-dasharray:none;stroke-opacity:1;paint-order:fill markers stroke"
         d="m 442.57048,453.83847 c -9.56465,-0.0176 -19.11132,0.75776 -28.62633,1.66246 -7.54008,0.72074 -14.95584,2.33665 -22.25069,4.33882 -5.70421,1.51651 -11.59137,2.70798 -17.47469,2.77305 -4.05321,0.17593 -28.82922,0.62527 -28.82922,0.62527 0,0 14.86886,3.64861 16.92119,3.92624 14.03531,2.43196 28.09889,4.71288 42.1857,6.82901 25.02964,3.74439 50.23292,6.34352 75.5127,7.58657 8.8722,0.45547 17.7637,0.21867 26.64131,0.0616 11.01679,-0.44624 21.99424,-1.62659 32.92499,-3.04201 28.06426,-3.77468 55.75525,-9.88666 83.22538,-16.68047 1.33288,-0.48818 3.03428,-0.4268 4.00223,-1.59205 0.79869,-1.25092 16.10859,-4.57935 16.10859,-4.57935 0,0 -54.52766,5.57882 -72.88131,6.16621 -10.53336,0.29153 -21.16079,0.26487 -31.68786,0.0252 -24.09544,-0.83925 -48.1291,-3.09253 -72.00839,-6.51537 -6.84644,-1.00235 -13.7503,-1.68751 -20.67744,-1.58553 -1.02872,-10e-4 -2.05744,-0.002 -3.08616,3.2e-4 z"
         id="path48104"
         transform="translate(0.92693613)"
         sodipodi:nodetypes="sccccccccccccccccss" /><path
         style="fill:#441913;fill-opacity:1;stroke:none;stroke-width:1.71854;stroke-linecap:round;stroke-dasharray:none;stroke-opacity:1;paint-order:fill markers stroke"
         d="m 894.17292,497.72849 c -27.16126,0.34287 -54.35354,2.7972 -80.85438,8.78388 -37.98576,8.09499 -76.99899,4.48928 -115.58004,5.4044 -31.97971,0.68064 -62.80992,11.54387 -94.43501,15.35288 -35.45219,5.41934 -71.1243,8.30204 -107.00342,7.0873 -34.29728,0.10346 -68.02758,-6.73022 -101.30109,-14.58975 -83.50388,-17.14017 -169.08486,-22.89374 -254.21643,-20.85423 -46.150093,0.74964 -92.214774,4.83179 -137.9983086,10.51082 -6.5290384,0.25147 -2.41672522,8.9582 -3.55729165,13.11473 v 96.19135 C 2.6280039,622.5673 9.9252706,619.3956 14.830978,620.42985 H 1008.5065 c 3.8374,-3.40105 0.6657,-10.69832 1.7,-15.60403 V 515.9178 c -3.0491,-3.72202 -9.4698,-3.38569 -13.91488,-5.31177 -33.27534,-8.61948 -67.74624,-12.96567 -102.1187,-12.87754 z"
         id="path48162"
         transform="translate(0.92693613)"
         sodipodi:nodetypes="cccccccccccccccc" /><path
         style="fill:#200702;fill-opacity:1;stroke:none;stroke-width:1.71854;stroke-linecap:round;stroke-dasharray:none;stroke-opacity:1;paint-order:fill markers stroke"
         d="m 894.42638,477.30331 c -27.89671,0.6494 -55.79586,4.16702 -82.52225,12.41079 -32.40314,9.55598 -136.32372,25.4267 -136.32372,25.4267 0,0 38.70836,-1.03004 41.08364,-1.28783 34.81838,0.85898 71.13068,-0.2978 105.20002,-8.26618 31.86226,-7.22523 64.67675,-7.12314 97.15959,-6.30852 27.13085,1.05031 90.83864,15.8542 90.83864,15.8542 0,0 -10.74716,-8.10747 -13.07105,-8.82956 -21.4073,-11.30193 -43.06287,-23.64754 -67.49934,-26.73051 -11.5194,-1.83189 -23.21031,-2.46204 -34.86553,-2.26909 z"
         id="path50027"
         transform="translate(0.92693613)"
         sodipodi:nodetypes="cccccccccc" /><path
         style="fill:#200702;fill-opacity:1;stroke:none;stroke-width:1.71854;stroke-linecap:round;stroke-dasharray:none;stroke-opacity:1;paint-order:fill markers stroke"
         d="m 272.41422,456.82019 c -31.85761,0.0103 -63.74122,2.70558 -94.86513,9.70228 -39.303,7.70421 -78.627551,19.8734 -118.9646,17.56224 -19.374655,-0.85866 -38.536101,-4.54139 -57.1940858,-9.95507 -4.7390216,2.09737 -0.95363746,10.16731 -2.16345445,14.61373 0.75007062,6.56418 -1.64395745,14.02663 1.51170248,20.07215 4.54879017,3.13238 10.54334177,-0.70842 15.57589177,-0.4218 55.087074,-6.36694 110.596856,-9.33997 166.085436,-9.33359 81.1231,0.99549 162.45155,8.98585 241.44253,27.94913 60.765,13.48935 123.68714,9.33569 184.75396,0.27725 14.81582,-2.40244 73.09841,-12.8864 73.09841,-12.8864 0,0 -34.2275,2.69425 -36.94555,2.21778 -40.40894,1.41 -80.62341,-3.87289 -120.95642,-5.32914 -29.8453,-1.25467 -59.68395,-4.81282 -88.20768,-13.93528 -31.14492,-8.7149 -61.05637,-20.84783 -90.46446,-34.23301 -24.09208,-3.54986 -48.28384,-6.9607 -72.70655,-6.30027 z"
         id="path50719"
         transform="translate(0.92693613)"
         sodipodi:nodetypes="cccccccccccccccc" /><path
         style="fill:#7d3413;fill-opacity:1;stroke:none;stroke-width:0.85927;stroke-linecap:round;stroke-dasharray:none;stroke-opacity:1;paint-order:fill markers stroke"
         d="m 836.32539,404.16588 c -11.04514,1.34683 -21.75652,4.68127 -32.56941,7.22565 -64.17352,16.33374 -127.4207,36.2106 -191.75925,51.84581 -43.00005,10.05388 -86.9056,19.0647 -131.23535,16.94682 -42.17355,-1.40082 -135.10201,-16.77131 -135.10201,-16.77131 0,0 7.71032,5.05116 9.99896,5.31268 33.0193,15.47694 67.77543,27.14955 103.19225,35.74136 22.84399,5.61311 46.40143,6.9738 69.81251,8.02628 26.14245,1.02786 52.19364,3.2465 78.31056,4.96409 25.61336,1.76411 51.27695,-0.5631 76.7356,-3.29934 31.51038,-3.82398 63.03347,-8.04014 94.08767,-14.70201 22.20589,-4.55659 43.62769,-12.46507 65.86902,-16.57305 26.09821,-4.39896 92.26708,-2.09721 92.26708,-2.09721 0,0 -11.64686,-5.51213 -13.92759,-5.30362 -12.93933,-3.25426 -26.25356,-4.87273 -39.59922,-4.64735 -21.32796,-0.22428 -42.80735,0.0437 -63.8063,4.21192 -10.80551,2.25985 -21.98457,1.44483 -32.89752,1.36689 -6.19053,-0.65988 -12.68184,-1.33565 -18.27531,-4.30338 -2.54661,-1.53305 0.21045,-4.45471 1.55244,-5.77343 7.98419,-6.45781 17.59711,-10.32959 26.56304,-15.11481 15.44103,-7.98987 31.61455,-14.74693 46.13987,-24.3877 4.37588,-3.31688 10.08993,-6.8243 10.90239,-12.73722 0.0571,-5.1038 -5.52083,-7.59396 -9.67128,-8.93625 -2.13283,-0.63862 -4.35655,-1.03037 -6.58815,-0.99482 z"
         id="path50721"
         transform="translate(0.92693613)"
         sodipodi:nodetypes="cccccccccccccccccccccccc" /></g><g
       inkscape:label="logo"
       id="layer1-1"
       transform="matrix(1.1706198,0,0,1.1706198,-34.255319,-46.942752)"
       style="display:inline"><rect
         style="display:none;fill:#1f1f1f;fill-opacity:1;stroke:#924f0d;stroke-width:6.4;stroke-linecap:round;stroke-linejoin:miter;stroke-dasharray:none;stroke-opacity:1;paint-order:fill markers stroke"
         id="rect27076"
         width="907.58252"
         height="435.65997"
         x="160.35995"
         y="163.14076"
         ry="0.10048136" /><g
         id="g2379"
         inkscape:label="moon"><path
           style="fill:#4c4c4c;fill-opacity:1;stroke:#924f0d;stroke-width:1.31805;stroke-linecap:round;stroke-linejoin:miter;stroke-dasharray:none;stroke-opacity:1;paint-order:fill markers stroke;filter:url(#filter23735)"
           d="m 552.10812,176.14618 c -26.11726,-0.19138 -51.90295,8.21965 -73.58406,22.62317 -16.18998,10.47712 -29.49898,25.0475 -39.91151,41.18155 -4.67293,8.24912 -9.44172,16.63456 -12.29756,25.70494 -0.86461,3.37301 1.72873,-0.17231 2.40268,-1.04401 12.53017,-25.413 35.75455,-45.18213 62.78739,-53.56088 14.96373,-4.86976 31.01762,-5.50545 46.50537,-3.60118 29.67759,4.10204 57.0426,22.18179 72.95983,47.42204 18.25494,28.19328 21.36276,65.31615 8.35524,96.16731 -12.70013,31.18626 -41.41205,55.14737 -74.31677,62.11986 -13.69785,2.9934 -27.98644,2.89754 -41.80487,0.65119 -30.86623,-5.74834 -58.64474,-26.18212 -73.13972,-54.0965 -1.13853,-1.38229 -2.32668,-3.13124 -3.35538,-4.50525 0.39537,1.86838 0.77238,3.7204 1.32433,5.78838 14.18971,35.63497 44.1853,64.56103 80.42409,77.20104 15.47827,5.4756 31.9948,8.07263 48.39437,7.71453 18.53993,-0.85717 37.0903,-4.65509 53.82016,-12.88354 37.48289,-17.32259 66.02598,-52.8124 74.55022,-93.26055 3.63921,-15.44398 3.41407,-31.52287 1.90111,-47.224 -5.46438,-40.00597 -29.70441,-77.16593 -64.73862,-97.45235 -21.11324,-12.71957 -45.60565,-19.47087 -70.2763,-18.94575 z"
           id="path18500"
           sodipodi:nodetypes="ccccccccccccccccccccc" /><path
           id="path4221"
           style="display:inline;opacity:0.344648;fill:#3b3b3b;fill-opacity:1;stroke:none;stroke-width:1.549;stroke-linecap:round;stroke-dasharray:none;stroke-opacity:1;paint-order:fill markers stroke"
           d="m 563.9212,176.6083 a 5.8180054,5.8180054 0 0 0 1.37696,1.27148 5.8180054,5.8180054 0 0 0 3.50195,1.33399 5.8180054,5.8180054 0 0 0 3.79492,-1.70899 c -2.87863,-0.40052 -5.77081,-0.69177 -8.67383,-0.89648 z m -26.58008,0.47851 c -2.16644,0.25273 -4.31545,0.61548 -6.46484,0.98047 a 5.8180054,5.8180054 0 0 0 2.45898,0.9375 5.8180054,5.8180054 0 0 0 4.00586,-1.91797 z m 12.87305,7.49024 a 5.8180054,5.8180054 0 0 0 -5.67969,5.9082 5.8180054,5.8180054 0 0 0 3.13672,5.02148 5.8180054,5.8180054 0 0 0 3.50196,1.33399 5.8180054,5.8180054 0 0 0 5.77148,-5.81641 l -0.002,-0.18554 a 5.8180054,5.8180054 0 0 0 -3.1836,-4.96485 5.8180054,5.8180054 0 0 0 -3.54492,-1.29687 z m -35.51562,0.12304 a 5.8180054,5.8180054 0 0 0 -5.67969,5.91016 5.8180054,5.8180054 0 0 0 3.67187,5.16016 5.8180054,5.8180054 0 0 0 3.01953,0.86132 5.8180054,5.8180054 0 0 0 5.77149,-5.81836 l -0.004,-0.18359 a 5.8180054,5.8180054 0 0 0 -3.73047,-5.0957 5.8180054,5.8180054 0 0 0 -3.04882,-0.83399 z m 71.18945,0.29688 a 5.8180054,5.8180054 0 0 0 -5.67969,5.9082 5.8180054,5.8180054 0 0 0 3.13672,5.02344 5.8180054,5.8180054 0 0 0 3.5,1.33398 5.8180054,5.8180054 0 0 0 5.77344,-5.81836 l -0.004,-0.18359 a 5.8180054,5.8180054 0 0 0 -3.1875,-4.9668 5.8180054,5.8180054 0 0 0 -3.53906,-1.29687 z m 29.86914,6.40234 a 5.8180054,5.8180054 0 0 0 3.05078,4.73828 5.8180054,5.8180054 0 0 0 3.5,1.33399 5.8180054,5.8180054 0 0 0 2.74805,-0.74219 c -0.82412,-0.50344 -1.62441,-1.04295 -2.46094,-1.52734 -2.23675,-1.34752 -4.52909,-2.59074 -6.83789,-3.80274 z m -118.68359,10.92774 a 5.8180054,5.8180054 0 0 0 -5.67969,5.9082 5.8180054,5.8180054 0 0 0 0.94336,2.74609 c 3.76967,-1.19523 7.60608,-2.12465 11.48437,-2.81445 a 5.8180054,5.8180054 0 0 0 -3.69922,-5.00586 5.8180054,5.8180054 0 0 0 -3.04882,-0.83398 z m 35.25195,0 a 5.8180054,5.8180054 0 0 0 -5.28711,4.33789 c 3.74446,0.14178 7.48121,0.44126 11.18359,0.89648 0.2742,0.0379 0.54457,0.0964 0.81836,0.13672 a 5.8180054,5.8180054 0 0 0 -3.43945,-4.32422 5.8180054,5.8180054 0 0 0 -3.27539,-1.04687 z m 35.93555,0.29687 a 5.8180054,5.8180054 0 0 0 -5.67774,5.90821 5.8180054,5.8180054 0 0 0 3.13672,5.02148 5.8180054,5.8180054 0 0 0 3.49805,1.33398 5.8180054,5.8180054 0 0 0 5.77344,-5.81836 l -0.004,-0.18164 a 5.8180054,5.8180054 0 0 0 -3.18164,-4.96484 5.8180054,5.8180054 0 0 0 -3.54492,-1.29883 z m 35.46289,0.20899 a 5.8180054,5.8180054 0 0 0 -5.67969,5.91015 5.8180054,5.8180054 0 0 0 3.14453,5.02344 5.8180054,5.8180054 0 0 0 3.2832,1.12109 5.8180054,5.8180054 0 0 0 5.77149,-5.81836 l -0.004,-0.18164 a 5.8180054,5.8180054 0 0 0 -3.19922,-4.96875 5.8180054,5.8180054 0 0 0 -3.3164,-1.08593 z m 32.50976,1.56054 a 5.8180054,5.8180054 0 0 0 -2.51562,4.76758 5.8180054,5.8180054 0 0 0 3.13476,5.02149 5.8180054,5.8180054 0 0 0 3.50196,1.33593 5.8180054,5.8180054 0 0 0 5.16211,-3.24414 c -2.96986,-2.76884 -6.06409,-5.40148 -9.28321,-7.88086 z m -168.58594,2.66797 c -2.47978,2.05679 -4.86554,4.22436 -7.18359,6.46485 a 5.8180054,5.8180054 0 0 0 1.68359,0.43359 5.8180054,5.8180054 0 0 0 5.77149,-5.81641 l -0.002,-0.18359 a 5.8180054,5.8180054 0 0 0 -0.26954,-0.89844 z m 118.45118,13.39844 a 5.8180054,5.8180054 0 0 0 -5.11914,3.65625 c 3.27728,2.19968 6.42483,4.58527 9.4375,7.13281 a 5.8180054,5.8180054 0 0 0 2.20117,-4.55273 l -0.004,-0.1836 a 5.8180054,5.8180054 0 0 0 -3.20117,-4.96875 5.8180054,5.8180054 0 0 0 -3.31445,-1.08398 z m 35.66992,0.41992 a 5.8180054,5.8180054 0 0 0 -5.67774,5.9082 5.8180054,5.8180054 0 0 0 3.14258,5.02539 5.8180054,5.8180054 0 0 0 3.28516,1.1211 5.8180054,5.8180054 0 0 0 5.77148,-5.81836 l -0.002,-0.18359 a 5.8180054,5.8180054 0 0 0 -3.20313,-4.96875 5.8180054,5.8180054 0 0 0 -3.3164,-1.08399 z m 32.79101,0.71875 a 5.8180054,5.8180054 0 0 0 -3.21679,5.18945 5.8180054,5.8180054 0 0 0 5.86328,5.72657 5.8180054,5.8180054 0 0 0 4.49609,-2.18555 c -2.24523,-3.01934 -4.65514,-5.90946 -7.14258,-8.73047 z m -204.50976,3.18945 c -1.82101,2.19384 -3.577,4.43812 -5.27149,6.72852 a 5.8180054,5.8180054 0 0 0 5.51368,-5.74609 l -0.002,-0.18555 a 5.8180054,5.8180054 0 0 0 -0.24023,-0.79688 z m 153.04297,13.31055 a 5.8180054,5.8180054 0 0 0 -3.69727,1.69531 c 2.96004,3.16762 5.73609,6.50029 8.26953,10.00977 a 5.8180054,5.8180054 0 0 0 2.99805,-5.06055 l -0.002,-0.18554 a 5.8180054,5.8180054 0 0 0 -3.20118,-4.9668 5.8180054,5.8180054 0 0 0 -1.23437,-0.58203 5.8180054,5.8180054 0 0 0 -3.13281,-0.91016 z m 36.30273,0.4082 a 5.8180054,5.8180054 0 0 0 -0.30664,0.0898 5.8180054,5.8180054 0 0 0 -0.32226,-0.0781 5.8180054,5.8180054 0 0 0 -5.67969,5.90821 5.8180054,5.8180054 0 0 0 3.13672,5.02148 5.8180054,5.8180054 0 0 0 3.50195,1.33399 5.8180054,5.8180054 0 0 0 0.32227,-0.0879 5.8180054,5.8180054 0 0 0 0.30664,0.0781 5.8180054,5.8180054 0 0 0 5.77148,-5.82031 l -0.004,-0.1836 a 5.8180054,5.8180054 0 0 0 -3.18554,-4.96484 5.8180054,5.8180054 0 0 0 -3.54102,-1.29688 z m 29.88672,3.2168 a 5.8180054,5.8180054 0 0 0 -0.73242,2.91211 5.8180054,5.8180054 0 0 0 5.45703,5.62109 c -1.46968,-2.90205 -3.05332,-5.74275 -4.72461,-8.5332 z m -47.51367,14.4082 a 5.8180054,5.8180054 0 0 0 -0.31055,0.0899 5.8180054,5.8180054 0 0 0 -0.31836,-0.0762 5.8180054,5.8180054 0 0 0 -5.67969,5.9082 5.8180054,5.8180054 0 0 0 0.22071,0.73828 c 0.53134,1.01512 1.08638,2.01856 1.58203,3.05078 a 5.8180054,5.8180054 0 0 0 1.33398,1.23242 5.8180054,5.8180054 0 0 0 3.50196,1.33399 5.8180054,5.8180054 0 0 0 0.47851,-0.0508 5.8180054,5.8180054 0 0 0 0.15039,0.0391 5.8180054,5.8180054 0 0 0 0.32422,-0.0898 5.8180054,5.8180054 0 0 0 1.01953,-0.2793 5.8180054,5.8180054 0 0 0 4.42969,-5.44922 l -0.004,-0.18359 a 5.8180054,5.8180054 0 0 0 -3.18359,-4.96485 5.8180054,5.8180054 0 0 0 -3.54492,-1.29883 z m 34.83398,0.22266 a 5.8180054,5.8180054 0 0 0 -5.67968,5.9082 5.8180054,5.8180054 0 0 0 5.86328,5.72657 5.8180054,5.8180054 0 0 0 0.0352,-0.01 5.8180054,5.8180054 0 0 0 0.80664,0.20898 5.8180054,5.8180054 0 0 0 5.76953,-5.82031 l -0.002,-0.18359 a 5.8180054,5.8180054 0 0 0 -5.95312,-5.63281 5.8180054,5.8180054 0 0 0 -0.01,0.004 5.8180054,5.8180054 0 0 0 -0.83008,-0.20117 z m -17.62695,17.62695 a 5.8180054,5.8180054 0 0 0 -5.67969,5.90821 5.8180054,5.8180054 0 0 0 3.13672,5.02148 5.8180054,5.8180054 0 0 0 3.50195,1.33594 5.8180054,5.8180054 0 0 0 0.0586,-0.006 5.8180054,5.8180054 0 0 0 0.78125,0.20117 5.8180054,5.8180054 0 0 0 5.77148,-5.81641 l -0.002,-0.18359 a 5.8180054,5.8180054 0 0 0 -3.18359,-4.96484 5.8180054,5.8180054 0 0 0 -3.54297,-1.29883 5.8180054,5.8180054 0 0 0 -0.0117,0.004 5.8180054,5.8180054 0 0 0 -0.83008,-0.20118 z m 36.30273,0.40821 a 5.8180054,5.8180054 0 0 0 -0.30664,0.0898 5.8180054,5.8180054 0 0 0 -0.32226,-0.0781 5.8180054,5.8180054 0 0 0 -5.67969,5.9082 5.8180054,5.8180054 0 0 0 5.86328,5.72461 5.8180054,5.8180054 0 0 0 0.32422,-0.0899 5.8180054,5.8180054 0 0 0 0.30664,0.0801 5.8180054,5.8180054 0 0 0 5.77149,-5.81836 l -0.004,-0.18359 a 5.8180054,5.8180054 0 0 0 -5.95313,-5.63281 z m -17.625,17.62695 a 5.8180054,5.8180054 0 0 0 -0.30468,0.0879 5.8180054,5.8180054 0 0 0 -0.32618,-0.0781 5.8180054,5.8180054 0 0 0 -5.67968,5.91015 5.8180054,5.8180054 0 0 0 5.86328,5.72461 5.8180054,5.8180054 0 0 0 0.32812,-0.0898 5.8180054,5.8180054 0 0 0 0.30274,0.0781 5.8180054,5.8180054 0 0 0 5.77148,-5.8164 l -0.002,-0.18555 a 5.8180054,5.8180054 0 0 0 -5.95313,-5.63086 z m -31.6914,1.54687 c 0.48132,2.86927 0.88354,5.75134 1.1289,8.6504 a 5.8180054,5.8180054 0 0 0 1.83008,-3.96094 l -0.004,-0.18555 a 5.8180054,5.8180054 0 0 0 -2.95508,-4.50391 z m 61.56054,1.71485 a 5.8180054,5.8180054 0 0 0 -0.71679,2.86719 5.8180054,5.8180054 0 0 0 1.15625,3.21484 c -0.12235,-2.03152 -0.26437,-4.05898 -0.43946,-6.08203 z m -48.12695,14.375 a 5.8180054,5.8180054 0 0 0 -5.67773,5.9082 5.8180054,5.8180054 0 0 0 3.13476,5.02149 5.8180054,5.8180054 0 0 0 3.50196,1.33398 5.8180054,5.8180054 0 0 0 0.32422,-0.0898 5.8180054,5.8180054 0 0 0 0.30664,0.0801 5.8180054,5.8180054 0 0 0 5.77148,-5.81836 l -0.002,-0.1836 a 5.8180054,5.8180054 0 0 0 -3.73243,-5.09765 5.8180054,5.8180054 0 0 0 -0.45312,-0.20508 5.8180054,5.8180054 0 0 0 -3.17383,-0.94922 z m 35.25391,0 a 5.8180054,5.8180054 0 0 0 -5.67969,5.9082 5.8180054,5.8180054 0 0 0 3.81836,5.19922 5.8180054,5.8180054 0 0 0 3.0957,0.93555 5.8180054,5.8180054 0 0 0 5.77149,-5.81836 l -0.004,-0.1836 a 5.8180054,5.8180054 0 0 0 -3.87109,-5.13086 5.8180054,5.8180054 0 0 0 -3.13086,-0.91015 z m -17.62696,17.62695 a 5.8180054,5.8180054 0 0 0 -5.67968,5.9082 5.8180054,5.8180054 0 0 0 3.28515,5.06055 5.8180054,5.8180054 0 0 0 3.57618,1.40625 5.8180054,5.8180054 0 0 0 5.77148,-5.8164 l -0.002,-0.1836 a 5.8180054,5.8180054 0 0 0 -3.32422,-4.99804 5.8180054,5.8180054 0 0 0 -3.62696,-1.37696 z m -31.06445,1.58399 c -0.60776,3.58325 -1.37042,7.14 -2.35547,10.63867 a 5.8180054,5.8180054 0 0 0 5.52735,-5.78906 l -0.002,-0.18164 a 5.8180054,5.8180054 0 0 0 -3.16992,-4.66797 z m 13.4375,16.04297 a 5.8180054,5.8180054 0 0 0 -5.67773,5.90624 5.8180054,5.8180054 0 0 0 3.13086,5.02149 5.8180054,5.8180054 0 0 0 3.50586,1.33594 5.8180054,5.8180054 0 0 0 5.77148,-5.81836 l -0.004,-0.1836 a 5.8180054,5.8180054 0 0 0 -3.18554,-4.96484 5.8180054,5.8180054 0 0 0 -3.54102,-1.29687 z m 35.67383,0.41992 a 5.8180054,5.8180054 0 0 0 -5.67969,5.9082 5.8180054,5.8180054 0 0 0 5.86328,5.72461 5.8180054,5.8180054 0 0 0 5.77149,-5.81641 l -0.002,-0.18554 a 5.8180054,5.8180054 0 0 0 -5.95308,-5.63086 z m -248.15039,9.99218 c 0.0193,0.0914 0.0452,0.19188 0.0644,0.28321 a 5.8180054,5.8180054 0 0 0 0.13477,-0.0156 c -0.0622,-0.0841 -0.13814,-0.18599 -0.19922,-0.26758 z m 194.84961,7.2129 a 5.8180054,5.8180054 0 0 0 -5.67774,5.9082 5.8180054,5.8180054 0 0 0 3.13868,5.02539 5.8180054,5.8180054 0 0 0 3.49804,1.33203 5.8180054,5.8180054 0 0 0 5.77344,-5.81836 l -0.004,-0.18555 a 5.8180054,5.8180054 0 0 0 -3.18359,-4.96289 5.8180054,5.8180054 0 0 0 -3.54492,-1.29882 z m 35.67383,0.41992 a 5.8180054,5.8180054 0 0 0 -5.67969,5.91015 5.8180054,5.8180054 0 0 0 5.86523,5.72461 5.8180054,5.8180054 0 0 0 5.76953,-5.81836 l -0.002,-0.18359 a 5.8180054,5.8180054 0 0 0 -5.95312,-5.63281 z m -53.35157,17.54101 a 5.8180054,5.8180054 0 0 0 -5.67968,5.90821 5.8180054,5.8180054 0 0 0 3.67382,5.16015 5.8180054,5.8180054 0 0 0 3.01758,0.86328 5.8180054,5.8180054 0 0 0 5.77149,-5.82031 l -0.004,-0.18359 a 5.8180054,5.8180054 0 0 0 -3.72851,-5.09375 5.8180054,5.8180054 0 0 0 -3.05079,-0.83399 z m 35.72657,0.0859 a 5.8180054,5.8180054 0 0 0 -5.67969,5.9082 5.8180054,5.8180054 0 0 0 3.13476,5.02149 5.8180054,5.8180054 0 0 0 3.50196,1.33398 5.8180054,5.8180054 0 0 0 5.77148,-5.8164 l -0.002,-0.1836 a 5.8180054,5.8180054 0 0 0 -3.18359,-4.96484 5.8180054,5.8180054 0 0 0 -3.54297,-1.29883 z m -53.35352,17.54102 a 5.8180054,5.8180054 0 0 0 -5.67773,5.90625 5.8180054,5.8180054 0 0 0 3.67187,5.16015 5.8180054,5.8180054 0 0 0 3.01758,0.86328 5.8180054,5.8180054 0 0 0 5.77148,-5.81836 l -0.002,-0.18359 a 5.8180054,5.8180054 0 0 0 -3.73047,-5.0957 5.8180054,5.8180054 0 0 0 -3.05078,-0.83203 z m 35.67383,0.41992 a 5.8180054,5.8180054 0 0 0 -5.67969,5.9082 5.8180054,5.8180054 0 0 0 3.67383,5.16016 5.8180054,5.8180054 0 0 0 3.01562,0.86133 5.8180054,5.8180054 0 0 0 5.77344,-5.81641 l -0.004,-0.18555 a 5.8180054,5.8180054 0 0 0 -3.73243,-5.09765 5.8180054,5.8180054 0 0 0 -3.04687,-0.83008 z m 33.68359,0.41211 a 5.8180054,5.8180054 0 0 0 -3.47656,3.88867 c 1.18459,-1.27407 2.34111,-2.57057 3.47656,-3.88867 z m -180.7832,5.14062 a 5.8180054,5.8180054 0 0 0 5.78711,5.45117 5.8180054,5.8180054 0 0 0 3.49805,-1.22265 c -3.15924,-1.26456 -6.26268,-2.66299 -9.28516,-4.22852 z m 22.66406,11.02149 a 5.8180054,5.8180054 0 0 0 -5.67969,5.91015 5.8180054,5.8180054 0 0 0 3.13672,5.02149 5.8180054,5.8180054 0 0 0 3.50196,1.33398 5.8180054,5.8180054 0 0 0 5.77148,-5.81836 l -0.004,-0.18359 a 5.8180054,5.8180054 0 0 0 -3.1836,-4.96485 5.8180054,5.8180054 0 0 0 -3.54297,-1.29882 z m 35.67383,0.42187 a 5.8180054,5.8180054 0 0 0 -5.67969,5.9082 5.8180054,5.8180054 0 0 0 3.13477,5.02149 5.8180054,5.8180054 0 0 0 3.50195,1.33398 5.8180054,5.8180054 0 0 0 5.77149,-5.8164 l -0.002,-0.18555 a 5.8180054,5.8180054 0 0 0 -3.18554,-4.96484 5.8180054,5.8180054 0 0 0 -3.54102,-1.29688 z m 35.46094,0.20899 a 5.8180054,5.8180054 0 0 0 -5.67774,5.9082 5.8180054,5.8180054 0 0 0 3.13672,5.02344 5.8180054,5.8180054 0 0 0 3.5,1.33398 5.8180054,5.8180054 0 0 0 5.77344,-5.81836 l -0.004,-0.18555 a 5.8180054,5.8180054 0 0 0 -3.18359,-4.96289 5.8180054,5.8180054 0 0 0 -3.54492,-1.29882 z m 35.67383,0.41992 a 5.8180054,5.8180054 0 0 0 -5.67969,5.91015 5.8180054,5.8180054 0 0 0 3.67383,5.16016 5.8180054,5.8180054 0 0 0 3.01562,0.86133 5.8180054,5.8180054 0 0 0 5.77344,-5.81836 l -0.004,-0.18359 a 5.8180054,5.8180054 0 0 0 -3.73047,-5.09571 5.8180054,5.8180054 0 0 0 -3.04882,-0.83398 z m -88.76172,16.99804 a 5.8180054,5.8180054 0 0 0 -5.60938,5.62891 c 3.83063,1.30492 7.71924,2.4349 11.6543,3.38867 a 5.8180054,5.8180054 0 0 0 0.68555,-2.57226 l -0.004,-0.1836 a 5.8180054,5.8180054 0 0 0 -3.18555,-4.96484 5.8180054,5.8180054 0 0 0 -3.54101,-1.29688 z m 35.46289,0.20899 a 5.8180054,5.8180054 0 0 0 -5.67969,5.9082 5.8180054,5.8180054 0 0 0 3.13672,5.02149 5.8180054,5.8180054 0 0 0 3.5,1.33398 5.8180054,5.8180054 0 0 0 5.77344,-5.81836 l -0.004,-0.18359 a 5.8180054,5.8180054 0 0 0 -3.18555,-4.96485 5.8180054,5.8180054 0 0 0 -3.54101,-1.29687 z m 35.67187,0.41992 a 5.8180054,5.8180054 0 0 0 -5.67968,5.9082 5.8180054,5.8180054 0 0 0 1.08789,3.12891 c 3.80181,-0.80663 7.56269,-1.77662 11.27539,-2.91406 a 5.8180054,5.8180054 0 0 0 -3.13867,-4.82422 5.8180054,5.8180054 0 0 0 -3.54493,-1.29883 z" /></g><rect
         style="display:none;fill:#102850;fill-opacity:1;stroke:#924f0d;stroke-width:3.9757;stroke-dasharray:none;stroke-opacity:1;paint-order:fill markers stroke;filter:url(#filter1040)"
         id="rect11228"
         width="857.01355"
         height="87.195915"
         x="185.64444"
         y="268.1427"
         ry="0.10488968" /><g
         aria-label="anargia Pixels"
         id="name"
         style="font-size:96px;font-family:Castellar;-inkscape-font-specification:'Castellar, Normal';letter-spacing:0px;display:none;fill:#924f0d;stroke:#000000;stroke-width:0.6;paint-order:fill markers stroke;filter:url(#filter1163)"
         transform="matrix(0.89210223,0,0,0.89210223,64.697218,33.50343)"><path
           d="m 207.40121,282.787 24.32812,58.26562 h 3.14063 L 208.94808,278.8495 Z m -0.75,3.9375 q -1.26563,2.48437 -3.375,7.26562 -2.0625,4.78125 -3.75,8.95313 -1.6875,4.17187 -3.51563,8.90625 -1.82812,4.6875 -2.4375,6.1875 2.76563,0.375 6.42188,0.51562 3.70312,0.14063 7.03125,0.14063 8.20312,0 13.45312,-0.65625 -1.78125,-5.29688 -6.04687,-15.04688 -4.26563,-9.79687 -7.78125,-16.26562 z m 4.96875,-13.17188 20.29687,48.42188 q 3.9375,9.46875 9.1875,18.79687 l 7.78125,1.64063 v 0.46875 H 215.79183 V 342.412 l 12.75,-1.64063 q -0.70312,-4.64062 -2.625,-10.07812 -1.875,-5.48438 -4.17187,-9.51563 h -29.39063 q -1.875,4.73438 -3.04687,7.78125 -1.125,3.04688 -2.20313,6.32813 -1.03125,3.28125 -1.35937,5.48437 l 12.28125,1.64063 v 0.46875 H 171.82308 V 342.412 l 8.625,-1.64063 q 3.14063,-5.4375 5.76563,-12 l 21.70312,-55.21875 z"
           style="display:inline"
           id="path1267" /><path
           d="m 247.18558,274.7245 v -0.46875 h 20.4188 c 1.5625,2.125 3.57813,4.6875 6.04688,7.6875 2.5,3 4.71875,5.57812 6.65625,7.73437 l 21,23.34375 c 2.78125,3.03125 4.9375,5.375 6.46875,7.03125 1.5625,1.65625 3.57812,3.67188 6.04687,6.04688 0.1875,-2.15625 0.3125,-4.17188 0.375,-6.04688 0.0625,-1.875 0.0937,-3.64062 0.0937,-5.29687 v -20.25 c 0,-7.28125 -0.35937,-13.29688 -1.07812,-18.04688 l -11.39063,-1.73437 v -0.46875 h 27.89063 v 0.46875 l -11.39063,1.82812 c -0.59375,4.375 -0.89062,9.96875 -0.89062,16.78125 v 51.375 h -0.46875 c -4.78125,-6.0625 -9.51563,-11.73437 -14.20313,-17.01562 l -28.6875,-31.96875 c -4.25,-4.53125 -7.875,-8.14063 -10.875,-10.82813 -0.4375,4.25 -0.65625,8.21875 -0.65625,11.90625 v 29.67188 c 0,3.96875 0.3125,8.70312 0.9375,14.20312 l 11.90625,1.73438 v 0.46875 l -27.44996,0.007 -0.007,-0.17184 10.48845,-1.94478 c 0.375,-2.25 0.64063,-5.45312 0.79688,-9.60937 0.15625,-4.15625 0.23437,-7.85938 0.23437,-11.10938 v -22.96875 c 0,-2.71875 -0.0469,-5.40625 -0.14062,-8.0625 -0.0937,-2.6875 -0.26563,-5.34375 -0.51563,-7.96875 l -6.23437,-4.59375 z m 10.76255,1.26562 56.625,62.95313 V 334.537 l -52.6875,-58.54688 z"
           style="display:inline"
           id="path1269"
           sodipodi:nodetypes="ccccccccsssccccccscccccssccccccsssccccccccc" /><path
           d="m 364.04592,282.78701 24.32812,58.26562 h 3.14063 l -25.92188,-62.20312 z m -0.75,3.9375 q -1.26563,2.48437 -3.375,7.26562 -2.0625,4.78125 -3.75,8.95313 -1.6875,4.17187 -3.51563,8.90625 -1.82812,4.6875 -2.4375,6.1875 2.76563,0.375 6.42188,0.51562 3.70312,0.14063 7.03125,0.14063 8.20312,0 13.45312,-0.65625 -1.78125,-5.29688 -6.04687,-15.04688 -4.26563,-9.79687 -7.78125,-16.26562 z m 4.96875,-13.17188 20.29687,48.42188 q 3.9375,9.46875 9.1875,18.79687 l 7.78125,1.64063 v 0.46875 h -33.09375 v -0.46875 l 12.75,-1.64063 q -0.70312,-4.64062 -2.625,-10.07812 -1.875,-5.48438 -4.17187,-9.51563 h -29.39063 q -1.875,4.73438 -3.04687,7.78125 -1.125,3.04688 -2.20313,6.32813 -1.03125,3.28125 -1.35937,5.48437 l 12.28125,1.64063 v 0.46875 h -26.20313 v -0.46875 l 8.625,-1.64063 q 3.14063,-5.4375 5.76563,-12 l 21.70312,-55.21875 z"
           style="display:inline"
           id="path1271" /><path
           d="m 419.15847,314.94326 v -14.48438 q 0,-5.57812 -0.375,-12.75 -0.375,-7.21875 -0.9375,-11.34375 l -11.25,-1.64062 v -0.46875 h 30.79687 q 8.76563,0 13.96875,3.51562 5.25,3.46875 7.26563,7.96875 2.01562,4.45313 2.01562,7.6875 0,4.45313 -2.01562,7.96875 -2.01563,3.46875 -5.29688,5.53125 -3.23437,2.0625 -6.60937,2.4375 v 0.1875 q 3.1875,1.26563 5.29687,3.375 1.64063,1.64063 3.75,4.64063 2.10938,2.95312 5.57813,8.10937 3.46875,5.15625 5.57812,8.0625 2.10938,2.90625 3.89063,4.73438 3.9375,3.9375 7.78125,3.9375 v 0.46875 h -8.15625 q -6.84375,0 -10.875,-4.125 -1.59375,-1.59375 -3.1875,-3.75 -1.54688,-2.20313 -4.96875,-7.17188 -3.375,-4.96875 -5.71875,-8.20312 -2.29688,-3.23438 -3.65625,-4.59375 -2.01563,-2.01563 -3.70313,-2.67188 -1.64062,-0.70312 -4.875,-0.70312 -2.95312,0 -4.59375,0.32812 -0.28125,2.53125 -0.28125,5.625 v 8.67188 q 0,5.48437 1.17188,14.48437 l 11.67187,1.64063 v 0.46875 h -34.82812 v -0.46875 l 11.01562,-1.64063 q 0.70313,-4.73437 1.125,-13.3125 0.42188,-8.57812 0.42188,-12.51562 z m 9.32812,-21.42188 v 7.6875 q 0,4.07813 0.28125,7.59375 1.82813,0.28125 5.29688,0.28125 6,0 9.65625,-2.0625 3.70312,-2.0625 5.25,-5.34375 1.59375,-3.32812 1.59375,-7.26562 0,-3.89063 -1.54688,-7.17188 -1.5,-3.28125 -3.9375,-5.53125 -2.39062,-2.29687 -5.39062,-3.51562 -2.95313,-1.26563 -5.8125,-1.26563 -2.71875,0 -4.26563,0.375 -0.42187,2.71875 -0.79687,7.78125 -0.32813,5.0625 -0.32813,8.4375 z m 16.875,23.25 10.17188,14.76563 q 3.65625,5.20312 6.51562,7.45312 2.85938,2.20313 6.75,2.25 v -0.46875 q -3.70312,-1.07812 -9.51562,-9.51562 l -8.15625,-11.71875 q -2.625,-3.84375 -4.92188,-5.8125 -2.29687,-1.96875 -5.625,-2.625 l -0.1875,0.375 q 2.625,1.6875 4.96875,5.29687 z m -25.03125,-40.6875 v 64.96875 h 3.375 v -64.96875 z m 12.84375,-0.79687 v 0.46875 q 6.42188,0.14062 10.73438,3.14062 4.35937,2.95313 6.32812,7.26563 1.96875,4.3125 1.96875,8.53125 0,9.375 -8.15625,13.54687 l 0.28125,0.1875 q 4.78125,-1.21875 7.875,-5.20312 3.14063,-3.98438 3.14063,-9.51563 0,-4.3125 -1.6875,-7.78125 -1.6875,-3.51562 -4.59375,-5.85937 -2.85938,-2.34375 -6.42188,-3.5625 -3.5625,-1.21875 -7.17187,-1.21875 z"
           style="display:inline"
           id="path1273" /><path
           d="m 535.16472,318.03701 v 18.32812 l 3.14063,-1.17187 v -17.15625 z m 16.875,-1.35938 -7.5,1.73438 q -0.60937,3.42187 -0.98437,8.76562 -0.375,5.34375 -0.32813,9.5625 -5.39062,2.10938 -8.8125,3.23438 -3.375,1.125 -8.10937,2.01562 -4.6875,0.89063 -10.26563,0.89063 -9.23437,0 -16.26562,-2.90625 -7.03125,-2.90625 -11.625,-7.78125 -4.54688,-4.92188 -6.75,-10.92188 -2.20313,-6 -2.20313,-12.09375 0,-7.17187 2.4375,-13.6875 2.4375,-6.5625 7.17188,-11.67187 4.73437,-5.15625 11.57812,-8.0625 6.89063,-2.95313 15.5625,-2.95313 1.35938,0 2.10938,0.0469 0.79687,0.0469 1.96875,0.0937 1.17187,0.0469 3.14062,0.14062 5.71875,0.375 10.82813,0.375 4.73437,0 7.6875,-0.28125 l 0.65625,15.65625 h -0.65625 l -3,-10.45312 q -1.78125,-0.46875 -4.45313,-0.9375 -2.67187,-0.51563 -6.04687,-0.89063 -3.32813,-0.375 -7.21875,-0.375 -8.20313,0 -14.25,2.67188 -6.04688,2.625 -9.75,7.125 -3.65625,4.45312 -5.34375,9.89062 -1.6875,5.4375 -1.6875,11.10938 0,6.42187 2.34375,12.14062 2.39062,5.71875 6.70312,10.125 4.35938,4.40625 10.125,6.89063 5.76563,2.4375 12.23438,2.4375 1.6875,0 3.46875,-0.1875 1.78125,-0.1875 3.65625,-0.46875 1.92187,-0.32813 4.35937,-0.70313 0.98438,-4.17187 0.98438,-8.8125 0,-6.42187 -0.98438,-10.07812 l -12.09375,-1.64063 v -0.5625 h 31.3125 z m -30.42187,-42.14062 v -0.375 q -3.14063,-0.28125 -5.67188,-0.28125 -7.59375,0 -14.01562,2.625 -6.375,2.625 -11.0625,7.40625 -4.64063,4.73437 -7.21875,11.29687 -2.53125,6.51563 -2.53125,13.96875 0,8.71875 4.35937,16.21875 4.35938,7.45313 12.51563,11.85938 8.15625,4.40625 19.21875,4.40625 2.0625,0 5.625,-0.42188 v -0.375 q -10.3125,0.0469 -17.71875,-2.8125 -7.40625,-2.85937 -11.95313,-7.78125 -4.54687,-4.92187 -6.60937,-10.78125 -2.01563,-5.85937 -2.01563,-11.71875 0,-7.21875 2.29688,-13.3125 2.34375,-6.09375 6.79687,-10.54687 4.45313,-4.45313 11.15625,-6.89063 6.75,-2.48437 15.1875,-2.48437 z"
           style="display:inline"
           id="path1275" /><path
           d="m 572.40604,276.08388 v 64.96875 h 3.28125 v -64.96875 z m 21.14063,66.79688 h -35.4375 v -0.46875 l 11.4375,-1.73438 q 0.79687,-5.85937 1.17187,-14.10937 0.42188,-8.29688 0.42188,-16.21875 v -7.875 q 0,-16.07813 -1.40625,-26.10938 l -11.625,-1.64062 v -0.46875 h 35.4375 v 0.46875 l -11.71875,1.64062 q -0.51563,4.54688 -0.75,8.25 -0.23438,3.65625 -0.42188,8.90625 -0.1875,5.20313 -0.1875,9.79688 v 10.35937 q 0,2.85938 0.1875,9.375 0.23438,6.46875 0.5625,10.96875 0.375,4.5 0.70313,6.75 l 11.625,1.64063 z"
           style="display:inline"
           id="path1277" /><path
           d="m 631.43034,282.78701 24.32813,58.26562 h 3.14062 l -25.92187,-62.20312 z m -0.75,3.9375 q -1.26562,2.48437 -3.375,7.26562 -2.0625,4.78125 -3.75,8.95313 -1.6875,4.17187 -3.51562,8.90625 -1.82813,4.6875 -2.4375,6.1875 2.76562,0.375 6.42187,0.51562 3.70313,0.14063 7.03125,0.14063 8.20313,0 13.45313,-0.65625 -1.78125,-5.29688 -6.04688,-15.04688 -4.26562,-9.79687 -7.78125,-16.26562 z m 4.96875,-13.17188 20.29688,48.42188 q 3.9375,9.46875 9.1875,18.79687 l 7.78125,1.64063 v 0.46875 h -33.09375 v -0.46875 l 12.75,-1.64063 q -0.70313,-4.64062 -2.625,-10.07812 -1.875,-5.48438 -4.17188,-9.51563 h -29.39062 q -1.875,4.73438 -3.04688,7.78125 -1.125,3.04688 -2.20312,6.32813 -1.03125,3.28125 -1.35938,5.48437 l 12.28125,1.64063 v 0.46875 h -26.20312 v -0.46875 l 8.625,-1.64063 q 3.14062,-5.4375 5.76562,-12 l 21.70313,-55.21875 z"
           style="display:inline"
           id="path1279" /><path
           d="M 713.12975,273.37305 H 745.661 q 7.82812,0 12.23437,1.45312 4.40625,1.40625 7.26563,4.26563 2.39062,2.39062 3.65625,5.90625 1.3125,3.46875 1.3125,7.17187 0,5.53125 -2.90625,10.26563 -2.85938,4.6875 -8.10938,7.54687 -5.20312,2.8125 -11.90625,2.8125 -5.29687,0 -9.60937,-0.84375 v -0.46875 q 0.98437,0.0937 3,0.0937 5.25,0 9.70312,-1.78125 4.5,-1.82812 7.21875,-5.625 2.71875,-3.84375 2.71875,-9.60937 0,-6.70313 -4.17187,-12.60938 -4.17188,-5.90625 -12.32813,-5.90625 -3.9375,0 -6.98437,0.75 -0.32813,1.875 -0.70313,9.32813 -0.375,7.45312 -0.375,10.45312 v 22.35938 q 0,1.40625 0.1875,6.375 0.23438,4.92187 0.46875,8.53125 0.23438,3.60937 0.70313,6.04687 l 11.71875,1.73438 -0.51563,0.5625 h -35.10937 l 0.1875,-0.65625 11.34375,-1.64063 q 0.51562,-3.9375 0.79687,-8.34375 0.28125,-4.40625 0.46875,-10.59375 0.23438,-6.23437 0.23438,-9.28125 v -11.25 q 0,-5.95312 -0.375,-13.3125 -0.375,-7.40625 -0.9375,-11.53125 l -11.625,-1.64062 z m 14.29687,1.78125 v 65.10937 h 3.28125 V 275.1543 Z m 18.79688,-0.65625 h -1.6875 v 0.46875 q 5.29687,0.28125 9.23437,3.04687 3.98438,2.71875 6,7.07813 2.01563,4.35937 2.01563,9.375 0,5.71875 -2.4375,9.46875 -2.4375,3.75 -5.8125,5.4375 -3.375,1.6875 -6.70313,2.01562 v 0.5625 h 0.84375 q 2.625,0 6.65625,-1.40625 4.07813,-1.45312 7.45313,-5.53125 3.375,-4.07812 3.375,-11.29687 0,-4.45313 -1.82813,-8.90625 -1.82812,-4.45313 -6.14062,-7.35938 -4.26563,-2.95312 -10.96875,-2.95312 z"
           style="display:inline"
           id="path1281" /><path
           d="m 787.42662,275.38867 v 64.96875 h 3.28125 v -64.96875 z m 21.14063,66.79688 h -35.4375 v -0.46875 l 11.4375,-1.73438 q 0.79687,-5.85937 1.17187,-14.10937 0.42188,-8.29688 0.42188,-16.21875 v -7.875 q 0,-16.07813 -1.40625,-26.10938 l -11.625,-1.64062 v -0.46875 h 35.4375 v 0.46875 l -11.71875,1.64062 q -0.51563,4.54688 -0.75,8.25 -0.23438,3.65625 -0.42188,8.90625 -0.1875,5.20313 -0.1875,9.79688 v 10.35937 q 0,2.85938 0.1875,9.375 0.23438,6.46875 0.5625,10.96875 0.375,4.5 0.70313,6.75 l 11.625,1.64063 z"
           style="display:inline"
           id="path1283" /><path
           d="m 822.44225,275.1543 53.10937,65.20312 h 3.79688 L 826.37975,275.1543 Z m -12.9375,-1.59375 h 39.23437 v 0.46875 l -14.95312,1.54687 q 2.53125,3.9375 4.6875,7.03125 2.20312,3.09375 4.78125,6.375 2.625,3.23438 5.71875,6.84375 3.09375,3.60938 6.375,7.40625 3.65625,-3.75 8.4375,-9.1875 4.82812,-5.48437 8.57812,-10.26562 3.75,-4.78125 5.85938,-8.20313 l -14.29688,-1.54687 v -0.46875 H 895.286 v 0.46875 l -11.01563,1.45312 q -2.95312,2.71875 -6.75,6.9375 -3.75,4.17188 -7.96875,9.28125 -4.21875,5.0625 -7.3125,9.09375 -3.09375,3.98438 -4.17187,5.76563 2.8125,3.75 7.35937,9.51562 4.54688,5.71875 8.20313,10.125 3.65625,4.35938 6.98437,8.0625 3.32813,3.65625 5.85938,5.90625 l 8.71875,1.54688 v 0.46875 h -38.10938 v -0.46875 l 14.90625,-1.64063 q -3.84375,-6.51562 -10.125,-14.34375 -6.23437,-7.82812 -12.14062,-14.25 -4.78125,4.92188 -9.32813,10.21875 -4.54687,5.29688 -8.29687,10.17188 -3.75,4.82812 -6,8.20312 l 14.29687,1.64063 v 0.46875 h -31.125 v -0.46875 l 10.78125,-1.64063 q 6.70313,-6.5625 14.48438,-15.9375 7.82812,-9.42187 12.5625,-16.03125 -4.54688,-6.04687 -9.32813,-12 -4.73437,-6 -9.65625,-11.76562 -4.92187,-5.76563 -8.15625,-8.76563 l -10.45312,-1.54687 z"
           style="display:inline"
           id="path1285" /><path
           d="m 910.56725,275.38867 v 64.96875 h 3.23437 v -64.96875 z m -14.25,-1.35937 v -0.46875 h 49.92187 l 1.17188,14.57812 h -0.75 l -3.375,-11.4375 q -3.98438,-0.28125 -8.95313,-0.28125 -9.04687,0 -14.57812,1.26563 -0.9375,7.59375 -0.9375,17.34375 0,6.09375 0.375,9.89062 7.40625,0.42188 9.42187,0.42188 5.29688,0 10.92188,-0.60938 l 2.10937,-7.96875 h 0.79688 v 19.96875 h -0.79688 l -2.20312,-8.4375 q -4.07813,-0.46875 -9,-0.46875 -6.1875,0 -11.25,0.5625 -0.60938,5.4375 -0.375,10.64063 0.0937,6.65625 0.23437,11.01562 0.14063,4.3125 0.51563,7.45313 5.71875,1.73437 15,1.73437 5.34375,0 9,-0.42187 l 3.75,-11.29688 h 0.65625 l -1.03125,14.67188 h -50.48438 v -0.46875 l 11.20313,-1.64063 q 0.375,-1.92187 0.65625,-5.85937 0.32812,-3.9375 0.5625,-8.8125 0.23437,-4.92188 0.32812,-8.20313 0.0937,-3.32812 0.0937,-5.8125 v -11.8125 q 0,-2.25 -0.14062,-6.375 -0.14063,-4.17187 -0.42188,-8.625 -0.28125,-4.45312 -0.79687,-8.90625 z"
           style="display:inline"
           id="path1287" /><path
           d="m 966.3485,275.29492 v 65.0625 h 3.28125 v -65.0625 z m -14.20313,-1.26562 v -0.46875 h 35.4375 v 0.46875 l -11.625,1.64062 q -0.60937,4.54688 -1.03125,12.28125 -0.42187,7.6875 -0.42187,13.45313 v 20.15625 q 0,7.26562 0.75,15.14062 8.01562,2.53125 16.54687,2.53125 4.125,0 7.59375,-0.46875 3.46873,-0.46875 4.87503,-0.89062 l 4.875,-12.79688 h 0.7031 l -2.2031,17.10938 h -55.59378 v -0.46875 l 11.20313,-1.64063 q 0.5625,-2.25 0.9375,-8.01562 0.42187,-5.76563 0.65625,-11.90625 0.23437,-6.14063 0.23437,-8.67188 v -11.8125 q 0,-3.89062 -0.1875,-8.90625 -0.1875,-5.0625 -0.46875,-8.85937 -0.23437,-3.79688 -0.65625,-6.23438 z"
           style="font-size:96px;font-family:Castellar;-inkscape-font-specification:'Castellar, Normal';letter-spacing:0px;display:inline;fill:#924f0d;stroke:#000000;stroke-width:0.6;paint-order:fill markers stroke"
           id="path1289" /><path
           d="m 1037.1766,273.6543 h -1.5 q -5.1562,0 -9.5156,2.0625 -4.3594,2.0625 -6.8906,5.85937 -2.5313,3.79688 -2.5313,8.57813 0,5.95312 5.2031,11.15625 2.2969,2.20312 4.2657,3.70312 2.0156,1.5 6.0468,4.26563 4.0313,2.71875 6.4219,4.5 2.4375,1.73437 3.9844,3.32812 4.2187,4.21875 4.2187,9.42188 0,3.5625 -1.9687,6.89062 -1.9219,3.28125 -5.625,5.39063 -3.6563,2.0625 -8.625,2.10937 v 0.51563 q 5.7187,0.1875 10.1719,-2.01563 4.5,-2.20312 6.8437,-5.8125 2.3906,-3.60937 2.3906,-7.45312 0,-3.32813 -1.0781,-6.04688 -1.0781,-2.71875 -3.9375,-5.57812 -1.6406,-1.64063 -5.9062,-4.54688 -4.2657,-2.95312 -8.625,-5.90625 -4.3594,-3 -6.375,-4.92187 -4.9219,-4.875 -4.9219,-10.73438 0,-5.15625 4.4531,-9.60937 4.5,-4.45313 13.5,-4.6875 z m -22.9219,52.125 3.5625,11.53125 q 2.6719,1.21875 6.2344,1.96875 3.6094,0.75 6.2344,0.70312 3.5156,0 6.4219,-1.21875 2.9531,-1.21875 4.7812,-3.09375 1.875,-1.875 2.8594,-4.21875 0.9844,-2.39062 0.9844,-4.64062 0,-4.64063 -3.1407,-7.82813 -3.1406,-3.1875 -10.5468,-8.15625 -7.3594,-4.96875 -10.6875,-8.29687 -2.8594,-2.95313 -4.2657,-5.90625 -1.4062,-3 -1.4062,-6.65625 0,-4.03125 2.2031,-8.01563 2.2031,-3.98437 6.7969,-6.60937 4.5937,-2.67188 11.2969,-2.67188 3.0468,0 6.4687,0.32813 3.4219,0.28125 4.7344,0.28125 1.125,-0.0469 2.1094,-0.0469 0.9843,-0.0469 1.5468,-0.0937 0.6094,-0.0937 1.2657,-0.1875 l 0.2812,16.03125 h -0.6094 l -2.9531,-10.82812 q -6.5156,-2.85938 -11.3437,-2.85938 -4.0313,0 -7.2657,1.54688 -3.1875,1.5 -4.9687,4.17187 -1.7813,2.625 -1.7813,5.95313 0,3.46875 2.3907,6.375 2.3906,2.85937 6.5156,5.625 4.1719,2.76562 8.9062,5.85937 4.7813,3.09375 7.6407,5.95313 5.5781,5.57812 5.5781,12.89062 0,4.125 -2.1563,8.53125 -2.1562,4.35938 -7.2656,7.40625 -5.1094,3.04688 -13.2187,3.04688 -2.8594,0 -6.9844,-0.32813 -4.0781,-0.32812 -6,-0.32812 -0.8906,0 -1.4063,0.0469 -0.4687,0.0469 -1.5,0.14063 -1.0312,0.0937 -1.2187,0.0937 l -0.75,-16.5 z"
           style="display:inline"
           id="path1291" /></g><g
         id="g2390"
         inkscape:label="snippets"
         transform="translate(-12,8)"
         style="display:none"><text
           xml:space="preserve"
           style="font-style:normal;font-variant:normal;font-weight:normal;font-stretch:normal;font-size:32px;font-family:'Times New Roman';-inkscape-font-specification:'Times New Roman, Normal';font-variant-ligatures:normal;font-variant-caps:normal;font-variant-numeric:normal;font-variant-east-asian:normal;display:inline;fill:#f7c089;fill-opacity:1;stroke:#000000;stroke-width:0.4;stroke-linecap:round;stroke-linejoin:miter;stroke-dasharray:none;stroke-opacity:1;paint-order:fill markers stroke"
           x="781.51019"
           y="447.28711"
           id="sub-snippets"><tspan
             sodipodi:role="line"
             id="tspan30928"
             x="781.51019"
             y="447.28711">- Emblem Logo</tspan><tspan
             sodipodi:role="line"
             x="781.51019"
             y="487.28711"
             id="tspan30932">- Word n' Letter Mark</tspan><tspan
             sodipodi:role="line"
             x="781.51019"
             y="527.28711"
             id="tspan30934">- Pictorial Mark</tspan><tspan
             sodipodi:role="line"
             x="781.51019"
             y="567.28711"
             id="tspan30936">And more...</tspan></text><text
           xml:space="preserve"
           style="font-style:normal;font-variant:normal;font-weight:normal;font-stretch:normal;font-size:42.0086px;font-family:Algerian;-inkscape-font-specification:'Algerian, Normal';font-variant-ligatures:normal;font-variant-caps:normal;font-variant-numeric:normal;font-variant-east-asian:normal;display:inline;fill:#f7c089;fill-opacity:1;stroke:#000000;stroke-width:0.39383;stroke-linecap:round;stroke-linejoin:miter;stroke-dasharray:none;stroke-opacity:1;paint-order:fill markers stroke"
           x="788.66412"
           y="402.94986"
           id="snippets"
           inkscape:label="main-snippet"><tspan
             sodipodi:role="line"
             id="tspan29210"
             x="788.66412"
             y="402.94986"
             style="fill:#f7c089;fill-opacity:1;stroke-width:0.39383">Logo design</tspan></text></g><g
         aria-label="ANARGIA PIXELS"
         id="text2704"
         style="font-size:85.3333px;font-family:'Imprint MT Shadow';-inkscape-font-specification:'Imprint MT Shadow, Normal';text-align:center;text-anchor:middle;white-space:pre;inline-size:618.793;display:inline;fill:#924f0d;stroke:#000000;stroke-width:0.4;stroke-linecap:round;paint-order:fill markers stroke;filter:url(#filter3571)"
         inkscape:label="text-path"><path
           d="m 268.44213,329.15314 -4.66667,-11.91666 h -19.70832 l -2.75,7.08333 q -1.08333,2.70833 -1.08333,5.625 0,2.79166 1.75,4.91666 1.79166,2.125 4.95833,2.25 v 2.29167 h -19.29166 v -2.29167 q 6.45833,-0.95833 10.41666,-11.12499 l 14.41666,-36.91666 q -1.125,-1.95833 -2.375,-2.62499 -1.25,-0.70834 -3.66666,-0.95834 v -2.04166 l 9.99999,-3.41667 h 3.83333 l 19.29166,49.20831 q 1.66667,4.16667 3.33334,5.66667 1.66666,1.45833 5.08333,2.20833 v 2.29167 H 263.2338 v -2.29167 q 3.20833,-0.33333 4.79166,-1 1.625,-0.66666 1.625,-2.58333 0,-1.66667 -1.20833,-4.375 z m -23.37499,-14.58333 h 17.66666 l -8.875,-22.45832 z m 27.16665,13.04167 -14.87499,-37.70832 q -1.08333,-2.83333 -2.25,-4 -1.16667,-1.20833 -3.20833,-1.20833 -1.20833,0 -1.95833,0.16666 2,0.79167 2.99999,2.20834 1.04167,1.41666 1.95834,3.79166 l 14.74999,37.70832 q 1.375,3.33333 1.375,5.20833 0,1.20833 -0.45833,1.75 -0.45834,0.54167 -1.83334,1.58333 h 0.91667 q 1.95833,0 3,-1.04166 1.08333,-1.04167 1.08333,-2.45834 0,-2.04166 -1.5,-5.99999 z m -40.12498,9.49999 h 8 q -2.625,-2.04166 -2.625,-5.125 0,-0.875 0.0833,-1.375 -1.125,2.08334 -2.29166,3.54167 -1.125,1.45833 -3.16667,2.95833 z"
           id="path459" /><path
           d="m 333.73377,282.90316 v -2.29166 h 22.29166 v 2.29166 q -2.79167,0.0833 -4.91667,1.25 -2.08333,1.16667 -3.29166,3.41667 -1.20834,2.20833 -1.20834,5.33333 l 0.79167,47.79164 h -2.58333 l -42.58332,-49.74998 0.625,33.45832 q 0.0833,3.125 0.5,5.29167 0.41667,2.125 1.5,3.70833 1.08333,1.58333 3.08333,2.5 2.04167,0.91666 5.25,1.20833 v 2.29167 h -22.12499 v -2.29167 q 4.33333,-0.33333 6.41666,-2.33333 2.125,-2 2.625,-4.95833 0.5,-3 0.33334,-7.5 l -0.58334,-34.12498 q -2.375,-2.58334 -4.62499,-3.91667 -2.25,-1.375 -4.66667,-1.375 h -0.5 v -2.29166 h 17.20833 l 37.54165,43.79164 -0.58333,-29.29165 q 0,-3.375 -0.70834,-5.70833 -0.66666,-2.375 -2.29166,-3.83333 -1.16667,-1.16667 -3.375,-1.91667 -2.16667,-0.79167 -4.125,-0.75 z m 14.58333,0 h -9.125 q 2.08333,0.70833 3.375,1.95833 1.33333,1.25 2.25,3.41667 0.95833,-3.70833 3.5,-5.375 z m -6.54167,47.70831 -37.54165,-43.79164 q -1.16666,-1.5 -2.79166,-2.70834 -1.58334,-1.20833 -4.5,-1.20833 h -1.875 q 2.33333,0.83333 3.625,2.04167 1.29166,1.16666 3.625,3.95833 l 42.79164,49.83331 q -0.0417,-1.20833 -0.125,-2.33333 -0.0417,-1.16667 -0.25,-1.70833 -0.20833,-0.58334 -0.79166,-1.41667 -0.58333,-0.83333 -2.16667,-2.66667 z m -45.58331,6.5 h 8.79166 q -1.83333,-1.41666 -2.625,-2.625 -0.75,-1.20833 -1.29166,-3.375 -0.54167,1.95834 -1.66667,3.41667 -1.125,1.41667 -3.20833,2.58333 z"
           id="path461" /><path
           d="m 399.06708,329.15314 -4.66666,-11.91666 h -19.70833 l -2.75,7.08333 q -1.08333,2.70833 -1.08333,5.625 0,2.79166 1.75,4.91666 1.79167,2.125 4.95833,2.25 v 2.29167 h -19.29166 v -2.29167 q 6.45833,-0.95833 10.41667,-11.12499 l 14.41666,-36.91666 q -1.125,-1.95833 -2.375,-2.62499 -1.25,-0.70834 -3.66667,-0.95834 v -2.04166 l 10,-3.41667 h 3.83333 l 19.29166,49.20831 q 1.66666,4.16667 3.33333,5.66667 1.66667,1.45833 5.08333,2.20833 v 2.29167 h -24.74999 v -2.29167 q 3.20833,-0.33333 4.79167,-1 1.625,-0.66666 1.625,-2.58333 0,-1.66667 -1.20834,-4.375 z m -23.37499,-14.58333 h 17.66666 l -8.87499,-22.45832 z m 27.16666,13.04167 -14.875,-37.70832 q -1.08333,-2.83333 -2.25,-4 -1.16666,-1.20833 -3.20833,-1.20833 -1.20833,0 -1.95833,0.16666 2,0.79167 3,2.20834 1.04167,1.41666 1.95833,3.79166 l 14.75,37.70832 q 1.37499,3.33333 1.37499,5.20833 0,1.20833 -0.45833,1.75 -0.45833,0.54167 -1.83333,1.58333 h 0.91667 q 1.95833,0 2.99999,-1.04166 1.08334,-1.04167 1.08334,-2.45834 0,-2.04166 -1.5,-5.99999 z m -40.12499,9.49999 h 8 q -2.625,-2.04166 -2.625,-5.125 0,-0.875 0.0833,-1.375 -1.125,2.08334 -2.29167,3.54167 -1.125,1.45833 -3.16667,2.95833 z"
           id="path463" /><path
           d="M 450.90038,339.40314 H 422.0254 v -2.29167 q 4.04166,-0.0833 5.99999,-0.625 1.95834,-0.58333 2.66667,-2.04166 0.75,-1.45834 0.75,-4.58334 v -38.91665 q 0,-3.33333 -0.625,-4.95833 -0.625,-1.625 -2.58333,-2.29166 -1.91667,-0.66667 -6.20833,-0.79167 v -2.29166 h 32.87498 q 6.20833,0 10.83333,2.16666 4.66667,2.125 7,5.70833 2.375,3.54167 2.375,7.66667 0,2.70833 -1.08334,5.29166 -1.08333,2.54167 -3.12499,4.625 -2.04167,2.08333 -4.95834,3.58333 -2.87499,1.45833 -6.70833,2.08333 2.875,2.875 7.08333,8.125 l 4.125,4.875 q 0.33334,0.375 0.83334,0.95833 0.5,0.54167 1.29166,1.41667 2,2.41666 3.375,3.99999 1.375,1.54167 2.70833,2.79167 1.375,1.25 2.66667,2.04167 1.29166,0.75 2.75,1.16666 v 2.29167 h -7.83333 q -2.66667,0 -5.04167,-1.16667 -2.375,-1.20833 -4.58333,-3.375 -2.16666,-2.16666 -4.95833,-5.70833 l -5.83333,-7.41666 q -4.04167,-5.25 -6.04167,-7.25 -1.95833,-2.04166 -3.41666,-2.04166 h -4.625 v 17.66665 q 0,2.625 0.66667,4.125 0.66666,1.5 2.91666,2.16667 1.20834,0.33333 2.95834,0.54166 1.74999,0.20834 2.62499,0.16667 z m -18.12499,-48.79165 v 41.12498 q 0,3.91667 -2.875,5.375 5.45833,-0.125 5.45833,-4.20833 v -42.04165 q 0,-3.20833 -0.375,-4.83333 -0.33333,-1.66667 -1.62499,-2.45833 -1.25,-0.79167 -3.875,-0.66667 2.16666,0.95833 2.70833,2.54167 0.58333,1.54166 0.58333,5.16666 z m 8.95833,0.75 v 18.79166 h 6.75 q 3.41666,0 6.75,-1.08333 3.33333,-1.125 5.04166,-2.79167 3.41667,-3.20833 3.41667,-9.79166 0,-7.79166 -5.29167,-11.45833 -1.875,-1.29167 -3.91666,-1.70833 -2.04167,-0.41667 -5.20833,-0.41667 -3.20834,0 -4.875,0.875 -1.625,0.83333 -2.16667,2.58333 -0.5,1.70834 -0.5,5 z m 10.875,21.08333 h -3.41667 q 1.5,1.12499 3.45833,3.37499 2,2.25 5,6.08333 3,3.83334 6.04167,7.79167 2.79166,3.54166 5.16666,5.45833 2.375,1.875 4.20833,2.41666 1.83333,0.54167 3.91667,0.625 -2.58334,-1.25 -4.95833,-3.41666 -2.375,-2.20833 -5.125,-5.54167 -2.70833,-3.37499 -5.625,-7.08333 -2.875,-3.70833 -5.95833,-6.99999 -0.41667,-0.58334 -1.04167,-1.29167 -0.58333,-0.75 -1.66666,-1.41666 z m 3.66666,-2.5 q 5.58333,-0.70834 8.58333,-4.16667 3,-3.45833 3,-9.37499 0,-5.75 -2.66666,-9.125 -2.66667,-3.41667 -7.58334,-4.125 3.75,1.91667 5.58334,5.16667 1.875,3.20833 1.875,8.58332 0,5.66667 -2.20834,8.5 -2.16666,2.83333 -6.58333,4.54167 z"
           id="path465" /><path
           d="m 542.8587,279.81983 0.70833,18.37499 h -2.25 q -1.91667,-3.91666 -4.33333,-7 -2.41667,-3.08333 -5,-5.04166 -2.58333,-2 -5.41666,-2.95833 -2.83334,-0.95834 -5.875,-0.95834 -5.75,0 -10.25,3.54167 -4.49999,3.54166 -6.99999,9.83333 -2.45834,6.29166 -2.45834,14.41666 0,8.08333 2.70834,14.41666 2.75,6.33333 7.37499,9.83333 4.66667,3.5 10.125,3.5 3.20833,0 5.95833,-1.25 2.79167,-1.25 4.20833,-3.25 1.125,-1.54167 1.45833,-3.33333 0.33334,-1.79167 0.33334,-4.45833 0,-4.20834 -0.45834,-5.875 -0.41666,-1.70833 -2.08333,-2.375 -1.66666,-0.70833 -5.75,-1.04167 v -2.375 h 27.04166 v 2.375 q -4.125,0.33334 -5.75,1 -1.58333,0.625 -2.125,2.33334 -0.54166,1.66666 -0.54166,5.70833 v 9.29166 q -3.45834,1.79167 -7.45833,3.16666 -3.95834,1.33334 -8.04167,2.08334 -4.04166,0.75 -7.99999,0.75 -7.29167,0 -13.16666,-2.33334 -5.875,-2.33333 -9.875,-6.54166 -4,-4.20833 -6.04166,-9.70833 -2.04167,-5.5 -2.04167,-11.54166 0,-5.91666 2,-11.54166 2.04166,-5.625 5.83333,-9.95833 3.79166,-4.375 9.125,-6.875 5.33333,-2.54166 11.70832,-2.54166 4.29167,0 9.875,1.20833 5.625,1.20833 7.04166,1.20833 3.875,0 5.375,-2.08333 z m -4,11.20833 -0.58333,-7.58333 q -1.875,0.75 -3.08334,0.75 -0.91666,0 -1.66666,-0.0833 -0.75,-0.125 -1.66667,-0.33333 -0.91666,-0.25 -1.29166,-0.33333 4.24999,2.58333 8.29166,7.58333 z m -4.33333,31.45832 v 5.5 q 0,2.54166 -1.33334,5.04166 -1.33333,2.45833 -4.33333,4.08333 3.29167,-0.70833 5.08333,-2 1.83334,-1.33333 2.58334,-3.41666 0.79166,-2.08334 0.79166,-5.41667 0,-4.125 -0.33333,-5.91666 -0.29167,-1.83333 -1.58333,-2.83333 -1.25,-1.04167 -4.04167,-1.33334 1.54167,1.125 2.33333,2.45834 0.83334,1.29166 0.83334,3.83333 z m -20.41666,16.58332 q -4.125,-1.83333 -7,-3.58333 -2.875,-1.79166 -5.875,-4.95833 -3.95833,-4.25 -6.12499,-9.625 -2.16667,-5.41666 -2.16667,-10.74999 0,-6.20833 2.75,-12.5 2.79167,-6.29166 7.58333,-10.83332 2.375,-2.20834 4.45833,-3.375 2.125,-1.20834 5,-2.5 -3,0.58333 -4.75,1.29166 -3.625,1.41667 -6.83333,4.16667 -3.16666,2.70833 -5.70833,6.625 -2.54167,3.87499 -3.875,8.24999 -1.33333,4.33333 -1.33333,8.95833 0,5.83333 2.16666,11.54166 2.20834,5.66667 6.08334,9.58333 2.37499,2.33334 4.83333,3.79167 2.45833,1.41667 4.79166,2.25 2.375,0.79166 6,1.66666 z"
           id="path467" /><path
           d="m 556.52534,280.6115 h 27.74998 v 2.29166 q -3.91666,0.0833 -6.08333,1.04167 -2.125,0.91666 -2.29166,3.75 -0.0833,1.74999 -0.16667,2.79166 -0.0833,1 -0.0833,0.875 v 38.41665 q 0,2.45833 0.5,3.91667 0.54166,1.45833 1.5,2.08333 0.95833,0.625 2.20833,0.875 1.25,0.20833 4.41666,0.45833 v 2.29167 h -27.74998 v -2.29167 q 3.70833,-0.0417 5.58333,-0.75 1.91666,-0.75 2.45833,-2.33333 0.58333,-1.625 0.58333,-5.125 v -37.20832 q 0,-3.33333 -0.33333,-4.91666 -0.29167,-1.625 -1.16667,-2.33333 -0.875,-0.70834 -2.375,-0.95834 -1.45833,-0.29166 -4.74999,-0.58333 z m 9.99999,9.87499 v 41.49998 q 0,2.125 -0.75,3.125 -0.75,1 -2.58333,2 2.70833,-0.0833 4.375,-0.875 1.66666,-0.83333 1.66666,-3.58333 v -44.20831 q 0,-2.83334 -1.16666,-4.25 -1.16667,-1.41667 -4.625,-1.29167 3.16666,1.66667 3.16666,6.33333 0,0.33333 -0.0417,0.625 0,0.29167 -0.0417,0.625 z"
           id="path469" /><path
           d="m 629.27532,329.15314 -4.66667,-11.91666 h -19.70832 l -2.75,7.08333 q -1.08333,2.70833 -1.08333,5.625 0,2.79166 1.75,4.91666 1.79166,2.125 4.95833,2.25 v 2.29167 h -19.29166 v -2.29167 q 6.45833,-0.95833 10.41666,-11.12499 l 14.41666,-36.91666 q -1.125,-1.95833 -2.375,-2.62499 -1.25,-0.70834 -3.66666,-0.95834 v -2.04166 l 9.99999,-3.41667 h 3.83334 l 19.29165,49.20831 q 1.66667,4.16667 3.33334,5.66667 1.66666,1.45833 5.08333,2.20833 v 2.29167 h -24.74999 v -2.29167 q 3.20833,-0.33333 4.79166,-1 1.625,-0.66666 1.625,-2.58333 0,-1.66667 -1.20833,-4.375 z m -23.37499,-14.58333 h 17.66666 l -8.875,-22.45832 z m 27.16665,13.04167 -14.87499,-37.70832 q -1.08333,-2.83333 -2.25,-4 -1.16666,-1.20833 -3.20833,-1.20833 -1.20833,0 -1.95833,0.16666 2,0.79167 3,2.20834 1.04166,1.41666 1.95833,3.79166 l 14.74999,37.70832 q 1.375,3.33333 1.375,5.20833 0,1.20833 -0.45833,1.75 -0.45833,0.54167 -1.83333,1.58333 h 0.91666 q 1.95833,0 3,-1.04166 1.08333,-1.04167 1.08333,-2.45834 0,-2.04166 -1.5,-5.99999 z m -40.12498,9.49999 h 8 q -2.625,-2.04166 -2.625,-5.125 0,-0.875 0.0833,-1.375 -1.125,2.08334 -2.29166,3.54167 -1.125,1.45833 -3.16667,2.95833 z"
           id="path471" /><path
           d="m 294.27545,419.36145 v 17.66666 q 0,2.5 0.70833,3.87499 0.75,1.33334 2,1.91667 1.25,0.54167 3.54167,0.70833 2.29166,0.16667 4.25,0.25 v 2.29167 h -30.29166 v -2.29167 q 3.375,-0.0833 5.04167,-0.375 1.70833,-0.29166 2.66666,-1.125 1,-0.83333 1.33334,-2.125 0.375,-1.33333 0.375,-3.62499 v -36.70832 q 0,-4.58333 -0.41667,-6.5 -0.375,-1.91666 -2.375,-2.83333 -1.95833,-0.91667 -6.625,-0.91667 v -2.29166 h 28.66666 q 1.91666,0 9.16666,0.66666 2.33333,0.20834 4.95833,1.375 2.66667,1.16667 4.95833,3.20833 2.33333,2 3.75,4.79167 1.41667,2.75 1.41667,6 0,3.625 -1.45834,6.54166 -1.41666,2.91667 -4.41666,5.04167 -2.95833,2.12499 -7.5,3.29166 -4.5,1.16667 -10.49999,1.16667 z m -9.04166,-20.04166 v 39.16665 q 0,3.95833 -3.04167,5.29166 h 1.08334 q 4.62499,0 4.62499,-4.37499 v -38.12499 q 0,-5.125 -0.0833,-6.70833 -0.0417,-1.58333 -0.54167,-2.70833 -0.45833,-1.125 -1.70833,-1.625 -1.20833,-0.54167 -3.75,-0.75 1.66667,0.79167 2.33333,1.79167 0.66667,0.99999 0.875,2.83333 0.20834,1.83333 0.20834,5.20833 z m 9.04166,17.74999 h 5.83333 q 5.29167,0 8.79166,-1.25 3.5,-1.29166 5.375,-4.29166 1.875,-3.04167 1.875,-8.125 0,-7.625 -5.125,-11.41666 -2.04166,-1.5 -4.12499,-1.95833 -2.08334,-0.45834 -5.16667,-0.45834 -3.54166,0 -5.125,1 -1.54166,1 -1.95833,3 -0.375,2 -0.375,5.91667 z m 15.95833,-0.45833 q 5,-0.75 7.45833,-3.95833 2.45833,-3.20834 2.45833,-9.08333 0,-6.20833 -2.5,-9.29167 -2.5,-3.12499 -7.5,-4.16666 2.375,1.20833 4.04167,3.16666 1.66667,1.95834 2.5,4.58334 0.83333,2.62499 0.83333,5.70833 0,9.91666 -7.29166,13.04166 z"
           id="path473" /><path
           d="m 334.3171,387.27813 h 27.74999 v 2.29166 q -3.91667,0.0833 -6.08333,1.04167 -2.125,0.91667 -2.29167,3.75 -0.0833,1.75 -0.16666,2.79166 -0.0833,1 -0.0833,0.875 v 38.41665 q 0,2.45834 0.5,3.91667 0.54167,1.45833 1.5,2.08333 0.95834,0.625 2.20833,0.875 1.25,0.20833 4.41667,0.45833 v 2.29167 H 334.3171 v -2.29167 q 3.70833,-0.0417 5.58333,-0.75 1.91667,-0.75 2.45833,-2.33333 0.58334,-1.625 0.58334,-5.125 v -37.20831 q 0,-3.33334 -0.33334,-4.91667 -0.29166,-1.625 -1.16666,-2.33333 -0.875,-0.70833 -2.375,-0.95833 -1.45833,-0.29167 -4.75,-0.58334 z m 10,9.87499 v 41.49999 q 0,2.12499 -0.75,3.12499 -0.75,1 -2.58334,2 2.70834,-0.0833 4.375,-0.875 1.66667,-0.83333 1.66667,-3.58333 v -44.20831 q 0,-2.83334 -1.16667,-4.25 -1.16666,-1.41667 -4.625,-1.29167 3.16667,1.66667 3.16667,6.33333 0,0.33334 -0.0417,0.625 0,0.29167 -0.0417,0.625 z"
           id="path475" /><path
           d="m 406.73374,387.27813 h 23.04166 v 2.29166 q -4.25,0.29167 -8.20833,3.29167 -3.91667,3 -9.375,9.49999 l -9.04166,10.875 14.87499,19.41666 q 3.75,4.95833 5.16667,6.66666 1.45833,1.66667 3.75,3.04167 2.33333,1.375 5.41666,1.41666 v 2.29167 h -30.04165 v -2.29167 h 1 q 3.04166,0 4.49999,-1 1.5,-1 1.5,-2.33333 0,-1.58333 -1.29166,-3.58333 -1.25,-2.04167 -3.5,-4.95833 l -8.04167,-10.58333 -7.99999,9.45833 q -2.29167,2.70833 -3.33333,4.58333 -1,1.875 -1,3.625 0,2.33333 1.70833,3.45833 1.70833,1.125 4.91666,1.33333 v 2.29167 h -23.29165 v -2.29167 h 0.5 q 1.91666,0 4.62499,-1.33333 2.70834,-1.375 6.16667,-4.375 3.45833,-3 6.95833,-7.29166 l 9.41666,-11.33333 -15.29166,-20.04166 q -3.29166,-4.375 -5,-6.29166 -1.70833,-1.91667 -3.41666,-2.70833 -1.70833,-0.79167 -4.375,-0.83334 v -2.29166 h 28.58332 v 2.29166 h -3 q -1.70833,0 -2.91666,0.75 -1.16667,0.70834 -1.16667,2 0,1.04167 0.54167,2.04167 0.54166,0.95833 1.91666,2.79166 l 10.66667,14.16666 7.70833,-9.29166 q 3.99999,-4.79166 3.99999,-7.83333 0,-1.83333 -1.70833,-3.16666 -1.70833,-1.33334 -4.95833,-1.45834 z m 14.41666,2.29166 h -8.95833 q 2.58333,1.54167 2.58333,4.375 0,0.75 -0.0833,1.25 2.41667,-3.625 6.45833,-5.625 z m -12.95833,40.45832 -26.70832,-35.16665 q -1.91666,-2.45834 -2.91666,-3.375 -0.95834,-0.95833 -2.41667,-1.45833 -1.41667,-0.5 -3.79167,-0.54167 1.54167,0.58333 3.20834,2.29167 1.70833,1.66666 4.20833,4.95833 l 27.99999,37.29165 q 2.875,3.91666 2.875,6.33333 0,1.70833 -2.20834,3.41666 2.5,0.0417 3.79167,-0.95833 1.33333,-1 1.33333,-2.70833 0,-1.79167 -1.29167,-4.08333 -1.24999,-2.33334 -4.08333,-6 z m -35.08332,13.74999 h 10.16667 q -2.375,-1.375 -2.375,-3.83333 0,-1.29166 0.66666,-2.83333 -1.625,1.70833 -2.37499,2.45833 -0.75,0.75 -2.375,1.91667 -1.58334,1.125 -3.70834,2.29166 z"
           id="path477" /><path
           d="m 455.44206,416.98645 v 18.33332 q 0,3.04167 0.41666,4.75 0.45834,1.66667 1.625,2.5 1.16667,0.79167 3.33333,1 2.20834,0.20833 6,0.20833 4.58333,0 8.20833,-1.375 3.66667,-1.41666 6.875,-4.12499 3.25,-2.75 7.08333,-7.29167 h 3.33333 l -5.20833,15.08333 h -51.29165 v -2.29167 q 3.70834,-0.0833 5.625,-0.625 1.95833,-0.58333 2.75,-1.875 0.83333,-1.33333 0.83333,-3.74999 v -41.20832 q 0,-2.91667 -0.75,-4.25 -0.75,-1.33333 -2.54166,-1.79166 -1.79167,-0.5 -5.91667,-0.70834 v -2.29166 h 49.24998 l 5.04167,13.29166 h -3 q -2.41667,-3.04167 -5.91666,-5.5 -3.45834,-2.5 -7.79167,-4 -4.29166,-1.5 -9.08333,-1.5 -3.79166,0 -5.70833,0.83334 -1.91666,0.79166 -2.54166,2.24999 -0.625,1.45834 -0.625,3.83334 v 18.16666 h 8.37499 q 10.95833,0 11.08333,-10.04167 h 2.91667 v 22.08333 h -2.58333 q -0.5,-5.08333 -2.875,-7.375 -2.33334,-2.33333 -7.16667,-2.33333 z m 27.49999,26.79165 2.87499,-7.24999 q -2.45833,2.66666 -4.45833,3.99999 -2,1.29167 -5.66666,3.25 z m -8.54167,-24.08332 v -8.16666 q -1.625,2.79166 -5.91666,4.08333 2.29166,0.625 3.625,1.5 1.33333,0.875 2.29166,2.58333 z m 6.75,-30.12499 h -7.54166 q 3.12499,1.04167 5.54166,2.5 2.41667,1.45833 5.125,3.5 z m -34.74999,7.08333 v 40.29165 q 0,3.04167 -0.70833,4.45833 -0.70833,1.41667 -2.125,2.375 3.45833,-0.0417 4.45833,-1.79166 1.04167,-1.79167 1.04167,-5.75 v -40.33332 q 0,-3.54166 -1.20833,-4.66666 -1.20834,-1.16667 -4.29167,-1.25 1.54167,0.83333 2.16667,2.25 0.66666,1.375 0.66666,4.41666 z"
           id="path479" /><path
           d="m 495.98371,389.56979 v -2.29166 h 28.95832 v 2.29166 h -1.29166 q -3.25,0 -5,0.58334 -1.70833,0.58333 -2.41667,2.16666 -0.70833,1.54167 -0.70833,4.41667 v 40.79165 q 0,2.37499 0.79167,3.70833 0.83333,1.29166 2.95833,1.91666 2.125,0.625 6,0.625 3.29166,0 6.04166,-0.54166 2.75,-0.54167 5.45833,-1.91667 2.70833,-1.375 5.58333,-3.91666 2.875,-2.54167 5.79167,-6.33333 h 3.83333 l -5.54167,14.99999 h -50.45831 v -2.29167 h 0.54167 q 3.75,0 5.54166,-0.66666 1.79167,-0.70834 2.41667,-2.16667 0.66666,-1.5 0.66666,-4.16666 v -39.41665 q 0,-3.125 -0.58333,-4.70834 -0.54167,-1.58333 -2.54166,-2.33333 -1.95834,-0.75 -6.04167,-0.75 z m 10.5,6.41667 v 42.66665 q 0,2.04166 -0.75,3.16666 -0.70834,1.125 -2.20834,1.95833 0.16667,0 0.70834,0.0833 0.54166,0.0833 0.70833,0.0833 4.20833,0 4.20833,-6.08333 v -39.99998 q 0,-4.20834 -0.66666,-6.25 -0.625,-2.04167 -3.70834,-2.04167 h -1.25 q 1.70834,1 2.33334,2.16667 0.625,1.16666 0.625,4.25 z m 28.24998,47.79164 h 7.625 l 3.58333,-8.20833 q -2.375,2.83334 -5.08333,4.83333 -2.66666,1.95834 -6.125,3.375 z"
           id="path481" /><path
           d="m 558.48369,424.90311 h 2.75 q 2.29166,6.58333 5.5,11.08333 3.24999,4.45833 7.04166,6.625 3.83333,2.16666 8,2.16666 5.20833,0 8.91666,-3.25 3.70833,-3.24999 3.70833,-8.33333 0,-4.74999 -2.45833,-7.37499 -2.45833,-2.66667 -5.875,-3.70833 -3.41666,-1.08334 -9,-2 -5.58333,-0.91667 -7.91666,-1.70834 -3.625,-1.25 -6.16666,-3.41666 -2.54167,-2.20833 -3.875,-5.25 -1.29167,-3.08333 -1.29167,-6.58333 0,-3.33333 1.16667,-6.41666 1.16667,-3.08334 3.29166,-5.45833 2.125,-2.375 5.16667,-3.75 3.08333,-1.375 6.83333,-1.375 2.70833,0 6.625,0.79166 3.95833,0.75 5.74999,0.75 2.25,0 4.25,-1 h 3.16667 l 1.79166,17.125 h -2.91666 q -4.08333,-7.66667 -8.58333,-11.66667 -4.45833,-4.04166 -10.5,-4.04166 -3,0 -5.58333,1.41667 -2.58333,1.375 -4.16666,3.83333 -1.54167,2.45833 -1.54167,5.41666 0,4.16667 2.83333,6.375 2.83334,2.20833 8.375,3.33333 5.58333,1.125 9.95833,1.91667 4.41666,0.79166 7,2.04166 4.74999,2.33334 7.37499,6.45833 2.625,4.125 2.625,9.33333 0,5 -2.41666,9.33333 -2.41667,4.33333 -6.79167,6.95833 -4.375,2.58334 -9.74999,2.58334 -3.04167,0 -4.58334,-0.45834 -1.54166,-0.45833 -5.29166,-1.79166 -3.75,-1.33334 -5.75,-1.33334 -3.33333,0 -5.29166,2.54167 h -2.375 z m 32.79165,-26.95832 -1.375,-7.95833 q -1.375,0.45833 -2.75,0.45833 -1.5,0 -3.24999,-0.45833 1.66666,1.08333 2.91666,2.41666 1.25,1.33334 2.625,3.20834 1.375,1.875 1.83333,2.33333 z m -31.41665,34.70832 v 11.12499 q 1.20833,-1.58333 2.20833,-2.04166 1.04167,-0.45834 3.16667,-0.375 -1.375,-1.625 -2,-2.375 -0.58334,-0.79167 -1.5,-2.29167 -0.875,-1.54166 -1.875,-4.04166 z m 0,-34.37499 q -0.70833,3.16667 -0.70833,5.125 0,2.20833 0.75,4.45833 0.75,2.20833 2.20833,4.20833 1.45833,1.95834 3.29166,3.20834 2.45834,1.66666 5.41667,2.37499 2.95833,0.66667 8.62499,1.625 5.70833,0.91667 7.875,1.79167 4,1.45833 6.20833,4.45833 2.25,3 2.25,7.04166 0,3 -1.70833,6.33334 3.41666,-3.54167 3.41666,-8.29167 0,-4.91666 -2.54166,-7.70833 -2.5,-2.83333 -6.25,-4.16666 -3.70833,-1.375 -10.16666,-2.5 -6.45833,-1.16667 -6.625,-1.20833 -5.91666,-1.54167 -9,-5.33334 -3.04166,-3.79166 -3.04166,-8.74999 0,-0.91667 -0.0417,-1.54167 0,-0.625 0.0417,-1.125 z"
           id="path483" /></g><text
         xml:space="preserve"
         style="font-style:normal;font-variant:normal;font-weight:normal;font-stretch:normal;font-size:85.3333px;font-family:'Imprint MT Shadow';-inkscape-font-specification:'Imprint MT Shadow, Normal';font-variant-ligatures:normal;font-variant-caps:normal;font-variant-numeric:normal;font-variant-east-asian:normal;text-align:center;text-anchor:middle;white-space:pre;inline-size:618.793;display:none;fill:#924f0d;fill-opacity:1;stroke:#000000;stroke-width:0.4;stroke-linecap:round;stroke-dasharray:none;stroke-opacity:1;paint-order:fill markers stroke;filter:url(#filter3571)"
         x="438.33881"
         y="339.40314"
         id="text457"
         inkscape:label="text-copy" /></g></g></svg>
