<?xml version="1.0" encoding="UTF-8" standalone="no"?>
<!-- Created with Inkscape (http://www.inkscape.org/) -->

<svg
   width="600"
   height="192.85715"
   viewBox="0 0 150 48.214287"
   version="1.1"
   id="svg5"
   xml:space="preserve"
   inkscape:version="1.2.2 (732a01da63, 2022-12-09)"
   sodipodi:docname="Nora_sticker.svg"
   inkscape:export-filename="Nora_sticker.png"
   inkscape:export-xdpi="500"
   inkscape:export-ydpi="500"
   xmlns:inkscape="http://www.inkscape.org/namespaces/inkscape"
   xmlns:sodipodi="http://sodipodi.sourceforge.net/DTD/sodipodi-0.dtd"
   xmlns:xlink="http://www.w3.org/1999/xlink"
   xmlns="http://www.w3.org/2000/svg"
   xmlns:svg="http://www.w3.org/2000/svg"><sodipodi:namedview
     id="namedview7"
     pagecolor="#505050"
     bordercolor="#ffffff"
     borderopacity="1"
     inkscape:showpageshadow="0"
     inkscape:pageopacity="0"
     inkscape:pagecheckerboard="1"
     inkscape:deskcolor="#505050"
     inkscape:document-units="px"
     showgrid="true"
     showguides="true"
     inkscape:zoom="2"
     inkscape:cx="288.5"
     inkscape:cy="114"
     inkscape:window-width="1920"
     inkscape:window-height="1057"
     inkscape:window-x="-8"
     inkscape:window-y="-8"
     inkscape:window-maximized="1"
     inkscape:current-layer="layer1"><inkscape:grid
       type="axonomgrid"
       id="grid132"
       originx="0"
       originy="0" /><sodipodi:guide
       position="158.74999,-2.5357134"
       orientation="1,0"
       id="guide44858"
       inkscape:locked="false" /></sodipodi:namedview><defs
     id="defs2"><linearGradient
       inkscape:collect="always"
       id="linearGradient43866"><stop
         style="stop-color:#7c74ff;stop-opacity:1;"
         offset="0.47816095"
         id="stop43862" /><stop
         style="stop-color:#b3b3ff;stop-opacity:1;"
         offset="1"
         id="stop43864" /></linearGradient><linearGradient
       id="linearGradient43492"
       inkscape:swatch="solid"><stop
         style="stop-color:#8ae800;stop-opacity:1;"
         offset="0"
         id="stop43490" /></linearGradient><linearGradient
       inkscape:collect="always"
       id="linearGradient13394"><stop
         style="stop-color:#fbbc4e;stop-opacity:1;"
         offset="0.20459771"
         id="stop13390" /><stop
         style="stop-color:#fccb85;stop-opacity:1;"
         offset="0.63793099"
         id="stop13398" /><stop
         style="stop-color:#fee0b2;stop-opacity:1;"
         offset="1"
         id="stop13392" /></linearGradient><linearGradient
       id="linearGradient5624"
       inkscape:swatch="solid"><stop
         style="stop-color:#e1ca47;stop-opacity:1;"
         offset="0"
         id="stop5622" /></linearGradient><inkscape:path-effect
       effect="bspline"
       id="path-effect4991"
       is_visible="true"
       lpeversion="1"
       weight="33.333333"
       steps="2"
       helper_size="0"
       apply_no_weight="true"
       apply_with_weight="true"
       only_selected="false" /><inkscape:path-effect
       effect="spiro"
       id="path-effect4987"
       is_visible="true"
       lpeversion="1" /><inkscape:path-effect
       effect="spiro"
       id="path-effect4983"
       is_visible="true"
       lpeversion="1" /><inkscape:path-effect
       effect="spiro"
       id="path-effect4979"
       is_visible="true"
       lpeversion="1" /><inkscape:path-effect
       effect="spiro"
       id="path-effect4975"
       is_visible="true"
       lpeversion="1" /><inkscape:path-effect
       effect="spiro"
       id="path-effect4971"
       is_visible="true"
       lpeversion="1" /><inkscape:path-effect
       effect="spiro"
       id="path-effect4967"
       is_visible="true"
       lpeversion="1" /><inkscape:path-effect
       effect="spiro"
       id="path-effect4963"
       is_visible="true"
       lpeversion="1" /><inkscape:path-effect
       effect="spiro"
       id="path-effect4959"
       is_visible="true"
       lpeversion="1" /><inkscape:path-effect
       effect="spiro"
       id="path-effect4955"
       is_visible="true"
       lpeversion="1" /><inkscape:path-effect
       effect="spiro"
       id="path-effect4951"
       is_visible="true"
       lpeversion="1" /><inkscape:path-effect
       effect="spiro"
       id="path-effect4947"
       is_visible="true"
       lpeversion="1" /><inkscape:path-effect
       effect="spiro"
       id="path-effect4943"
       is_visible="true"
       lpeversion="1" /><inkscape:path-effect
       effect="spiro"
       id="path-effect4939"
       is_visible="true"
       lpeversion="1" /><inkscape:path-effect
       effect="spiro"
       id="path-effect4935"
       is_visible="true"
       lpeversion="1" /><inkscape:path-effect
       effect="spiro"
       id="path-effect4931"
       is_visible="true"
       lpeversion="1" /><inkscape:path-effect
       effect="spiro"
       id="path-effect4927"
       is_visible="true"
       lpeversion="1" /><inkscape:path-effect
       effect="spiro"
       id="path-effect4923"
       is_visible="true"
       lpeversion="1" /><inkscape:path-effect
       effect="spiro"
       id="path-effect4919"
       is_visible="true"
       lpeversion="1" /><inkscape:path-effect
       effect="spiro"
       id="path-effect4915"
       is_visible="true"
       lpeversion="1" /><inkscape:path-effect
       effect="spiro"
       id="path-effect4911"
       is_visible="true"
       lpeversion="1" /><inkscape:path-effect
       effect="spiro"
       id="path-effect4181"
       is_visible="true"
       lpeversion="1" /><inkscape:path-effect
       effect="spiro"
       id="path-effect3853"
       is_visible="true"
       lpeversion="1" /><inkscape:path-effect
       effect="spiro"
       id="path-effect3633"
       is_visible="true"
       lpeversion="1" /><inkscape:path-effect
       effect="spiro"
       id="path-effect3575"
       is_visible="true"
       lpeversion="1" /><filter
       style="color-interpolation-filters:sRGB"
       inkscape:label="Drop Shadow"
       id="filter2444"
       x="-0.011385176"
       y="-0.037137359"
       width="1.0202892"
       height="1.2614236"><feFlood
         flood-opacity="1"
         flood-color="rgb(0,0,0)"
         result="flood"
         id="feFlood2434" /><feComposite
         in="flood"
         in2="SourceGraphic"
         operator="in"
         result="composite1"
         id="feComposite2436" /><feGaussianBlur
         in="composite1"
         stdDeviation="0"
         result="blur"
         id="feGaussianBlur2438" /><feOffset
         dx="-0.221184"
         dy="4"
         result="offset"
         id="feOffset2440" /><feComposite
         in="SourceGraphic"
         in2="offset"
         operator="over"
         result="composite2"
         id="feComposite2442" /></filter><filter
       style="color-interpolation-filters:sRGB"
       inkscape:label="Drop Shadow"
       id="filter2616"
       x="-0.010731622"
       y="-0.038580141"
       width="1.0214632"
       height="1.2715799"><feFlood
         flood-opacity="1"
         flood-color="rgb(0,0,0)"
         result="flood"
         id="feFlood2606" /><feComposite
         in="flood"
         in2="SourceGraphic"
         operator="in"
         result="composite1"
         id="feComposite2608" /><feGaussianBlur
         in="composite1"
         stdDeviation="0"
         result="blur"
         id="feGaussianBlur2610" /><feOffset
         dx="0"
         dy="4"
         result="offset"
         id="feOffset2612" /><feComposite
         in="SourceGraphic"
         in2="offset"
         operator="over"
         result="composite2"
         id="feComposite2614" /></filter><clipPath
       clipPathUnits="userSpaceOnUse"
       id="clipEmfPath1"><path
         d="M 0,0 H 236.57323 V 35.124409 H 0 Z"
         id="path2725" /></clipPath><pattern
       id="EMFhbasepattern"
       patternUnits="userSpaceOnUse"
       width="6"
       height="6"
       x="0"
       y="0" /><clipPath
       clipPathUnits="userSpaceOnUse"
       id="clipEmfPath1-8"><path
         d="M 0,0 H 236.57323 V 35.124409 H 0 Z"
         id="path2744" /></clipPath><pattern
       id="EMFhbasepattern-2"
       patternUnits="userSpaceOnUse"
       width="6"
       height="6"
       x="0"
       y="0" /><radialGradient
       inkscape:collect="always"
       xlink:href="#linearGradient13394"
       id="radialGradient13396"
       cx="58.579407"
       cy="28.040501"
       fx="58.579407"
       fy="28.040501"
       r="16.101444"
       gradientTransform="matrix(1.3525357,0,0,1.261225,-51.780189,-15.199492)"
       gradientUnits="userSpaceOnUse" /><radialGradient
       inkscape:collect="always"
       xlink:href="#linearGradient43866"
       id="radialGradient43868"
       cx="223.95085"
       cy="113.6533"
       fx="223.95085"
       fy="113.6533"
       r="14.549168"
       gradientTransform="matrix(0.35785842,0,0,0.32531719,-51.780189,-14.559154)"
       gradientUnits="userSpaceOnUse" /><filter
       style="color-interpolation-filters:sRGB"
       inkscape:label="Drop Shadow"
       id="filter44844"
       x="-0.0011105391"
       y="-0.018580633"
       width="1.005952"
       height="1.2556422"><feFlood
         flood-opacity="1"
         flood-color="rgb(0,0,0)"
         result="flood"
         id="feFlood44834" /><feComposite
         in="flood"
         in2="SourceGraphic"
         operator="in"
         result="composite1"
         id="feComposite44836" /><feGaussianBlur
         in="composite1"
         stdDeviation="0"
         result="blur"
         id="feGaussianBlur44838" /><feOffset
         dx="0.2"
         dy="0.7"
         result="offset"
         id="feOffset44840" /><feComposite
         in="SourceGraphic"
         in2="offset"
         operator="over"
         result="fbSourceGraphic"
         id="feComposite44842" /><feColorMatrix
         result="fbSourceGraphicAlpha"
         in="fbSourceGraphic"
         values="0 0 0 -1 0 0 0 0 -1 0 0 0 0 -1 0 0 0 0 1 0"
         id="feColorMatrix44846" /><feFlood
         id="feFlood44848"
         flood-opacity="1"
         flood-color="rgb(0,0,0)"
         result="flood"
         in="fbSourceGraphic" /><feComposite
         in2="fbSourceGraphic"
         id="feComposite44850"
         in="flood"
         operator="in"
         result="composite1" /><feGaussianBlur
         id="feGaussianBlur44852"
         in="composite1"
         stdDeviation="0"
         result="blur" /><feOffset
         id="feOffset44854"
         dx="0.2"
         dy="0.7"
         result="offset" /><feComposite
         in2="offset"
         id="feComposite44856"
         in="fbSourceGraphic"
         operator="over"
         result="composite2" /></filter></defs><g
     inkscape:label="Layer 1"
     inkscape:groupmode="layer"
     id="layer1"
     style="display:inline"><rect
       style="display:inline;fill:#202020;fill-opacity:1;stroke:#000000;stroke-width:2.95623;stroke-linecap:round;stroke-linejoin:bevel;stroke-dasharray:none;stroke-opacity:1;paint-order:fill markers stroke"
       id="rect43922"
       width="145.06546"
       height="42.116379"
       x="2.4672701"
       y="3.048954" /><text
       xml:space="preserve"
       style="font-style:italic;font-variant:normal;font-weight:bold;font-stretch:normal;font-size:28.2223px;font-family:sans-serif;-inkscape-font-specification:'sans-serif Bold Italic';font-variant-ligatures:normal;font-variant-caps:normal;font-variant-numeric:normal;font-variant-east-asian:normal;letter-spacing:-0.642938px;word-spacing:0px;display:inline;fill:#fafdfe;fill-opacity:1;stroke:#071b1b;stroke-width:1.5875;stroke-linecap:round;stroke-linejoin:round;stroke-dasharray:none;paint-order:fill markers stroke;filter:url(#filter2616)"
       x="69.308235"
       y="39.789837"
       id="text2448"
       transform="matrix(1.3525356,0,0,1.1074037,-51.780186,-10.886267)"><tspan
         sodipodi:role="line"
         id="tspan2446"
         style="font-style:italic;font-variant:normal;font-weight:900;font-stretch:normal;font-size:28.2223px;font-family:'Cooper Std';-inkscape-font-specification:'Cooper Std, Heavy Italic';font-variant-ligatures:normal;font-variant-caps:normal;font-variant-numeric:normal;font-variant-east-asian:normal;stroke-width:1.5875"
         x="69.308235"
         y="39.789837"
         dx="0 -2.9200001 -3.3299999 -5.77"
         rotate="0 0 0 0 0"
         dy="0 0 0 0">NORA</tspan></text><text
       xml:space="preserve"
       style="font-style:normal;font-variant:normal;font-weight:normal;font-stretch:normal;font-size:7.05556px;font-family:sans-serif;-inkscape-font-specification:'sans-serif, Normal';font-variant-ligatures:normal;font-variant-caps:normal;font-variant-numeric:normal;font-variant-east-asian:normal;fill:#f9feff;fill-opacity:1;stroke:#071b1b;stroke-width:0.238125;stroke-linecap:round;stroke-linejoin:round;stroke-dasharray:none;paint-order:fill markers stroke;filter:url(#filter44844)"
       x="39.267239"
       y="49.178143"
       id="text2765"
       transform="matrix(1.3525356,0,0,1.1074037,-51.780186,-10.886267)"><tspan
         sodipodi:role="line"
         id="tspan2763"
         style="font-style:normal;font-variant:normal;font-weight:normal;font-stretch:normal;font-size:7.05556px;font-family:sans-serif;-inkscape-font-specification:'sans-serif, Normal';font-variant-ligatures:normal;font-variant-caps:normal;font-variant-numeric:normal;font-variant-east-asian:normal;fill:#f9feff;fill-opacity:1;stroke-width:0.238125;stroke-dasharray:none"
         x="39.267239"
         y="49.178143">617.642.4217 / 215.292.4172</tspan></text></g><g
     inkscape:groupmode="layer"
     id="layer3"
     inkscape:label="Layer 3"
     style="display:inline"><path
       style="fill:url(#radialGradient13396);fill-opacity:1;stroke:#000000;stroke-width:0.331905;stroke-linecap:round;stroke-linejoin:round;stroke-dasharray:none;stroke-opacity:1;paint-order:fill markers stroke"
       d="m 33.883292,40.319134 c -0.08274,-0.0259 -0.111827,-0.327135 -0.111827,-1.158269 0,-0.617804 -0.02444,-1.175422 -0.0543,-1.239147 -0.04151,-0.08856 -0.183815,-0.115427 -0.603887,-0.114006 l -0.549582,0.0018 -1.028842,0.995528 -1.028843,0.995528 -1.699828,-0.05107 C 27.172975,39.700438 25.92206,39.577776 25.40124,39.415646 l -0.246021,-0.07658 0.257365,-0.219947 c 0.387068,-0.330789 1.090322,-0.476454 1.790379,-0.370841 0.791205,0.119364 0.753308,0.13901 0.753308,-0.390532 0,-0.616058 -0.08222,-0.655656 -1.264616,-0.60904 -0.755882,0.0298 -0.956479,0.06677 -1.457302,0.268649 -0.341284,0.137561 -0.711194,0.358853 -0.897066,0.536645 -0.305879,0.292588 -0.324427,0.299139 -0.562908,0.198824 -0.445246,-0.187292 -1.753777,-1.338473 -2.155366,-1.89619 -0.858076,-1.19167 -1.300619,-2.428106 -1.298884,-3.628977 0.0015,-0.971304 0.123148,-1.507208 0.807078,-3.552633 1.032987,-3.089345 1.353922,-4.153567 1.28151,-4.249499 -0.156536,-0.207374 -0.114438,0.08389 -0.305543,0.708819 -0.108879,0.356016 -0.494692,1.659983 -0.912031,2.908898 -0.417338,1.248915 -0.716544,2.209986 -0.774245,2.5274 -0.103388,0.568714 -0.470552,0.839797 -0.997509,1.267257 -0.70337,0.570556 -1.689593,0.974069 -2.779189,1.137102 C 14.454394,34.30203 11.911703,33.474168 9.9211284,31.787358 9.2567941,31.224384 8.9734811,30.896364 8.1599404,29.748232 7.5702823,28.91606 7.1130752,28.476381 6.446524,28.100511 5.8370458,27.756825 5.8137416,27.68077 5.887375,26.275576 c 0.1188338,-2.267833 0.9932277,-4.105807 2.5351683,-5.32895 1.3978171,-1.108815 2.8647177,-1.403145 4.8932557,-0.981825 0.766286,0.159152 5.114675,1.233373 6.852409,1.820953 0.363508,0.122911 0.641011,0.417712 0.732655,0.417712 0.189454,0 0.222416,-0.165358 0.05479,-0.274888 C 20.67243,21.743508 14.4383,20.196227 13.428648,19.985571 12.534314,19.798976 11.501369,19.674073 10.934279,19.634185 L 10.444728,19.599745 9.8449374,18.970867 C 6.7443266,15.719884 5.9491723,11.346194 8.777968,7.8652957 9.7032295,6.726743 11.418159,5.5030463 13.009358,4.8459661 c 1.105029,-0.4563169 3.126928,-0.9205095 3.781526,-0.8681702 0.233449,0.01866 0.404249,0.1334909 0.90589,0.6090033 1.364116,1.2930689 2.621359,3.1218587 3.323588,4.8345097 0.534723,1.3041171 1.421398,3.8360441 2.155367,6.8474641 0.2011,0.825111 0.258824,1.529287 0.30224,1.564834 0.11479,0.09398 0.273458,-0.01041 0.273458,-0.179834 0,-0.378176 -1.486938,-5.101518 -1.989265,-6.653143 -0.123906,-0.382731 -0.353262,-1.0023675 -0.529006,-1.4402708 -0.287321,-0.7159225 -0.0877,-0.9541472 0.0051,-1.2080428 0.194754,-0.532216 0.984916,-1.714611 1.56898,-2.3478056 1.243562,-1.3481744 2.62645,-2.1727416 6.108184,-3.6420859 2.473843,-1.0440016 3.201631,-1.40350361 3.997698,-1.97473015 l 0.528464,-0.37920273 0.195505,0.23814939 c 0.892967,1.08774619 2.206394,3.22870209 2.797401,4.55990879 0.615913,1.3873145 0.774483,2.0514699 0.76952,3.2230056 -0.0038,0.8996648 0.297875,1.2617848 0.08424,1.8401418 -0.349566,0.9462714 -0.933454,1.7674424 -1.861948,2.8156864 -1.146456,1.294323 -1.574245,1.912089 -2.001031,2.609976 -0.401234,0.656105 -1.370253,1.845942 -1.298186,1.941411 0.02448,0.03242 0.114694,0.05892 0.200518,0.05892 0.115087,0 0.210192,-0.139374 0.362376,-0.531063 0.450406,-1.159273 1.195733,-2.218841 2.872575,-4.083696 0.828861,-0.921799 1.549813,-2.114189 1.8326,-3.0309616 0.122756,-0.3979707 -0.01403,-0.813369 -0.01403,-0.8835418 0,-0.2211363 0.94653,-0.2980378 2.339649,-0.2915263 1.482281,0.00697 1.664338,0.047785 4.733001,1.0620156 1.077781,0.3562213 2.547238,0.8030201 3.265459,0.9928861 0.718222,0.189866 1.314697,0.349494 1.3255,0.354729 0.01082,0.0052 -0.100197,0.262215 -0.24667,0.571065 -0.383361,0.808341 -0.509259,1.323579 -0.666273,2.726722 -0.14792,1.321883 -0.330994,2.075953 -0.720301,2.966871 -0.914214,2.092156 -2.79325,3.83294 -4.754454,4.404643 -0.360873,0.105203 -0.754153,0.153584 -1.281168,0.157629 -0.72379,0.0056 -0.821195,-0.01415 -2.020586,-0.408567 -1.322888,-0.435038 -2.445315,-0.558852 -3.380838,-0.638058 -0.526192,-0.04455 -0.480874,-0.120711 -0.480874,0.02355 0,0.120702 0.132846,0.07083 0.397001,0.104528 1.426985,0.181999 2.262841,0.254461 3.723962,0.756599 1.864544,0.4728 2.940571,0.248515 4.386098,-0.396044 l 0.485405,0.552458 c 1.49169,1.697747 2.321349,3.489805 1.629832,6.797033 -0.265366,1.269136 -0.299381,1.587012 -0.305082,2.851307 l -0.0063,1.422931 -0.622065,0.275676 c -1.863004,0.825614 -4.229181,1.002548 -6.673157,0.498995 l -0.764352,-0.157469 -0.10938,-0.486274 c -0.149256,-0.663582 -0.645397,-1.462731 -1.227991,-1.977952 -0.566261,-0.500779 -1.293322,-0.921522 -3.08538,-1.785482 -0.714558,-0.344492 -1.620387,-0.823551 -2.012955,-1.064573 -0.70353,-0.431945 -1.724862,-1.230161 -1.647894,-1.287902 0.02172,-0.01629 0.260918,-0.120266 0.531548,-0.231049 1.345268,-0.550685 2.767137,-1.603354 3.265458,-2.417553 0.249907,-0.408323 0.268394,-0.494509 0.268394,-1.251257 V 22.079632 L 33.307013,21.390735 C 32.7756,20.518441 31.912178,19.636892 30.846154,18.87822 29.377223,17.832801 28.41961,17.460704 27.394051,17.536844 c -0.738742,0.05485 -1.557148,0.403362 -2.306701,0.982298 -1.490546,1.151263 -2.221603,2.768519 -2.112463,4.673198 0.08414,1.468321 0.556681,2.554118 1.427962,3.281138 1.009474,0.842336 2.236253,1.031758 4.080458,0.630049 l 1.030318,-0.244762 0.714242,0.565023 c 0.893992,0.707218 1.513181,1.070913 2.760749,1.674151 2.062119,0.997102 2.52321,1.235664 3.11937,1.684427 1.10078,0.82862 1.506545,1.546235 1.584554,2.80234 0.05556,0.894666 -0.470184,1.83188 -0.878475,2.779014 -0.327096,0.758781 -0.776735,1.550688 -0.945623,1.665451 -0.07084,0.04813 -0.128788,0.14432 -0.128788,0.213748 0,0.136235 -1.087028,1.503463 -1.495326,1.880777 -0.13708,0.126677 -0.29956,0.214577 -0.361065,0.195332 z m -7.841507,-7.366106 c 0.0015,-1.245765 0.03175,-1.589592 0.189894,-2.146918 0.230381,-0.811872 0.648443,-1.716034 1.008224,-2.180527 0.324851,-0.419399 0.346134,-0.581355 0.07212,-0.548786 -0.142736,0.01697 -0.302734,0.184653 -0.581463,0.60941 -0.757203,1.153895 -1.102022,2.402403 -1.11269,4.028759 -0.0082,1.26421 0.064,1.721378 0.27222,1.721378 0.135522,0 0.150272,-0.144244 0.151703,-1.483316 z m 6.438523,1.240374 c 0.06619,-0.141232 -0.44676,-1.294409 -0.950879,-2.137688 -0.26217,-0.438558 -0.800537,-1.129328 -1.341593,-1.721378 -0.497033,-0.543883 -1.165216,-1.293783 -1.484844,-1.666442 -0.55701,-0.649423 -0.785732,-0.797213 -0.889883,-0.574992 -0.04777,0.101936 0.8318,1.153586 2.150361,2.571059 0.775644,0.833831 1.398868,1.785098 1.883602,2.875069 0.315917,0.710374 0.512016,0.913015 0.633236,0.654372 z M 14.715502,29.583669 c 1.660109,-0.473164 3.498989,-1.361964 4.869312,-2.353523 0.627071,-0.453743 1.929998,-1.67475 1.929998,-1.808651 0,-0.04002 -0.06694,-0.0938 -0.148754,-0.119503 -0.106175,-0.03336 -0.253082,0.05641 -0.513199,0.31361 -1.820186,1.799732 -3.862465,2.96252 -6.495215,3.698107 -0.955324,0.266917 -1.030275,0.303724 -0.953224,0.468127 0.06473,0.138097 0.20643,0.116679 1.311082,-0.198167 z m 23.23204,-0.240719 c 0.01693,-0.04168 -0.142715,-0.272405 -0.354785,-0.51275 -0.212071,-0.240347 -0.773586,-0.949666 -1.24781,-1.576268 -1.233105,-1.629323 -2.321195,-2.779608 -2.629313,-2.779608 -0.309051,0 -0.21418,0.235367 0.266052,0.660065 0.643258,0.568872 1.107447,1.105811 2.108219,2.438635 0.9971,1.327932 1.51149,1.895793 1.691394,1.867206 0.07448,-0.01184 0.149301,-0.05561 0.166243,-0.09727 z m 4.151945,-2.349208 c 0.104402,-0.102988 -0.05207,-0.254435 -1.260729,-1.220224 -2.58129,-2.062604 -3.612102,-2.571599 -5.502284,-2.716913 -0.584966,-0.04498 -0.816598,0.01896 -0.730944,0.201699 0.0384,0.08195 0.170344,0.117651 0.437993,0.118539 0.606187,0.0021 1.58768,0.198294 2.177717,0.435504 0.830932,0.334055 1.650285,0.879597 3.215334,2.14083 0.78729,0.634454 1.456699,1.154589 1.487579,1.155852 0.03088,0.0012 0.109786,-0.05061 0.175334,-0.115287 z M 20.667321,24.544365 c 0.09896,-0.131103 -0.124109,-0.26941 -0.518533,-0.321509 -1.342482,-0.177316 -2.220436,-0.266534 -3.24724,-0.32999 -2.286632,-0.14131 -4.93687,0.203575 -4.456907,0.579992 0.04345,0.03406 0.42118,-0.0014 0.839428,-0.07875 1.53353,-0.283704 3.773534,-0.255729 6.03886,0.07543 1.107368,0.161877 1.271775,0.171028 1.344392,0.07483 z m -0.892536,-4.031559 c 0.08245,-0.109235 -0.416354,-0.681021 -1.468874,-1.683789 -1.610872,-1.534724 -3.754018,-3.069125 -5.283545,-3.782788 -0.727775,-0.339574 -0.992975,-0.389543 -0.987105,-0.185988 0.0026,0.08337 0.307429,0.273348 0.872279,0.543303 0.47772,0.228312 1.210786,0.637385 1.629034,0.90905 1.059822,0.688389 3.394332,2.630045 4.242603,3.528658 0.67991,0.720256 0.86474,0.844928 0.995608,0.671554 z m 17.229001,-1.455398 c 3.187242,-1.378353 4.195911,-1.963517 5.266813,-3.055471 0.653103,-0.665942 1.252506,-1.4569 1.252506,-1.652781 0,-0.259191 -0.34488,-0.144901 -0.547564,0.181459 -0.543458,0.875067 -1.633243,1.914476 -2.660269,2.537292 -0.806749,0.489235 -1.682017,0.905362 -3.733964,1.775226 -1.337449,0.566977 -1.736271,0.768247 -1.736271,0.876239 0,0.08306 0.06192,0.140192 0.151936,0.140192 0.08358,0 0.986634,-0.360971 2.006813,-0.802156 z m -2.805362,-0.09516 c 0.05005,-0.05037 0.642993,-0.948589 1.317641,-1.996067 1.689928,-2.623842 2.364063,-3.454401 3.788636,-4.667763 0.496243,-0.422667 0.732497,-0.676858 0.697835,-0.750814 -0.09265,-0.19767 -0.275097,-0.121696 -0.830926,0.346005 -1.284865,1.081148 -2.21286,2.139292 -3.228094,3.68082 -1.69661,2.576124 -2.174935,3.343055 -2.125697,3.408286 0.07493,0.09927 0.27213,0.08867 0.380605,-0.02048 z m -13.04147,-0.50629 c 0,-0.03819 -0.124015,-0.3066 -0.275598,-0.596477 -1.410581,-2.697563 -2.242424,-5.199876 -2.908559,-8.7493782 -0.03281,-0.1749144 -0.09107,-0.238063 -0.219553,-0.238063 -0.23176,0 -0.227394,0.1460899 0.04497,1.5041652 0.400783,1.998388 1.010223,3.925391 1.840841,5.820595 0.478922,1.092748 1.025605,2.175016 1.171235,2.318683 0.09841,0.09709 0.346658,0.05446 0.346658,-0.05952 z m 6.105088,-1.615834 c 0.02004,-0.04919 -0.0613,-0.33761 -0.180728,-0.640938 -0.304134,-0.772451 -0.289826,-1.549217 0.05535,-3.005387 0.433144,-1.827256 0.984135,-6.100563 0.808889,-6.2734542 -0.210507,-0.2076747 -0.325283,-0.013211 -0.387099,0.6558466 -0.206986,2.240362 -0.502019,4.2108376 -0.86125,5.7521756 -0.144014,0.617894 -0.26184,1.362521 -0.26184,1.654722 0,0.508891 0.242742,1.486987 0.446344,1.798466 0.107229,0.164055 0.323815,0.197407 0.380334,0.05857 z m 1.851317,-0.29513 c 0.04382,-0.09065 0.168404,-0.354328 0.276842,-0.585955 0.108433,-0.231629 0.520767,-0.824955 0.916287,-1.318504 1.04657,-1.30596 1.058122,-1.329407 2.251422,-4.570168 0.224604,-0.6099792 0.408371,-1.1456203 0.408371,-1.1903151 0,-0.044695 -0.0785,-0.081262 -0.174448,-0.081262 -0.191556,0 -0.433474,0.5464962 -1.167321,2.6370061 -0.443698,1.263961 -0.850167,2.004094 -1.606186,2.924676 -0.960293,1.169321 -1.529144,2.349335 -1.132547,2.349335 0.08134,0 0.183753,-0.07416 0.22758,-0.164813 z"
       id="path13388"
       sodipodi:nodetypes="cssccccsscsssssssscsssssssssssssssssscssssssssssssssscsscssssssssscsscsssscssssccssccsscsssssssscssssssscssssssssccssssscssssssssssssssscsssssssssssscssscssccsssscsssssscssssssssssssssssssssssscsssssssssssssssssssssssssss" /><path
       style="fill:url(#radialGradient43868);fill-opacity:1;stroke:#000000;stroke-width:0.0293365;stroke-linecap:round;stroke-linejoin:round;stroke-dasharray:none;stroke-opacity:1;paint-order:fill markers stroke"
       d="m 26.268106,27.10658 c -0.812686,-0.111376 -1.519904,-0.482762 -2.069553,-1.086804 -0.705264,-0.775054 -1.071628,-1.994956 -1.021896,-3.402674 0.04214,-1.193052 0.394864,-2.165451 1.108892,-3.057069 0.557128,-0.695695 1.346546,-1.292915 2.124891,-1.607556 1.014647,-0.410161 1.914149,-0.336168 3.029676,0.249222 0.697738,0.366149 1.668501,1.050109 2.248382,1.584123 0.693665,0.638794 1.074366,1.095615 1.540075,1.848008 l 0.324267,0.523884 -0.02136,0.703718 c -0.01578,0.519929 -0.03431,0.739967 -0.07096,0.842512 -0.0723,0.202282 -0.273189,0.519835 -0.48,0.758745 -0.213484,0.246618 -1.016697,0.915413 -1.398499,1.164458 -0.415528,0.271043 -1.014207,0.586795 -1.527548,0.805652 -0.256781,0.109473 -0.484283,0.212721 -0.50556,0.22944 -0.05904,0.04638 -1.382687,0.345617 -1.794185,0.405609 -0.478832,0.06981 -1.135094,0.08691 -1.486633,0.03874 z"
       id="path42477" /></g></svg>
