<?xml version="1.0" encoding="UTF-8" standalone="no"?>
<!-- Created with Inkscape (http://www.inkscape.org/) -->

<svg
   width="600"
   height="342.85715"
   viewBox="0 0 260.86957 149.06833"
   version="1.1"
   id="svg5"
   inkscape:version="1.2.2 (732a01da63, 2022-12-09)"
   sodipodi:docname="Nurs boutique.svg"
   inkscape:export-filename="nurs boutique.png"
   inkscape:export-xdpi="184.32001"
   inkscape:export-ydpi="184.32001"
   xmlns:inkscape="http://www.inkscape.org/namespaces/inkscape"
   xmlns:sodipodi="http://sodipodi.sourceforge.net/DTD/sodipodi-0.dtd"
   xmlns:xlink="http://www.w3.org/1999/xlink"
   xmlns="http://www.w3.org/2000/svg"
   xmlns:svg="http://www.w3.org/2000/svg">
  <sodipodi:namedview
     id="namedview7"
     pagecolor="#505050"
     bordercolor="#ffffff"
     borderopacity="1"
     inkscape:showpageshadow="0"
     inkscape:pageopacity="0"
     inkscape:pagecheckerboard="1"
     inkscape:deskcolor="#505050"
     inkscape:document-units="px"
     showgrid="false"
     inkscape:zoom="1"
     inkscape:cx="554"
     inkscape:cy="302"
     inkscape:window-width="1920"
     inkscape:window-height="1057"
     inkscape:window-x="-8"
     inkscape:window-y="-8"
     inkscape:window-maximized="1"
     inkscape:current-layer="layer4" />
  <defs
     id="defs2">
    <inkscape:path-effect
       effect="spiro"
       id="path-effect30267"
       is_visible="true"
       lpeversion="1" />
    <inkscape:path-effect
       effect="spiro"
       id="path-effect25339"
       is_visible="true"
       lpeversion="1" />
    <inkscape:path-effect
       effect="spiro"
       id="path-effect25331"
       is_visible="true"
       lpeversion="1" />
    <inkscape:path-effect
       effect="spiro"
       id="path-effect25325"
       is_visible="true"
       lpeversion="1" />
    <inkscape:path-effect
       effect="spiro"
       id="path-effect25317"
       is_visible="true"
       lpeversion="1" />
    <inkscape:path-effect
       effect="spiro"
       id="path-effect25311"
       is_visible="true"
       lpeversion="1" />
    <inkscape:path-effect
       effect="spiro"
       id="path-effect25307"
       is_visible="true"
       lpeversion="1" />
    <inkscape:path-effect
       effect="spiro"
       id="path-effect25303"
       is_visible="true"
       lpeversion="1" />
    <inkscape:path-effect
       effect="spiro"
       id="path-effect22246"
       is_visible="true"
       lpeversion="1" />
    <inkscape:path-effect
       effect="spiro"
       id="path-effect22103"
       is_visible="true"
       lpeversion="1" />
    <inkscape:path-effect
       effect="spiro"
       id="path-effect21115"
       is_visible="true"
       lpeversion="1" />
    <inkscape:path-effect
       effect="spiro"
       id="path-effect21103"
       is_visible="true"
       lpeversion="1" />
    <linearGradient
       inkscape:collect="always"
       id="linearGradient21026">
      <stop
         style="stop-color:#000168;stop-opacity:1;"
         offset="0"
         id="stop21022" />
      <stop
         style="stop-color:#7200b0;stop-opacity:1;"
         offset="0.96551722"
         id="stop21024" />
    </linearGradient>
    <inkscape:path-effect
       effect="spiro"
       id="path-effect15029"
       is_visible="true"
       lpeversion="1" />
    <inkscape:path-effect
       effect="spiro"
       id="path-effect15017"
       is_visible="true"
       lpeversion="1" />
    <inkscape:path-effect
       effect="spiro"
       id="path-effect14754"
       is_visible="true"
       lpeversion="1" />
    <inkscape:path-effect
       effect="spiro"
       id="path-effect14740"
       is_visible="true"
       lpeversion="1" />
    <inkscape:path-effect
       effect="spiro"
       id="path-effect14722"
       is_visible="true"
       lpeversion="1" />
    <inkscape:path-effect
       effect="spiro"
       id="path-effect13992"
       is_visible="true"
       lpeversion="1" />
    <inkscape:path-effect
       effect="spiro"
       id="path-effect13988"
       is_visible="true"
       lpeversion="1" />
    <inkscape:path-effect
       effect="spiro"
       id="path-effect13984"
       is_visible="true"
       lpeversion="1" />
    <inkscape:path-effect
       effect="spiro"
       id="path-effect13980"
       is_visible="true"
       lpeversion="1" />
    <inkscape:path-effect
       effect="spiro"
       id="path-effect13966"
       is_visible="true"
       lpeversion="1" />
    <inkscape:path-effect
       effect="spiro"
       id="path-effect13954"
       is_visible="true"
       lpeversion="1" />
    <inkscape:path-effect
       effect="spiro"
       id="path-effect13936"
       is_visible="true"
       lpeversion="1" />
    <inkscape:path-effect
       effect="spiro"
       id="path-effect13932"
       is_visible="true"
       lpeversion="1" />
    <inkscape:path-effect
       effect="spiro"
       id="path-effect13153"
       is_visible="true"
       lpeversion="1" />
    <inkscape:path-effect
       effect="spiro"
       id="path-effect12371"
       is_visible="true"
       lpeversion="1" />
    <inkscape:path-effect
       effect="spiro"
       id="path-effect12367"
       is_visible="true"
       lpeversion="1" />
    <inkscape:path-effect
       effect="spiro"
       id="path-effect12363"
       is_visible="true"
       lpeversion="1" />
    <inkscape:path-effect
       effect="spiro"
       id="path-effect12351"
       is_visible="true"
       lpeversion="1" />
    <inkscape:path-effect
       effect="spiro"
       id="path-effect12347"
       is_visible="true"
       lpeversion="1" />
    <inkscape:path-effect
       effect="spiro"
       id="path-effect11776"
       is_visible="true"
       lpeversion="1" />
    <linearGradient
       inkscape:collect="always"
       xlink:href="#linearGradient21026"
       id="linearGradient15940"
       x1="194.73865"
       y1="256.62772"
       x2="194.73865"
       y2="646.38599"
       gradientUnits="userSpaceOnUse"
       gradientTransform="matrix(0.23043599,0,0,0.31334979,-9.614828,-31.86203)" />
    <linearGradient
       inkscape:collect="always"
       xlink:href="#linearGradient21026"
       id="linearGradient20857"
       x1="468.05045"
       y1="132.63812"
       x2="468.05045"
       y2="249.2496"
       gradientUnits="userSpaceOnUse"
       gradientTransform="matrix(0.17026327,0,0,0.2846774,18.052027,-24.614677)" />
    <linearGradient
       inkscape:collect="always"
       xlink:href="#linearGradient21026"
       id="linearGradient20865"
       x1="255.43002"
       y1="157.66475"
       x2="164.15335"
       y2="294.62244"
       gradientUnits="userSpaceOnUse"
       gradientTransform="matrix(0.26162658,0,0,0.30200622,-17.310194,-29.350256)" />
    <linearGradient
       inkscape:collect="always"
       xlink:href="#linearGradient21026"
       id="linearGradient21012"
       x1="125.59467"
       y1="54.67767"
       x2="185.45671"
       y2="54.67767"
       gradientUnits="userSpaceOnUse"
       gradientTransform="matrix(2.4647142,0,0,2.4647142,-161.03041,-88.563508)" />
    <linearGradient
       inkscape:collect="always"
       xlink:href="#linearGradient21026"
       id="linearGradient21020"
       x1="45.587646"
       y1="-2.8377678"
       x2="45.587646"
       y2="58.082523"
       gradientUnits="userSpaceOnUse" />
    <linearGradient
       inkscape:collect="always"
       xlink:href="#linearGradient21026"
       id="linearGradient21111"
       x1="140.85924"
       y1="65.506966"
       x2="188.66342"
       y2="65.506966"
       gradientUnits="userSpaceOnUse" />
    <clipPath
       clipPathUnits="userSpaceOnUse"
       id="clipPath22089">
      <path
         id="path22091"
         style="fill:#ff0000;fill-opacity:1;fill-rule:nonzero;stroke:none;stroke-width:0.264583"
         d="m 151.15873,37.861253 v 55.369231 h 25.06462 V 37.861253 Z m 21.32531,2.548683 5.3e-4,5.29e-4 0.002,5.3e-4 c 0.0446,-2.62e-4 0.0892,0.0013 0.13177,0.01757 0.0416,0.0158 0.1005,0.05575 0.1416,0.07545 0.0299,0.01434 0.061,0.02622 0.0915,0.03927 0.0369,0.01318 0.0737,0.0264 0.11058,0.03927 0.0353,0.01233 0.0704,0.02439 0.10595,0.03617 0.0139,0.0046 0.0284,0.009 0.0424,0.01344 0.0131,-3.2e-5 0.0266,-5.29e-4 0.0274,0.0072 0.01,0.0013 0.0197,0.0031 0.0176,0.0098 -0.002,0.0048 -0.003,0.0093 -0.005,0.01394 0.0113,-5.29e-4 0.0239,0.01529 0.0393,0.05529 0.0167,0.0167 0.0344,0.03644 0.047,0.05685 0.0182,-0.0026 0.0368,-0.0026 0.0548,-0.0011 0.10376,0.0096 0.18536,0.103582 0.23306,0.187068 0.003,0.0053 0.006,0.01053 0.008,0.01603 v 5.29e-4 c 0.0466,0.04198 0.08,0.07092 0.10645,0.117822 0.007,-0.0072 0.0134,-0.01318 0.0217,-0.02119 0.003,-0.0033 0.007,-0.0052 0.0119,-0.0057 0.0181,-0.0021 0.0422,0.01762 0.0615,0.02429 0.0136,0.0048 0.0257,0.01286 0.0382,0.02016 0.0605,0.03556 0.066,0.04159 0.1111,0.07906 0.0583,0.01233 0.1151,0.03078 0.16588,0.06046 0.003,0.0013 0.004,0.106582 0.004,0.135909 0.0612,0.09057 0.10331,0.175021 0.15399,0.29352 0.0519,0.121471 0.10035,0.262554 0.11524,0.395843 0.002,0.01939 0.002,0.03887 5.3e-4,0.05839 0.0372,0.01471 0.0392,0.07198 0.0496,0.111104 0.0117,0.04222 0.014,0.08652 0.0134,0.130225 -0.002,0.124952 -0.0151,0.216638 -0.046,0.318326 -1.1e-4,2.64e-4 -5.3e-4,7.93e-4 -5.3e-4,0.0011 -0.0149,0.117716 -0.0482,0.236143 -0.0946,0.334346 -0.0298,0.06313 -0.0733,0.118933 -0.11007,0.178284 -0.0233,0.02408 -0.0616,0.06903 -0.10336,0.107487 -2.6e-4,2.65e-4 -2.5e-4,7.94e-4 -5.3e-4,0.0011 -0.047,0.07422 -0.0927,0.139248 -0.17364,0.236162 -0.0358,0.04287 -0.0742,0.0841 -0.11575,0.121439 -0.0385,0.03462 -0.12669,0.09838 -0.18759,0.08785 -0.0357,-0.0062 -0.0668,-0.02723 -0.0982,-0.04651 0.004,0.0036 0.009,0.0074 0.0129,0.01138 0.002,0.0021 -0.005,0.0034 -0.008,0.0041 -0.01,0.0027 -0.0208,0.0042 -0.031,0.0062 -0.0436,0.0083 -0.0336,0.0062 -0.077,0.01138 -0.0109,1.4e-4 -0.0246,0.0083 -0.0326,5.29e-4 -0.003,-0.0033 -0.007,-0.0065 -0.01,-0.0098 -0.13013,0.0371 -0.22755,0.05401 -0.36897,0.08268 -0.20969,0.04083 -0.42197,0.06509 -0.63562,0.06925 -2.7e-4,2.4e-5 -8e-4,-2.1e-5 -0.001,0 -0.14326,0.0094 -0.28858,0.0149 -0.42736,0.01707 -0.0931,0.0013 -0.18637,-0.0011 -0.27957,-0.0016 -0.14315,-0.0064 -0.28688,-0.0074 -0.42995,-0.01601 -0.0469,-0.0028 -0.0938,-0.007 -0.14056,-0.01085 -0.0226,-0.0027 -0.0451,-0.0053 -0.0677,-0.0083 -0.0224,-0.003 -0.0447,-0.007 -0.0672,-0.0098 -0.005,-5.29e-4 -0.0958,-0.0088 -0.10077,-0.0098 -0.0212,-0.0043 -0.0422,-0.01 -0.0625,-0.01757 -0.0123,-0.0047 -0.0236,-0.01172 -0.0351,-0.0181 -0.008,-0.0028 -0.0136,-0.0063 -0.0145,-0.01035 -2.7e-4,-0.0016 -2.2e-4,-0.003 -5.3e-4,-0.0047 -0.001,-0.0011 -0.003,-0.0021 -0.005,-0.0031 -0.009,-0.0064 -0.0215,-0.02185 -0.032,-0.03669 -0.005,-0.0016 -0.01,-0.0029 -0.015,-0.0047 -0.0613,-0.02082 -0.1329,-0.06981 -0.1726,-0.121441 -0.0174,-0.02267 -0.0303,-0.04861 -0.0455,-0.07286 -0.004,-0.01492 -0.01,-0.02915 -0.0129,-0.04444 -0.002,-0.0072 0.005,0.01344 0.008,0.02016 1.2e-4,2.54e-4 5e-5,-7.94e-4 0,-0.0011 -0.006,-0.03788 -0.0369,-0.08056 -0.0176,-0.113689 0.013,-0.02241 0.0359,-0.04239 0.0605,-0.05891 -0.0234,-0.04473 -0.0487,-0.08847 -0.0698,-0.13436 -0.002,-0.0041 -0.004,-0.0083 -0.006,-0.01241 -1.8e-4,-2.65e-4 -2.6e-4,-7.94e-4 -5.3e-4,-0.0011 -0.004,-0.0081 -0.009,-0.0163 -0.0134,-0.02429 -0.0214,-0.04488 -0.07,-0.128926 -0.063,-0.18397 0.005,-0.03552 0.005,-0.08406 0.0232,-0.113687 -1.5e-4,-0.0011 -2.4e-4,-0.0019 -5.3e-4,-0.0031 -0.001,-0.0033 -0.002,-0.0065 -0.002,-0.0093 -2.7e-4,-0.0026 -1.1e-4,-0.0034 -5.3e-4,-0.0062 -0.002,-0.02222 -0.004,-0.04104 -0.004,-0.05633 -0.002,-0.0029 -0.004,-0.0057 -0.006,-0.0088 -0.0169,-0.0042 -0.0214,-0.02543 -0.0248,-0.04857 -0.0163,-0.03776 -0.0283,-0.077 -0.0367,-0.101288 -0.0186,-0.06404 -0.0158,-0.0467 -0.0269,-0.104902 -0.001,-0.0055 -0.009,-0.01648 -0.003,-0.01654 -10e-4,-0.0048 -0.002,-0.0096 -0.003,-0.01447 -0.002,-0.01024 -0.006,-0.03 0.004,-0.031 0.007,-7.93e-4 0.0121,-0.0019 0.0186,-0.0026 -7e-5,-0.0058 -9e-5,-0.01177 0,-0.01757 -0.01,-0.02101 -0.0302,-0.04759 -0.0129,-0.05736 0.006,-0.0035 0.0127,-0.0067 0.0191,-0.0098 0.003,-0.01519 0.006,-0.0305 0.0103,-0.04547 0.004,-0.01193 0.002,-0.03428 0.0114,-0.03876 -5.3e-4,-0.0019 -0.001,-0.0037 -0.002,-0.0057 -0.004,-0.01294 -0.004,-0.02672 -0.001,-0.04031 -0.007,-0.01558 -0.012,-0.02855 -0.0139,-0.03617 -0.007,-0.02652 -0.0105,-0.05449 -0.0155,-0.08165 0.0304,-0.07859 0.0365,-0.118838 0.0599,-0.130739 8e-4,-0.01582 0.002,-0.0318 0.004,-0.04754 0.003,-0.02684 0.007,-0.05541 0.0119,-0.08475 2.6e-4,-0.0057 5.3e-4,-0.01103 0.001,-0.01704 0.002,-0.03773 0.009,-0.07483 0.015,-0.112139 0.004,-0.02339 0.008,-0.04675 0.0145,-0.06976 0.003,-0.01191 -7.9e-4,-0.03684 0.0114,-0.03514 0.0138,0.0019 0.0278,0.0044 0.0413,0.0072 0.005,-0.0079 0.0101,-0.01572 0.0134,-0.02326 0.009,-0.01855 0.0168,-0.03384 0.0248,-0.04754 0.002,-0.008 0.006,-0.0227 0.0103,-0.04134 -0.0116,-0.01482 -0.0235,-0.031 -0.0367,-0.04961 -0.0249,-0.03512 0.0347,-0.07895 0.0522,-0.118341 0.0519,-0.0812 0.1088,-0.158726 0.1726,-0.230994 0.012,-0.0136 0.0241,-0.02728 0.0367,-0.04031 l 5.3e-4,-5.29e-4 c 0.0174,-0.04299 0.07,-0.06699 0.1049,-0.09974 0.0201,-0.01881 0.0389,-0.03619 0.0568,-0.05219 0.0114,-0.01495 0.0234,-0.0298 0.0346,-0.04496 0.005,-0.0072 0.011,-0.01413 0.015,-0.02222 0.0144,-0.02843 0.009,-0.06412 0.0233,-0.0925 0.0582,-0.117001 0.054,-0.09786 0.15244,-0.146759 0.0323,-0.0059 0.064,-0.01437 0.0966,-0.01757 0.0297,-0.0029 0.0595,-0.0019 0.0894,-0.0016 0.0331,-0.01966 0.063,-0.03559 0.10025,-0.04548 0.0139,-0.0037 0.0339,-0.01841 0.0429,-0.0067 0.008,0.01095 0.0155,0.02093 0.0228,0.03049 0.0538,-0.02066 0.11136,-0.04301 0.13436,-0.05219 0.0228,-0.0091 0.0454,-0.01902 0.0682,-0.02842 0.0521,-0.02143 0.0795,-0.03149 0.13436,-0.05219 0.0602,-0.01712 0.0988,-0.03236 0.16071,-0.03565 0.0208,-0.0011 0.0471,-0.0108 0.062,0.0036 0.002,0.0016 0.003,0.0035 0.005,0.0052 0.0315,-0.0067 0.0821,-0.0163 0.0987,-0.0186 0.0948,-0.01328 0.15375,-0.01905 0.25115,-0.02326 0.0361,-0.0016 0.0719,-0.0016 0.108,-0.0021 0.005,-0.0016 0.011,-0.0038 0.0171,-0.0057 0.0148,-1.21e-4 0.0291,-5.29e-4 0.0439,-5.29e-4 z m -1.80454,3.393075 c 7.9e-4,5.29e-4 0.002,0.0013 0.003,0.0021 -0.001,-0.0016 -0.002,-0.003 -0.003,-0.0047 h -5.3e-4 c 1.5e-4,7.94e-4 2.5e-4,0.0016 5.3e-4,0.0026 z m -5.3e-4,-0.0026 c -0.002,-0.0093 -0.003,-0.01839 -0.004,-0.0279 -0.006,-0.0016 -0.0124,-0.0034 -0.0186,-0.0052 0.008,0.01085 0.015,0.02215 0.0228,0.03307 z m -0.0228,-0.03307 c -0.009,-0.01236 -0.0185,-0.02418 -0.0289,-0.03514 -0.0114,-0.01185 -1.2e-4,0.009 0.0155,0.03101 0.005,0.0013 0.009,0.0029 0.0129,0.0041 z m 1.65881,-3.303674 c -0.002,0.0021 -0.005,0.0057 -0.007,0.0088 0.001,-7.94e-4 0.002,-0.0019 0.003,-0.0026 0.001,-0.0019 0.003,-0.0043 0.004,-0.0062 z m 0.83458,0.199472 c -0.005,2.64e-4 -0.0103,0.0041 -0.015,0.01035 0.003,0.0019 0.006,0.0037 0.009,0.0057 0.002,-0.0054 0.004,-0.01037 0.006,-0.01603 z m -2.83084,2.400887 c -2e-5,0.01429 -5.3e-4,0.02426 0.007,0.03049 -0.002,-0.0099 -0.005,-0.02 -0.007,-0.03049 z m 3.75739,0.181901 c -0.002,0.0039 -0.005,0.0071 -0.007,0.01085 0.0123,0.0011 0.017,-7.94e-4 0.007,-0.01085 z m -3.36776,0.576191 c 0.0197,0.01154 0.0404,0.01913 0.0512,0.0062 -0.0194,-0.0013 -0.0373,-0.0033 -0.0512,-0.0062 z m 1.08625,0.0031 0.006,0.0093 c 7.9e-4,-0.0028 0.002,-0.0061 0.003,-0.0093 -0.003,6.8e-5 -0.006,-3.7e-5 -0.009,0 z m 0.0305,0.04909 c 0.003,0.004 0.0122,0.0064 0.0165,0.0047 -0.004,-0.0011 -0.007,-0.0024 -0.009,-0.0041 h -5.3e-4 c -0.002,-2.64e-4 -0.005,-2.01e-4 -0.007,-5.29e-4 z" />
    </clipPath>
    <clipPath
       clipPathUnits="userSpaceOnUse"
       id="clipPath22230">
      <path
         id="path22232"
         style="fill:#ff0000;fill-opacity:1;fill-rule:nonzero;stroke:none;stroke-width:0.264583"
         d="m 134.02438,23.442496 v 18.860865 h 93.7121 V 23.442496 Z m 35.44899,17.868677 h 5.3e-4 c 0.0386,-0.0019 0.0962,0.04117 0.20102,0.164849 0.006,0.0072 0.009,0.01524 0.0109,0.02376 0.0205,-0.0284 0.0443,-0.05548 0.0693,-0.04237 0.0536,0.02811 0.0931,0.05462 0.12247,0.0801 0.0331,7.7e-5 0.0653,0.005 0.0946,0.02016 0.005,0.0026 0.009,0.006 0.0119,0.0098 h 5.3e-4 c 0.0199,0.0011 0.0483,0.015 0.091,0.04651 h 5.2e-4 c 0.0581,-0.0059 0.11597,-0.01077 0.17415,-0.0083 0.0103,5.29e-4 8e-4,0.02069 0,0.03101 -0.002,0.02297 -0.004,0.04583 -0.006,0.06873 0.0134,0.0088 0.0214,0.02694 0.0264,0.05685 2.6e-4,-3.2e-5 7.9e-4,3.2e-5 0.001,0 0.002,-1.32e-4 0.002,-0.0011 0.003,-0.0026 -7.9e-4,0.0046 -0.002,0.0093 -0.003,0.01394 v 5.29e-4 c 0.002,0.0011 0.004,0.0021 0.006,0.0031 -0.003,0.06028 -0.004,0.08847 -0.005,0.131774 -5e-5,0.0057 -5.3e-4,0.0063 -5.3e-4,0.01241 -1e-4,0.0033 10e-5,0.0073 0,0.01085 -1.4e-4,0.01185 -2.6e-4,0.02162 -5.3e-4,0.03256 v 5.29e-4 c 0.002,0.01535 0.0118,0.03694 -10e-4,0.03772 -2.6e-4,0.008 -1.7e-4,0.01386 -5.3e-4,0.01394 -0.01,0.0024 -0.0199,0.0042 -0.03,0.0057 1.8e-4,0.0051 1.4e-4,0.0099 5.3e-4,0.01497 v 5.29e-4 c 10e-4,0.0043 0.002,0.0083 -5.3e-4,0.0083 -0.0146,3.1e-5 -0.0293,-7.2e-5 -0.0439,-5.29e-4 -7.9e-4,0.02389 -0.001,0.04322 -5.3e-4,0.05116 -0.0262,-0.01013 -0.0543,-0.01746 -0.0827,-0.02429 -5.2e-4,0.0062 -0.002,0.0094 -0.007,0.0098 -0.0233,0.05723 -0.0468,0.126026 -0.10232,0.130741 -0.0212,0.0019 -0.0397,0.0021 -0.0563,0.0011 -0.0573,0.03012 -0.12531,0.04394 -0.185,0.07028 -0.004,-0.02658 -0.01,-0.05309 -0.0155,-0.07958 -5.3e-4,3e-5 -0.001,2.2e-5 -0.002,0 -0.0261,-0.0011 -0.0482,-0.01998 -0.0724,-0.02997 -0.001,-0.01199 -0.003,-0.02363 -0.003,-0.03566 -9e-5,-7.94e-4 4e-5,-0.0013 0,-0.0021 -0.0906,-0.0082 -0.1858,0.0029 -0.26975,-0.03153 -0.007,-0.0028 -0.0106,-0.0075 -0.0124,-0.01394 -0.0177,-0.0065 -0.035,-0.01402 -0.0517,-0.02222 -0.01,0.03422 -0.0165,0.07645 -0.0465,0.07493 -0.001,-7.2e-5 -0.003,9e-5 -0.004,0 -0.007,0.0083 -0.0167,0.007 -0.0326,-0.0047 -0.0561,-0.0099 -0.11029,-0.03487 -0.15968,-0.06615 -0.0115,0.0323 -0.0222,0.06017 -0.0419,0.105421 -0.003,0.0085 -0.004,0.02742 -0.0129,0.02479 -0.0842,-0.02479 -0.1727,-0.0471 -0.24598,-0.09509 -0.002,-7.93e-4 -0.003,-0.0019 -0.004,-0.0031 -0.003,-0.0024 -0.007,-0.0043 -0.0103,-0.0067 -0.0196,-0.01418 0.008,-0.04854 0.0181,-0.07028 0.0111,-0.02286 0.0233,-0.04546 0.0357,-0.0677 -0.008,-0.0066 -0.016,-0.01339 -0.0243,-0.02066 -0.001,-0.0011 1.8e-4,-0.0057 0.003,-0.01291 -0.002,-0.0043 -0.003,-0.0099 -0.003,-0.01654 -5.3e-4,-2.65e-4 -0.001,-7.94e-4 -0.002,-0.0011 -0.0157,-0.0082 -0.002,-0.0293 0.0103,-0.04909 -5.2e-4,-2.54e-4 -0.001,-7.94e-4 -0.002,-0.0011 0.002,-0.0062 0.003,-0.01241 0.005,-0.0186 -8e-4,-0.0013 -8e-4,-0.003 -5.3e-4,-0.0047 -0.01,-0.0057 -0.0194,-0.01209 -0.0284,-0.01913 -0.0263,-0.02048 0.0241,-0.06193 0.0362,-0.09302 7.9e-4,-0.0016 0.002,-0.0035 0.003,-0.0052 0.007,-0.02222 0.0126,-0.04501 0.016,-0.06873 0.006,2.25e-4 0.0124,5.29e-4 0.0186,5.29e-4 0.0149,-0.03118 0.0413,-0.08373 0.0641,-0.07338 0.002,7.94e-4 0.004,0.0016 0.006,0.0026 0.0129,-0.033 0.0148,-0.03437 0.0527,-0.0078 0.0167,-0.01164 0.04,-0.0079 0.0796,0.01447 0.0255,-0.03686 0.0484,-0.06793 0.061,-0.08217 0.017,-0.01939 0.0386,-0.0637 0.0599,-0.04909 0.0359,0.02461 0.0685,0.05479 0.0977,0.08785 0.0113,7.94e-4 0.022,0.0019 0.0315,0.0031 0.005,-0.0092 0.007,-0.0126 0.0124,-0.02376 0.0192,-0.03656 0.0387,-0.07352 0.0579,-0.110069 0.0284,-0.05396 0.0477,-0.100039 0.0863,-0.101804 z m 0.80512,0.426329 h 5.3e-4 c 1e-4,0.0021 -0.002,0.0067 -0.002,0.01085 5.3e-4,-0.0036 0.001,-0.0072 0.002,-0.01085 z m -0.58756,0.390675 c -0.002,0.0021 -0.003,0.0046 -0.005,0.0072 10e-4,-0.0011 0.003,-0.0029 0.004,-0.0041 2.6e-4,-0.0011 7.9e-4,-0.0021 0.001,-0.0031 z" />
    </clipPath>
    <linearGradient
       inkscape:collect="always"
       xlink:href="#linearGradient21026"
       id="linearGradient22256"
       x1="134.05325"
       y1="32.871185"
       x2="227.72012"
       y2="32.871185"
       gradientUnits="userSpaceOnUse" />
    <linearGradient
       inkscape:collect="always"
       xlink:href="#linearGradient21026"
       id="linearGradient25235"
       x1="129.90945"
       y1="37.143574"
       x2="186.42612"
       y2="37.330662"
       gradientUnits="userSpaceOnUse"
       gradientTransform="translate(-3.7417733,3.5546847)" />
    <filter
       inkscape:label="Tartan"
       inkscape:menu="Overlays"
       inkscape:menu-tooltip="Checkered tartan pattern"
       style="color-interpolation-filters:sRGB"
       id="filter29535"
       x="-0.00097722655"
       y="-0.001121777"
       width="1.0019544"
       height="1.0028721">
      <feTurbulence
         type="fractalNoise"
         result="result0"
         seed="1000"
         numOctaves="1"
         baseFrequency="0 1.7800000000000005"
         id="feTurbulence29521" />
      <feTurbulence
         result="result3"
         type="turbulence"
         seed="57"
         numOctaves="1"
         baseFrequency="72.782874617737008 0"
         id="feTurbulence29523" />
      <feComposite
         result="result1"
         operator="over"
         in2="result0"
         id="feComposite29525" />
      <feMerge
         result="result2"
         id="feMerge29531">
        <feMergeNode
           in="result1"
           id="feMergeNode29527" />
        <feMergeNode
           in="result0"
           id="feMergeNode29529" />
      </feMerge>
      <feComposite
         result="result4"
         in="SourceGraphic"
         operator="in"
         in2="result2"
         id="feComposite29533" />
    </filter>
  </defs>
  <g
     inkscape:groupmode="layer"
     id="layer4"
     inkscape:label="Layer 2"
     sodipodi:insensitive="true"
     style="display:inline">
    <path
       style="display:inline;fill:#000000;fill-opacity:1;stroke:#000000;stroke-width:0.495829;stroke-linecap:round;stroke-linejoin:bevel;stroke-dasharray:none;stroke-opacity:1;paint-order:fill markers stroke"
       d="m 251.04418,45.727521 c 0.48606,7.142482 1.62902,14.232174 3.2204,21.212061 1.0272,4.505355 2.24129,8.968095 3.175,13.49375 1.98914,9.641346 2.69331,19.529294 2.38125,29.368748 -0.2219,6.99656 -0.95552,13.97683 -2.19306,20.86664 -6.8548,5.12992 -14.53014,9.161 -22.64441,11.89284 -15.48125,5.21208 -32.23411,5.61611 -48.46412,3.76633 -16.23,-1.84978 -32.11774,-5.87979 -48.07363,-9.37899 -10.86813,-2.38343 -21.80994,-4.52742 -32.88221,-5.62367 -15.117502,-1.49676 -30.387125,-1.0278 -45.486853,0.63875 C 42.388504,133.9162 24.882113,137.5111 7.8561111,142.68732 12.496589,131.92758 14.622678,120.09277 14.017409,108.39065 13.520921,98.791679 11.228012,89.391992 9.3910947,79.957349 7.2880826,69.156007 5.7701474,58.165325 6.2669979,47.172382 6.5542523,40.816805 7.5123576,34.513811 8.3116772,28.202158 8.9340075,23.288062 9.4607109,18.361857 9.8913887,13.42727 23.567077,10.514669 37.418544,8.4276503 51.345297,7.1813563 68.137644,5.6786226 85.05864,5.3995953 101.85923,6.8071793 c 29.3566,2.459549 58.02286,10.0247997 87.12179,14.6195077 8.03975,1.269473 16.1483,2.31451 24.28713,2.221421 8.13882,-0.09309 16.34422,-1.354979 23.83187,-4.546263 7.01791,-2.991079 13.31202,-7.664514 18.20502,-13.5173904 -3.73016,12.9994934 -5.17907,26.6501874 -4.26086,40.1430664 z"
       id="path30263"
       inkscape:path-effect="#path-effect30267"
       inkscape:original-d="m 251.04418,45.727521 c 0.52491,3.67438 2.19321,17.616906 3.2204,21.212061 1.83292,6.415223 1.86036,6.920561 3.175,13.49375 1.81829,9.091457 2.38125,20.116988 2.38125,29.368748 0,6.77044 1.15079,15.73631 -2.19306,20.86664 -6.18543,4.30184 -14.67758,9.23723 -22.64441,11.89284 -23.61707,7.87236 -72.50246,1.89837 -96.53775,-5.61266 -10.67456,-3.3358 -22.08159,-4.2736 -32.88221,-5.62367 -16.509427,-2.06368 -28.957954,-0.54188 -45.486853,0.63875 -14.967928,1.06914 -40.397131,0.86647 -52.2204359,10.72334 3.5116259,-5.11979 6.1612979,-27.52623 6.1612979,-34.29667 0,-9.251756 -2.808022,-19.341844 -4.6263143,-28.433301 C 8.0764567,73.38416 8.0999193,53.587605 6.2669979,47.172382 5.2398102,43.577227 8.8365888,31.876538 8.3116772,28.202158 6.2820357,13.994666 5.7161535,26.580933 9.8913887,13.42727 21.531499,3.814495 36.377369,8.2504943 51.345297,7.1813563 c 16.528899,-1.180635 34.004509,-2.437856 50.513933,-0.374177 10.80062,1.350077 76.44723,11.2837067 87.12179,14.6195077 24.03529,7.511025 24.50193,5.547518 48.119,-2.324842 7.96683,-2.655607 12.02722,-9.4430826 18.20502,-13.5173904 -4.53382,13.6147374 -6.2905,25.9355744 -4.26086,40.1430664 z"
       sodipodi:nodetypes="sssscsssscsssscsssscs" />
    <path
       style="display:inline;fill:#d1d4b3;fill-opacity:1;stroke:#000000;stroke-width:0.495829;stroke-linecap:round;stroke-linejoin:bevel;stroke-dasharray:none;stroke-opacity:1;paint-order:fill markers stroke;filter:url(#filter29535)"
       d="m 251.04418,45.727521 c 0.48606,7.142482 1.62902,14.232174 3.2204,21.212061 1.0272,4.505355 2.24129,8.968095 3.175,13.49375 1.98914,9.641346 2.69331,19.529294 2.38125,29.368748 -0.2219,6.99656 -0.95552,13.97683 -2.19306,20.86664 -6.8548,5.12992 -14.53014,9.161 -22.64441,11.89284 -15.48125,5.21208 -32.23411,5.61611 -48.46412,3.76633 -16.23,-1.84978 -32.11774,-5.87979 -48.07363,-9.37899 -10.86813,-2.38343 -21.80994,-4.52742 -32.88221,-5.62367 -15.117502,-1.49676 -30.387125,-1.0278 -45.486853,0.63875 C 42.388504,133.9162 24.882113,137.5111 7.8561111,142.68732 12.496589,131.92758 14.622678,120.09277 14.017409,108.39065 13.520921,98.791679 11.228012,89.391992 9.3910947,79.957349 7.2880826,69.156007 5.7701474,58.165325 6.2669979,47.172382 6.5542523,40.816805 7.5123576,34.513811 8.3116772,28.202158 8.9340075,23.288062 9.4607109,18.361857 9.8913887,13.42727 23.567077,10.514669 37.418544,8.4276503 51.345297,7.1813563 68.137644,5.6786226 85.05864,5.3995953 101.85923,6.8071793 c 29.3566,2.459549 58.02286,10.0247997 87.12179,14.6195077 8.03975,1.269473 16.1483,2.31451 24.28713,2.221421 8.13882,-0.09309 16.34422,-1.354979 23.83187,-4.546263 7.01791,-2.991079 13.31202,-7.664514 18.20502,-13.5173904 -3.73016,12.9994934 -5.17907,26.6501874 -4.26086,40.1430664 z"
       id="path25327"
       inkscape:path-effect="#path-effect25331"
       inkscape:original-d="m 251.04418,45.727521 c 0.52491,3.67438 2.19321,17.616906 3.2204,21.212061 1.83292,6.415223 1.86036,6.920561 3.175,13.49375 1.81829,9.091457 2.38125,20.116988 2.38125,29.368748 0,6.77044 1.15079,15.73631 -2.19306,20.86664 -6.18543,4.30184 -14.67758,9.23723 -22.64441,11.89284 -23.61707,7.87236 -72.50246,1.89837 -96.53775,-5.61266 -10.67456,-3.3358 -22.08159,-4.2736 -32.88221,-5.62367 -16.509427,-2.06368 -28.957954,-0.54188 -45.486853,0.63875 -14.967928,1.06914 -40.397131,0.86647 -52.2204359,10.72334 3.5116259,-5.11979 6.1612979,-27.52623 6.1612979,-34.29667 0,-9.251756 -2.808022,-19.341844 -4.6263143,-28.433301 C 8.0764567,73.38416 8.0999193,53.587605 6.2669979,47.172382 5.2398102,43.577227 8.8365888,31.876538 8.3116772,28.202158 6.2820357,13.994666 5.7161535,26.580933 9.8913887,13.42727 21.531499,3.814495 36.377369,8.2504943 51.345297,7.1813563 c 16.528899,-1.180635 34.004509,-2.437856 50.513933,-0.374177 10.80062,1.350077 76.44723,11.2837067 87.12179,14.6195077 24.03529,7.511025 24.50193,5.547518 48.119,-2.324842 7.96683,-2.655607 12.02722,-9.4430826 18.20502,-13.5173904 -4.53382,13.6147374 -6.2905,25.9355744 -4.26086,40.1430664 z"
       sodipodi:nodetypes="sssscsssscsssscsssscs" />
  </g>
  <g
     inkscape:label="Layer 1"
     inkscape:groupmode="layer"
     id="layer1"
     style="display:inline">
    <path
       style="display:inline;fill:url(#linearGradient21020);fill-opacity:1;stroke:none;stroke-width:0.909921;stroke-linecap:round;stroke-linejoin:bevel;stroke-dasharray:none;stroke-opacity:1;paint-order:fill markers stroke"
       d="m 68.718987,34.600044 c -6.106445,-0.784785 -8.465999,-1.276021 -12.581644,-2.619371 -3.347087,-1.092491 -5.136991,-1.886432 -5.139844,-2.27986 -0.0013,-0.177401 -1.219029,-4.3597 -2.706095,-9.293998 l -2.703756,-8.971448 0.871271,-0.502115 C 50.643365,8.5217533 58.302178,5.9875182 63.266941,5.3716173 L 64.7348,5.1895245 65.234235,6.4453862 c 0.591866,1.4882765 2.138774,3.4663461 3.343519,4.2754318 1.08252,0.727008 3.20472,1.395715 4.439963,1.399043 1.413984,0.0038 2.31471,-0.419053 4.016147,-1.885435 1.71654,-1.4793886 2.87326,-3.0320367 3.539351,-4.7508205 l 0.444061,-1.1458602 1.19015,0.1917876 c 3.414634,0.5502444 7.654107,2.0222637 11.157555,3.8740877 1.811176,0.9573391 4.30704,2.4626324 4.55899,2.7495974 0.104392,0.118892 -2.085801,18.497124 -2.226481,18.682692 -0.268473,0.354163 -6.109912,2.419872 -8.783647,3.10617 -4.47852,1.149549 -7.660551,1.570174 -12.637962,1.670583 -2.594964,0.05234 -5.095566,0.04667 -5.556894,-0.01261 z"
       id="path14950" />
    <path
       style="display:inline;fill:url(#linearGradient15940);fill-opacity:1;stroke:none;stroke-width:0.859884;stroke-linecap:round;stroke-linejoin:bevel;stroke-dasharray:none;stroke-opacity:1;paint-order:fill markers stroke"
       d="m 90.964963,146.7728 c -0.569228,-0.21806 -1.552597,-0.84141 -2.185265,-1.38522 -2.86998,-2.46692 -3.629334,-3.02221 -4.728921,-3.45802 -2.04824,-0.81183 -3.235722,-0.29075 -5.444302,2.389 -0.751551,0.91188 -1.677672,1.87682 -2.058047,2.14429 -0.971966,0.68347 -2.713932,0.40364 -4.871454,-0.78257 -2.381934,-1.30959 -4.242711,-1.47902 -6.445621,-0.58691 -2.491534,1.00899 -4.144405,0.76349 -7.977119,-1.18482 -4.279281,-2.17533 -5.630519,-2.28626 -8.959579,-0.73557 -2.15327,1.003 -2.631535,1.11956 -4.589055,1.11835 -3.064466,-0.002 -5.217741,-1.13785 -7.350767,-3.87788 l -0.794979,-1.02123 1.587386,-3.01804 C 51.626785,108.84455 56.816998,71.165067 51.001723,35.794536 c -0.250402,-1.523034 -0.421076,-2.814261 -0.379277,-2.869391 0.04179,-0.05513 1.305209,0.359599 2.807578,0.921624 3.464476,1.296036 7.19541,2.32598 10.817056,2.986107 4.002422,0.729532 14.345477,0.730407 18.356214,0.0015 3.77674,-0.686331 8.835913,-2.106553 11.678754,-3.278488 l 2.306927,-0.951004 0.03536,8.328168 c 0.100741,23.717762 2.57285,44.947179 8.738125,75.039458 1.2791,6.24328 4.08416,18.85921 4.62489,20.80085 0.3655,1.31242 -0.67071,3.40678 -2.25354,4.55485 -0.75355,0.54656 -1.19059,0.62546 -3.16864,0.57209 -3.26451,-0.0881 -4.29908,0.26614 -6.365507,2.17951 -0.954401,0.88371 -2.146873,1.89227 -2.649929,2.24125 -1.132021,0.78531 -3.18573,0.98764 -4.584789,0.4517 z M 88.2573,125.47335 c -0.01524,-0.4041 -0.529,-3.36376 -1.141732,-6.57703 -2.488917,-13.0523 -3.800255,-25.828399 -4.143083,-40.365296 -0.144384,-6.122432 -0.168884,-6.388829 -0.587719,-6.388829 -0.423303,0 -0.436113,0.184619 -0.407304,5.867766 0.05243,10.332025 0.875234,20.841239 2.495433,31.870909 0.809747,5.51248 2.325756,13.95033 2.831232,15.75823 0.283055,1.01238 0.992905,0.88894 0.953173,-0.16575 z m -21.76756,-4.00689 c 0.557761,-2.99639 2.00207,-13.20991 2.541792,-17.97442 1.098074,-9.693504 1.849938,-20.749456 1.939978,-28.526874 0.04785,-4.133256 0.03209,-4.308744 -0.387166,-4.308744 -0.416239,0 -0.449694,0.318404 -0.702462,6.685985 -0.587115,14.79038 -1.9995,29.061913 -4.128795,41.719713 -0.570884,3.39366 -0.556126,4.15132 0.07765,3.98637 0.254816,-0.0663 0.475466,-0.59602 0.659005,-1.58203 z"
       id="path15924" />
    <path
       style="display:inline;fill:url(#linearGradient20857);fill-opacity:1;stroke:none;stroke-width:0.668097;stroke-linecap:round;stroke-linejoin:bevel;stroke-dasharray:none;stroke-opacity:1;paint-order:fill markers stroke"
       d="m 111.89508,39.340771 c -0.75286,-0.682496 -4.77085,-3.22439 -6.52563,-4.128286 -2.07493,-1.068816 -4.94128,-2.282313 -6.464551,-2.736834 -0.88332,-0.263568 -1.168236,-0.454627 -1.160933,-0.778494 0.03662,-1.624183 1.584359,-16.887054 1.708416,-16.847424 0.572148,0.182775 7.361258,6.91497 11.302638,11.207892 3.22827,3.516215 3.22075,3.486036 2.33528,9.368618 -0.27575,1.831939 -0.50137,3.559129 -0.50137,3.838195 0,0.605042 -0.0987,0.615896 -0.69385,0.07634 z"
       id="path20849" />
    <path
       style="display:inline;fill:url(#linearGradient20865);fill-opacity:1;stroke:none;stroke-width:0.853005;stroke-linecap:round;stroke-linejoin:bevel;stroke-dasharray:none;stroke-opacity:1;paint-order:fill markers stroke"
       d="m 30.866389,44.25871 c -1.88608,-0.681556 -3.482491,-1.30066 -3.547576,-1.37579 -0.06508,-0.07513 0.856084,-1.784122 2.04704,-3.797758 3.112904,-5.263211 8.534382,-15.320571 11.396632,-21.141845 1.355706,-2.757248 2.539258,-4.924786 2.630116,-4.816752 0.145111,0.172545 3.955134,11.167803 5.543293,15.997262 l 0.581194,1.767356 -2.041093,1.322368 c -4.178407,2.707078 -8.17942,6.694289 -11.148045,11.109586 -0.820782,1.220772 -1.61383,2.209498 -1.762327,2.197173 -0.148496,-0.01233 -1.813153,-0.580045 -3.699234,-1.2616 z"
       id="path16015" />
    <path
       id="path15027"
       style="fill:none;fill-opacity:1;stroke:#000000;stroke-width:0.987763;stroke-linecap:round;stroke-linejoin:bevel;stroke-dasharray:none;stroke-opacity:1;paint-order:fill markers stroke"
       d="m 77.381643,69.32877 c -0.09004,13.288229 0.887212,26.583543 2.91926,39.71579 0.655399,4.23556 1.420313,8.45418 2.29372,12.65021 M 66.121643,67.857818 c -0.183252,12.687954 -1.08878,25.365442 -2.710739,37.950632 -0.54492,4.22817 -1.170628,8.44594 -1.876667,12.65021 M 91.858773,28.1128 c 4.213887,1.064959 8.321747,2.549 12.243307,4.423124 2.73145,1.305365 5.3726,2.799629 7.89834,4.468581 0.25104,-2.42014 0.62353,-4.827678 1.1156,-7.210525 0.3014,-1.459506 0.64889,-2.961385 0.36416,-4.424233 -0.22285,-1.144926 -0.84083,-2.209088 -1.72479,-2.970095 -1.12667,-1.080029 -2.26625,-2.14659 -3.41841,-3.19938 C 103.79245,15.0477 99.052003,11.109544 94.136693,7.403285 Z M 46.460932,28.03043 c -1.392837,0.96255 -2.717002,2.024451 -3.959104,3.174965 -1.382144,1.280229 -2.662427,2.669981 -3.830984,4.147744 -2.019252,2.553556 -3.704076,5.371248 -4.997945,8.358542 L 26.079277,40.388872 C 28.646525,35.204311 31.099145,29.96299 33.434739,24.670029 35.976032,18.91091 38.378775,13.090654 40.640188,7.2159931 Z m -0.281018,0.46518 c 1.64116,9.344979 2.608527,18.80822 2.892109,28.291975 0.665229,22.247123 -2.508101,44.771935 -10.901029,65.385905 -1.835897,4.50917 -3.916348,8.91875 -6.22916,13.20291 0.824842,2.24655 2.607551,4.12318 4.808826,5.06218 2.201275,0.93901 4.789645,0.92696 6.982082,-0.0325 1.191882,-0.52159 2.284546,-1.31275 3.55952,-1.57176 1.083119,-0.22003 2.216894,-0.0325 3.255747,0.34481 1.038853,0.37728 1.999597,0.93769 2.958446,1.48739 0.958848,0.5497 1.930038,1.09521 2.980506,1.43883 1.050469,0.34362 2.196919,0.47622 3.26362,0.18689 0.575488,-0.15609 1.110996,-0.42916 1.650437,-0.68324 0.53944,-0.25408 1.095841,-0.49332 1.686612,-0.5742 0.760457,-0.10411 1.537158,0.0617 2.251873,0.34151 0.714714,0.27985 1.379295,0.6711 2.05254,1.03972 0.673246,0.36861 1.365478,0.71881 2.109714,0.90656 0.744236,0.18774 1.551785,0.20329 2.262206,-0.0873 0.520453,-0.21288 0.966451,-0.57989 1.341039,-0.99926 0.374587,-0.41937 0.683435,-0.89231 0.991155,-1.36294 0.30772,-0.47064 0.617452,-0.94309 0.993522,-1.36113 0.37607,-0.41804 0.824197,-0.7828 1.346144,-0.99199 0.701972,-0.28134 1.501512,-0.26251 2.225399,-0.0436 0.723886,0.21887 1.378575,0.62697 1.966366,1.1028 1.175583,0.95167 2.115975,2.18512 3.372225,3.02744 0.912002,0.6115 1.979761,0.99904 3.075534,1.06947 1.095774,0.0704 2.21679,-0.18238 3.153626,-0.75511 0.913731,-0.5586 1.62106,-1.38978 2.352696,-2.17186 0.731636,-0.78208 1.53518,-1.54874 2.541644,-1.91476 0.877524,-0.31913 1.837251,-0.30688 2.769673,-0.25705 0.932422,0.0498 1.877782,0.1324 2.792064,-0.0573 1.12178,-0.23274 2.1512,-0.88578 2.83973,-1.80147 0.68853,-0.91569 1.03011,-2.08594 0.94226,-3.22824 -2.21705,-9.48864 -4.21996,-19.02732 -6.006687,-28.60632 C 95.955711,91.456102 93.874708,77.938867 92.676143,64.332112 91.626901,52.420547 91.255319,40.449323 91.563793,28.495615 80.825569,33.733503 68.244962,35.09223 56.636002,32.267878 53.028817,31.390283 49.51654,30.123152 46.179914,28.495613 Z"
       inkscape:original-d="m 77.381643,69.32877 c -0.16797,13.421579 1.06044,26.60308 2.91926,39.71579 0.35307,2.49062 1.06068,10.91057 2.29372,12.65021 M 66.121643,67.857818 c 2.72264,10.679357 -1.29522,26.966553 -2.710739,37.950632 -0.234015,1.81589 -1.404298,11.98378 -1.876667,12.65021 M 91.858773,28.1128 c 1.99919,0.26411 11.142127,3.382171 12.243307,4.423124 1.99492,1.885808 5.68646,2.866583 7.89834,4.468581 -0.14666,-1.831263 0.6962,-5.405383 1.1156,-7.210525 0.19626,-0.844813 0.45535,-3.695983 0.36416,-4.424233 -0.0937,-0.748015 -1.52223,-2.261335 -1.72479,-2.970095 -2.06743,-1.287529 -1.198,-1.9275 -3.41841,-3.19938 -4.48676,-2.570082 -11.191237,-6.92518 -14.200287,-11.796987 -0.24857,4.251162 -5.57972,17.588289 -2.27792,20.709515 z M 46.460932,28.03043 c -0.687234,0.998312 -2.859188,2.370532 -3.959104,3.174965 -1.380827,1.009876 -2.206005,2.959304 -3.830984,4.147744 -0.917355,0.670917 -4.059007,7.74995 -4.997945,8.358542 C 34.224711,41.257275 26.61396,42.3973 26.079277,40.388872 26.726809,39.448234 32.689289,25.512949 33.434739,24.670029 37.10124,20.524083 39.40031,13.705882 40.640188,7.2159931 45.07411,13.116016 44.55678,21.054064 46.460932,28.03043 Z m -0.281018,0.46518 c 3.975507,3.892434 2.892109,21.661859 2.892109,28.291975 0,26.668634 -0.578081,42.047378 -10.901029,65.385905 -1.970671,4.45537 -3.57123,9.44719 -6.22916,13.20291 3.139198,3.49074 7.657388,6.2813 11.790908,5.02968 0.842343,-0.25502 2.898352,-1.8832 3.55952,-1.57176 4.413794,2.07892 7.431794,5.23357 12.458319,3.45792 0.649175,-0.22935 2.722892,-2.12527 3.337049,-1.25744 1.584913,2.23953 6.458633,3.54349 8.676333,2.2005 1.90312,-1.15252 3.10274,-3.60674 4.67186,-4.71532 1.54865,-1.09415 5.96342,3.33271 7.56399,4.0866 1.69673,0.79916 4.43265,0.67698 6.22916,0.31436 2.43697,-0.49194 3.71374,-2.41841 4.89434,-4.08662 0.84171,-1.18938 4.33977,0.549 5.561737,-0.31434 1.59016,-1.12347 2.47682,-4.1076 3.78199,-5.02971 -4.629077,-8.08705 -4.42965,-18.80147 -6.006687,-28.60632 -2.15333,-13.38791 -4.84329,-26.812868 -5.78421,-40.551838 -0.81764,-11.938398 -1.11235,-23.888346 -1.11235,-35.836497 -11.34187,4.411503 -23.17809,6.144063 -34.927791,3.772263 -3.865725,-0.780336 -7.63589,0.212748 -10.456088,-3.772265 z"
       inkscape:path-effect="#path-effect15029" />
    <text
       xml:space="preserve"
       style="font-style:normal;font-variant:normal;font-weight:normal;font-stretch:normal;font-size:27.8239px;font-family:'Vladimir Script';-inkscape-font-specification:'Vladimir Script, Normal';font-variant-ligatures:normal;font-variant-caps:normal;font-variant-numeric:normal;font-variant-east-asian:normal;fill:url(#linearGradient21012);fill-opacity:1;stroke:#000000;stroke-width:0.314061;stroke-linecap:round;stroke-linejoin:bevel;stroke-dasharray:none;stroke-opacity:1;paint-order:fill markers stroke"
       x="146.32362"
       y="55.52803"
       id="text20954"
       transform="scale(0.76114847,1.3138041)"><tspan
         sodipodi:role="line"
         id="tspan20952"
         style="font-style:normal;font-variant:normal;font-weight:normal;font-stretch:normal;font-size:27.8239px;font-family:'Vladimir Script';-inkscape-font-specification:'Vladimir Script, Normal';font-variant-ligatures:normal;font-variant-caps:normal;font-variant-numeric:normal;font-variant-east-asian:normal;fill:url(#linearGradient21012);fill-opacity:1;stroke:#000000;stroke-width:0.314061;stroke-dasharray:none;stroke-opacity:1"
         x="146.32362"
         y="55.52803">BOU  IQUE</tspan></text>
    <path
       style="display:inline;fill:#000000;fill-opacity:1;stroke:#000000;stroke-width:0.495829;stroke-linecap:round;stroke-linejoin:bevel;stroke-dasharray:none;stroke-opacity:1;paint-order:fill markers stroke"
       id="path30323"
       d="m 107.51153,90.197079 c 3.63058,-1.516504 7.48709,-2.406912 11.29326,-3.353252 7.07048,-1.65921 14.22435,-2.972009 21.41478,-3.991166 4.63698,-0.657235 7.55426,-0.954685 12.22615,-1.484818 12.43454,-1.299993 24.9111,-2.194467 37.39549,-2.849462 2.39298,-0.12555 4.78707,-0.228867 7.1806,-0.343299 7.31212,-0.295923 14.6266,-0.628841 21.94621,-0.618765 1.80593,0.0209 0.96711,0.0069 2.51648,0.03865 0,0 -0.40724,-0.29682 -0.40724,-0.29682 v 0 c -1.52757,-0.0145 -0.70016,-0.0093 -2.48226,-0.0127 -7.2484,0.04774 -14.48789,0.448535 -21.72741,0.778751 -14.88965,0.762756 -29.78239,1.62216 -44.61489,3.166697 -4.76028,0.535024 -7.51887,0.810728 -12.24108,1.475462 -7.21375,1.01546 -14.39011,2.322547 -21.49311,3.93976 -3.85913,0.923356 -7.75822,1.796782 -11.46435,3.243103 0,0 0.45737,0.307856 0.45737,0.307856 z" />
    <path
       style="display:inline;fill:#000000;fill-opacity:1;stroke:#000000;stroke-width:0.495829;stroke-linecap:round;stroke-linejoin:bevel;stroke-dasharray:none;stroke-opacity:1;paint-order:fill markers stroke"
       id="path30327"
       d="m 135.46014,85.833547 c 3.99477,-0.574191 8.01675,-0.938033 12.03169,-1.338776 5.55582,-0.557419 11.10693,-1.160288 16.66295,-1.715934 5.13478,-0.494302 10.28375,-0.818248 15.43227,-1.12848 5.79006,-0.326241 11.58372,-0.585443 17.37741,-0.837475 4.01155,-0.170764 8.02492,-0.29488 12.03969,-0.351403 2.55831,-0.05063 5.11677,-0.09251 7.6754,-0.122129 1.04711,-0.0099 2.09426,-0.01283 3.14139,-0.0181 1.5845,-0.0057 3.16903,-0.0032 4.75353,0.0024 0.72602,0.0024 1.45205,0.0036 2.17807,0.0055 0.33293,0.0011 0.66587,0.0016 0.9988,0.0016 0.1318,6.9e-5 0.2636,8e-5 0.3954,9e-5 0,0 -0.44623,-0.324202 -0.44623,-0.324202 v 0 c -0.13171,1.4e-5 -0.26343,2.4e-5 -0.39514,9.8e-5 -0.3314,2.2e-4 -0.66279,7.94e-4 -0.99419,0.0016 -0.72136,0.0019 -1.44271,0.0027 -2.16406,0.0047 -1.58308,0.0048 -3.16618,0.0061 -4.74926,7.94e-4 -1.04568,-0.004 -2.09122,-0.0013 -3.13673,0.02236 -2.54869,0.04446 -5.09703,0.108842 -7.6459,0.143473 -3.99534,0.05686 -7.98737,0.228016 -11.97932,0.396632 -5.80048,0.258998 -11.60178,0.505931 -17.39944,0.822478 -5.14598,0.311338 -10.29188,0.643573 -15.42425,1.136317 -5.55412,0.56424 -11.10479,1.16201 -16.65973,1.718143 -4.04771,0.398804 -8.09939,0.769067 -12.1363,1.268188 0,0 0.44395,0.312042 0.44395,0.312042 z" />
    <path
       style="fill:url(#linearGradient21111);fill-opacity:1;stroke:#000000;stroke-width:0.389996;stroke-linecap:round;stroke-linejoin:bevel;stroke-dasharray:none;stroke-opacity:1;paint-order:fill markers stroke"
       d="m 151.34372,93.13984 c 5.75426,-17.044521 11.59898,-34.058504 17.53382,-51.04099 0.29083,-0.832218 0.58675,-1.674294 1.07509,-2.408256 0.24417,-0.366982 0.53605,-0.704609 0.88141,-0.978504 0.34536,-0.273895 0.74542,-0.483048 1.17439,-0.584441 0.48103,-0.1137 0.99178,-0.08912 1.46477,0.05442 0.47299,0.14354 0.90797,0.40426 1.2692,0.741655 0.72246,0.67479 1.13405,1.64081 1.24893,2.62269 0.11488,0.981881 -0.0494,1.98038 -0.34738,2.922981 -0.29798,0.9426 -0.72715,1.837544 -1.15578,2.728364 -7.43533,15.452707 -15.15185,30.770114 -23.14445,45.942081 z"
       id="path21101"
       inkscape:path-effect="#path-effect21103"
       inkscape:original-d="m 151.34372,93.13984 c 6.64868,-12.065649 11.64071,-45.809753 17.53382,-51.04099 3.072,-2.726955 0.82745,-4.520664 3.13089,-3.971201 3.0318,0.723215 2.47974,6.745098 2.47974,9.07011 0,6.569533 -18.49935,40.032453 -23.14445,45.942081 z"
       sodipodi:nodetypes="csssc"
       clip-path="url(#clipPath22089)" />
    <path
       style="fill:none;fill-opacity:1;stroke:#000000;stroke-width:0.389996;stroke-linecap:round;stroke-linejoin:bevel;stroke-dasharray:none;stroke-opacity:1;paint-order:fill markers stroke"
       d="m 173.58266,40.828629 c -0.52515,-0.470097 -1.29389,-0.651486 -1.97379,-0.465725 -0.60704,0.165854 -1.13031,0.61761 -1.37861,1.195839 -0.2483,0.578229 -0.21478,1.271026 0.0923,1.820289 0.14607,0.261252 0.36153,0.497375 0.64314,0.598789 0.14379,0.05178 0.29852,0.06638 0.45135,0.06587 0.15283,-5.12e-4 0.30521,-0.01568 0.45793,-0.02151 0.44502,-0.017 0.89935,0.04448 1.33064,-0.06653 0.21593,-0.05558 0.42077,-0.154056 0.59879,-0.288306 0.22535,-0.169943 0.407,-0.397348 0.52295,-0.654679 0.11596,-0.25733 0.16597,-0.544051 0.14399,-0.825442 -0.022,-0.28139 -0.11592,-0.556865 -0.27043,-0.793067 -0.15451,-0.236201 -0.36927,-0.432637 -0.61828,-0.565521 z"
       id="path21113"
       inkscape:path-effect="#path-effect21115"
       inkscape:original-d="m 173.58266,40.828629 c -0.41868,-0.259445 -1.45576,-0.81108 -1.97379,-0.465725 -0.84941,0.566269 -1.87012,1.978221 -1.28629,3.016128 0.14875,0.264443 0.34063,0.504254 0.64314,0.598789 0.28309,0.08847 0.61969,0.04436 0.90928,0.04436 0.42148,0 0.91822,0.06235 1.33064,-0.06653 0.15585,-0.0487 0.48758,-0.140017 0.59879,-0.288306 0.33403,-0.445365 0.61109,-2.672138 -0.22177,-2.838709 z" />
    <path
       style="fill:url(#linearGradient22256);fill-opacity:1;stroke:#000000;stroke-width:0.257704;stroke-linecap:round;stroke-linejoin:bevel;stroke-dasharray:none;stroke-opacity:1;paint-order:fill markers stroke"
       d="m 135.69755,24.89353 c 0.75581,-0.677207 1.79839,-0.976658 2.81318,-0.970034 1.0148,0.0066 2.00876,0.296697 2.9485,0.679774 2.68293,1.093678 4.99216,2.936515 7.11213,4.911355 2.11997,1.97484 4.09619,4.109297 6.34218,5.939542 6.63557,5.407297 15.73528,7.872511 24.07708,5.953124 4.84696,-1.115251 9.25003,-3.588077 13.75834,-5.688541 3.25491,-1.516493 6.60096,-2.851786 10.05416,-3.836458 5.3162,-1.515901 10.90897,-2.189814 16.40417,-1.5875 2.87465,0.315083 5.71107,0.977524 8.42791,1.968325 -2.59656,-1.256665 -5.38639,-2.113027 -8.24082,-2.529591 -5.47858,-0.79952 -11.09169,0.02814 -16.40417,1.5875 -3.44504,1.011212 -6.79628,2.327461 -10.05416,3.836458 -4.5129,2.090304 -8.91147,4.573428 -13.75834,5.688541 -8.33937,1.918627 -17.42234,-0.57348 -24.07708,-5.953124 -2.23689,-1.808285 -4.21423,-3.912187 -6.32892,-5.861969 -2.1147,-1.949782 -4.40943,-3.771423 -7.06693,-4.871998 -1.08292,-0.448482 -2.23786,-0.775432 -3.40965,-0.747755 -1.17179,0.02768 -2.36688,0.442041 -3.17054,1.295263 -0.66527,0.70629 -1.02491,1.69115 -0.97133,2.65994 0.0536,0.96879 0.51962,1.907988 1.25871,2.536615 0.73909,0.628627 1.74091,0.937908 2.70574,0.835317 0.96483,-0.102592 1.87921,-0.615624 2.46958,-1.385614 -0.55226,0.743984 -1.42796,1.238806 -2.35021,1.328017 -0.92225,0.08921 -1.87655,-0.228593 -2.56117,-0.852931 -0.68462,-0.624337 -1.0888,-1.545386 -1.08473,-2.471932 0.004,-0.926547 0.4163,-1.844015 1.10637,-2.462324 z"
       id="path22101"
       inkscape:path-effect="#path-effect22103"
       inkscape:original-d="m 135.69755,24.89353 c 1.79016,-1.193442 3.67637,-0.412925 5.76168,-0.29026 6.05847,0.356381 9.24022,7.339156 13.45431,10.850897 6.15818,5.131815 16.19269,6.938674 24.07708,5.953124 4.93081,-0.616352 9.14883,-4.152037 13.75834,-5.688541 3.36589,-1.121963 6.63185,-2.747542 10.05416,-3.836458 5.35001,-1.702274 10.86343,-1.5875 16.40417,-1.5875 3.22111,0 6.88879,-0.642208 8.42791,1.968325 -1.35203,-3.171799 -5.01971,-2.529591 -8.24082,-2.529591 -5.54074,0 -11.05416,-0.114774 -16.40417,1.5875 -3.42231,1.088916 -6.68827,2.714495 -10.05416,3.836458 -4.60951,1.536504 -8.82753,5.072189 -13.75834,5.688541 -7.88439,0.98555 -17.9189,-0.821309 -24.07708,-5.953124 -4.21409,-3.511741 -7.33738,-10.377586 -13.39585,-10.733967 -2.08531,-0.122665 -4.79003,-0.645917 -6.58019,0.547508 -13.58626,9.057508 5.87086,14.579198 5.4627,4.646258 0.22107,10.494206 -18.476,4.598338 -4.88974,-4.45917 z"
       clip-path="url(#clipPath22230)"
       sodipodi:nodetypes="ssssssscssssssscs" />
    <text
       xml:space="preserve"
       style="font-style:italic;font-variant:normal;font-weight:normal;font-stretch:normal;font-size:11.2889px;font-family:sans-serif;-inkscape-font-specification:'sans-serif, Italic';font-variant-ligatures:normal;font-variant-caps:normal;font-variant-numeric:normal;font-variant-east-asian:normal;fill:url(#linearGradient25235);fill-opacity:1;stroke:#000000;stroke-width:0.495829;stroke-linecap:round;stroke-linejoin:bevel;stroke-dasharray:none;stroke-opacity:1;paint-order:fill markers stroke"
       x="125.91068"
       y="44.901279"
       id="text25227"><tspan
         sodipodi:role="line"
         id="tspan25225"
         style="font-style:italic;font-variant:normal;font-weight:normal;font-stretch:normal;font-size:11.2889px;font-family:sans-serif;-inkscape-font-specification:'sans-serif, Italic';font-variant-ligatures:normal;font-variant-caps:normal;font-variant-numeric:normal;font-variant-east-asian:normal;fill:url(#linearGradient25235);fill-opacity:1;stroke-width:0.495829;stroke-dasharray:none"
         x="125.91068"
         y="44.901279">Nur's</tspan></text>
  </g>
</svg>
