<?xml version="1.0" encoding="UTF-8" standalone="no"?>
<!-- Created with Inkscape (http://www.inkscape.org/) -->

<svg
   width="600"
   height="124.26321"
   viewBox="0 0 914.63415 189.42563"
   version="1.1"
   id="svg5"
   inkscape:version="1.2.2 (732a01da63, 2022-12-09)"
   sodipodi:docname="Stripes.svg"
   inkscape:export-filename="Stripes.png"
   inkscape:export-xdpi="96"
   inkscape:export-ydpi="96"
   xmlns:inkscape="http://www.inkscape.org/namespaces/inkscape"
   xmlns:sodipodi="http://sodipodi.sourceforge.net/DTD/sodipodi-0.dtd"
   xmlns="http://www.w3.org/2000/svg"
   xmlns:svg="http://www.w3.org/2000/svg">
  <sodipodi:namedview
     id="namedview7"
     pagecolor="#505050"
     bordercolor="#ffffff"
     borderopacity="1"
     inkscape:showpageshadow="0"
     inkscape:pageopacity="0"
     inkscape:pagecheckerboard="1"
     inkscape:deskcolor="#505050"
     inkscape:document-units="px"
     showgrid="false"
     inkscape:lockguides="false"
     showguides="true"
     inkscape:zoom="1.078823"
     inkscape:cx="414.34044"
     inkscape:cy="157.57914"
     inkscape:window-width="1920"
     inkscape:window-height="1057"
     inkscape:window-x="-8"
     inkscape:window-y="-8"
     inkscape:window-maximized="1"
     inkscape:current-layer="layer1" />
  <defs
     id="defs2" />
  <g
     inkscape:label="Layer 1"
     inkscape:groupmode="layer"
     id="layer1"
     style="display:inline"
     transform="translate(-105.09883,-325.26481)">
    <path
       id="path3941"
       style="opacity:0.983379;fill:#ff1818;fill-opacity:0.984314;stroke:#ffffff;stroke-width:0.9;stroke-linecap:square;stroke-linejoin:round;stroke-dasharray:none;stroke-opacity:1;paint-order:fill markers stroke"
       d="m 122.39453,401.05469 c 1.58747,1.5964 3.26858,3.1133 5.04102,4.53125 21.31198,17.08798 47.61718,13.63304 47.61718,27.45703 0,7.29599 -10.56116,9.4082 -14.78515,9.4082 -35.32797,0 -33.02427,-30.5293 -46.65625,-30.52929 -5.76,0 -8.0625,5.18514 -8.0625,10.36914 0,5.46812 1.38011,14.22686 4.20117,21.80078 36.5363,0.0379 73.07305,0.0513 109.60938,0.0781 5.67223,-7.78047 8.30078,-16.66574 8.30078,-25.14258 0,-7.00323 -1.42077,-12.86518 -4.23633,-17.95117 -33.67635,0.002 -67.35297,-0.0221 -101.0293,-0.0215 z m 154.64844,0.0312 -0.61524,16.98047 c -0.192,4.79999 -0.9589,16.31956 -2.8789,20.35156 -1.99349,3.78763 -6.15484,4.52872 -9.70117,5.7832 24.75772,0.0162 49.51571,0.0366 74.27343,0.0508 -5.22684,-2.29618 -12.73242,-2.82861 -12.73242,-17.73828 V 401.0957 c -16.1152,-7e-4 -32.2305,-0.0103 -48.3457,-0.01 z m 113.43359,0.0234 v 23.10156 c 0,13.2337 -4.04612,17.48902 -7.84961,20.07226 19.23431,0.0107 38.46882,0.03 57.70313,0.041 -1.49105,-1.21479 -2.73107,-2.82959 -3.19922,-5.52149 -0.96,-5.37599 -1.34375,-13.057 -1.34375,-18.625 0,-12.09598 1.53577,-12.67187 5.75977,-12.67187 10.55998,0 13.8255,8.64066 15.9375,17.47266 1.67614,7.13711 3.18519,13.66529 5.17382,19.36132 18.63796,0.011 37.27611,0.0268 55.91407,0.0391 -2.17905,-1.49059 -4.06713,-4.25557 -4.83204,-10.1836 -2.44041,-18.82604 -7.59196,-27.82791 -18.57421,-33.06445 -34.89641,-0.0214 -69.79304,-0.0143 -104.68946,-0.0215 z m 158.01563,0.0312 v 5.2129 c 0,26.87997 -1.92061,33.98583 -4.22461,36.67382 -0.42245,0.50166 -0.91421,0.94868 -1.44141,1.36914 20.95766,0.0147 41.91539,0.0683 62.87305,0.0859 -1.35713,-0.759 -2.86445,-1.48976 -4.4082,-2.41601 -3.84,-2.304 -6.14258,-1.53693 -6.14258,-35.71289 V 401.201 c -15.55212,-0.0182 -31.10413,-0.0467 -46.65625,-0.0605 z m 85.43945,0.13086 v 32.53907 c 0,6.31094 -2.26031,9.02413 -4.95898,10.71289 18.41667,0.0167 36.83333,0.0757 55.25,0.0957 -3.08084,-2.11273 -5.88004,-6.1172 -6.13086,-16.56836 v -11.13672 c 0,-2.112 0.76826,-3.07226 3.07226,-3.07226 5.184,0 10.94313,0.96093 16.70313,0.96093 14.53688,0 28.32354,-4.56862 37.87304,-13.34179 -33.93631,-0.0757 -67.87223,-0.14091 -101.80859,-0.18946 z m 137.38672,0.25391 c -0.14428,7.45699 -0.74354,15.3619 -1.83398,31.90039 -0.37438,5.66911 -1.65985,9.10087 -3.31641,11.33399 40.11717,0.0571 80.23442,0.12612 120.35156,0.20898 1.8072,-5.38255 2.96485,-10.85574 2.96485,-15.18945 0,-5.376 -3.07281,-12.28907 -9.2168,-12.28907 -15.74399,0 -4.60879,27.07227 -43.96875,27.07227 -20.15998,0 -22.08008,1.34447 -22.08008,-26.6875 0,-6.14399 -0.19095,-13.44141 7.87305,-13.44141 19.39198,0 7.48859,20.16016 19.39258,20.16016 8.65244,0 11.56299,-12.99482 12.47656,-22.80078 -27.54744,-0.0929 -55.09511,-0.19734 -82.64258,-0.26758 z m 141.38476,0.51563 c 1.29124,1.23627 2.64053,2.4214 4.04493,3.54492 21.31198,17.08798 47.61523,13.63304 47.61523,27.45703 0,7.29599 -10.55921,9.4082 -14.7832,9.4082 -35.32797,0 -33.02427,-30.5293 -46.65625,-30.52929 -5.76,0 -8.06445,5.18514 -8.06445,10.36914 0,5.68834 1.50086,14.92926 4.55664,22.70117 36.16075,0.0776 72.3217,0.0829 108.48238,0.1875 6.1996,-8.0168 9.0723,-17.30463 9.0723,-26.15235 0,-6.3719 -1.1692,-11.80217 -3.5,-16.56054 -33.58885,-0.17721 -67.17864,-0.2906 -100.76758,-0.42578 z" />
    <path
       id="path3939"
       style="opacity:0.983379;fill:#0d0063;fill-opacity:0.984314;stroke:#ffffff;stroke-width:0.9;stroke-linecap:square;stroke-linejoin:round;stroke-dasharray:none;stroke-opacity:1;paint-order:fill markers stroke"
       d="m 108.04102,438.76172 c 2.2061,8.03646 5.89178,15.90605 11.13867,18.85742 10.94399,5.95199 32.64051,9.21484 45.3125,9.21484 31.43934,0 49.87159,-12.52174 58.06054,-27.75976 -16.89777,-0.0477 -33.79558,-0.0919 -50.69335,-0.13867 -3.46047,2.61444 -8.85244,3.51562 -11.5918,3.51562 -7.55119,0 -13.3721,-1.40247 -18.00781,-3.5957 -11.40624,-0.0311 -22.81251,-0.0634 -34.21875,-0.0937 z m 165.01953,0.45117 c -4.26378,6.20442 -15.25586,2.86356 -15.25586,12.64453 0,14.78399 35.90332,14.40039 45.69531,14.40039 35.90396,0 39.55273,-8.44839 39.55273,-14.40039 0,-9.49177 -8.80614,-6.83201 -13.98242,-12.49219 -18.6699,-0.053 -37.33986,-0.0992 -56.00976,-0.15234 z m 114.21289,0.3125 c -4.24271,6.99156 -11.19727,5.77688 -11.19727,12.7168 0,14.01598 27.26448,14.01562 36.48047,14.01562 31.10397,0 35.90234,-5.18371 35.90234,-12.0957 0,-8.90277 -9.1368,-6.69848 -11.14257,-14.5 -16.68098,-0.0454 -33.36199,-0.0901 -50.04297,-0.13672 z m 73.93554,0.20117 c 5.01147,17.17407 12.47832,28.25977 36.78711,28.25977 21.69598,0 30.52735,-7.68057 30.52735,-14.97656 0,-10.16705 -9.4003,-3.41654 -13.38867,-13.13672 -17.97526,-0.0458 -35.95054,-0.0984 -53.92579,-0.14649 z m 84.68555,0.23047 c -0.50259,1.45539 -1.05294,2.40064 -1.62695,3.07031 -3.072,3.648 -9.59961,4.60796 -9.59961,10.75196 0,12.28798 24.19187,12.47851 32.25586,12.47851 42.04796,0 43.77539,-8.64039 43.77539,-14.40039 0,-5.95199 -4.60821,-6.91102 -9.4082,-9.79101 -1.05656,-0.63394 -1.99084,-1.05691 -2.79883,-2.01758 -17.5325,-0.0401 -35.06516,-0.0486 -52.59766,-0.0918 z m 86.95313,0.13281 c -3.28266,7.72727 -12.93164,4.73107 -12.93164,13.4961 0,12.47999 28.41647,12.67187 36.48046,12.67187 8.64,0 36.28711,-0.5747 36.28711,-13.05469 0,-8.48315 -8.128,-4.7261 -12.25781,-13.05664 -15.85931,-0.031 -31.71882,-0.0224 -47.57812,-0.0566 z M 768.33789,440.25 c -3.52098,11.56403 -13.25391,6.52002 -13.25391,15.64062 0,2.496 0.1913,8.25586 12.86329,8.25586 h 78.91211 c 6.52799,0 11.90491,0.57499 16.1289,0.95899 4.032,0.576 7.10327,1.15234 8.44727,1.15234 5.85552,0 13.26103,-13.61099 16.45507,-25.86719 -10.12561,-0.008 -20.25133,-0.0254 -30.37695,-0.0351 -4.73431,2.52468 -11.40586,4.20703 -21.21484,4.20703 -11.3895,0 -16.95376,0.42562 -19.64258,-4.25586 -16.10606,-0.0197 -32.2123,-0.0323 -48.31836,-0.0566 z m 129.49609,0.15234 c 2.24476,7.44473 5.77012,14.46725 10.65821,17.2168 10.94399,5.95199 32.63856,9.21484 45.31054,9.21484 30.42795,0 48.67707,-11.72829 57.24417,-26.29687 -17.49216,0.003 -34.98446,-0.0584 -52.47659,-0.0625 -3.17154,1.44549 -6.87468,1.97656 -8.99023,1.97656 -5.52,0 -10.12097,-0.74619 -14.00781,-2.0039 -12.57939,-0.005 -25.1589,-0.0363 -37.73829,-0.0449 z" />
    <path
       id="path3943"
       style="opacity:0.983379;fill:#5199ff;fill-opacity:0.984314;stroke:#ffffff;stroke-width:0.9;stroke-linecap:square;stroke-linejoin:round;stroke-dasharray:none;stroke-opacity:1;paint-order:fill markers stroke"
       d="m 112.28906,357.31445 c -2.04842,4.77557 -3.09375,9.6591 -3.09375,14.28711 0,11.26613 5.10346,21.1297 12.70703,28.9668 33.78055,0.0863 67.56124,0.0996 101.3418,0.16797 -2.97589,-5.22424 -7.45238,-9.62284 -13.43945,-13.58203 -22.27198,-14.78399 -48.57617,-10.75194 -48.57617,-25.91992 0,-1.39684 0.26841,-2.61324 0.73046,-3.67774 -16.55657,-0.0922 -33.11337,-0.13397 -49.66992,-0.24219 z m 78.22852,0.38282 c 8.79926,6.47789 14.9111,15.82421 23.31836,15.82421 7.10399,0 11.32812,-6.52669 11.32812,-13.05468 0,-0.87198 -0.0511,-1.73957 -0.13281,-2.60157 -11.50454,-0.0511 -23.00915,-0.10993 -34.51367,-0.16796 z m 41.84961,0.20312 c -0.43512,2.24515 -0.67578,4.46435 -0.67578,6.59766 0,6.91199 4.4163,13.82422 11.90429,13.82422 12.41483,0 17.61133,-14.42727 23.59766,-20.25196 -11.60873,-0.0437 -23.21746,-0.11974 -34.82617,-0.16992 z m 43.92773,0.21484 c 1.24154,2.47984 2.05275,7.47039 1.66992,17.51954 l -0.91211,25.1914 c 16.11197,0.0286 32.22397,0.0547 48.33594,0.0801 v -33.33594 c 0,-1.03104 -0.33606,-6.03381 1.70117,-9.21679 -16.93166,-0.0488 -33.86328,-0.17698 -50.79492,-0.23829 z m 61.01758,0.25391 c 5.2879,6.00719 7.99212,19.95313 21.09961,19.95313 9.79199,0 14.7832,-6.33556 14.7832,-15.93555 0,-1.34729 -0.0685,-2.66828 -0.19336,-3.96289 -11.89642,-0.0271 -23.79304,-0.0221 -35.68945,-0.0547 z m 52.2207,0.082 c 0.59105,2.83733 0.94336,6.43236 0.94336,11.03906 v 31.52539 c 34.93814,0.0469 69.8763,0.13955 104.81446,0.17579 -1.15132,-0.55425 -2.34646,-1.07958 -3.63086,-1.55664 -2.304,-0.96 -4.80079,-1.72743 -4.80078,-4.60743 0,-2.30399 1.34426,-2.88179 3.07226,-3.84179 10.75199,-5.184 16.32031,-16.31986 16.32031,-27.83985 0,-1.63853 -0.10708,-3.20781 -0.30664,-4.71679 -16.87887,-0.0151 -33.75786,-0.0552 -50.63672,-0.0781 0.90552,2.98355 1.21485,6.39421 1.21485,9.78711 0,11.90399 -4.03173,18.81641 -16.51172,18.81641 -6.33599,0 -5.37619,-4.2248 -4.99219,-9.2168 l 0.76758,-18.23828 c 0.0262,-0.40673 0.0489,-0.78627 0.0723,-1.17774 -15.44201,-0.0241 -30.88419,-0.0382 -46.32618,-0.0703 z m 156.83399,0.24024 c 1.23408,4.18787 2.125,12.05764 2.125,28.65429 v 13.9336 c 15.55204,0.0143 31.1042,0.0378 46.65625,0.0508 V 387.3457 c 0,-9.65661 0.10671,-21.27069 1.51562,-28.625 -16.7656,-0.004 -33.53128,-0.0196 -50.29687,-0.0293 z m 87.56445,0.0293 c 10e-6,0.006 0,0.0115 0,0.0176 v 42.6211 c 33.94388,0.0265 67.88815,0.0563 101.83203,0.0801 7.96863,-7.3319 12.98438,-17.59293 12.98438,-30.60547 0,-4.35187 -0.5833,-8.38727 -1.64844,-12.11132 -15.21679,0.004 -30.4336,-0.003 -45.65039,0 1.96498,3.63991 2.94726,8.08615 2.94726,12.8789 0,11.71199 -4.99207,21.3125 -17.66406,21.3125 -10.36799,0 -8.64062,-4.41527 -8.64062,-8.44726 v -25.74414 c -14.72005,0.002 -29.44012,-9.8e-4 -44.16016,-0.002 z m 135.17188,0.002 c 0.46348,2.31319 0.80229,5.08067 0.95703,8.46289 1.00896,18.2622 1.41726,26.00423 1.25976,34.28125 27.55394,0.0191 55.10818,0.0447 82.66211,0.0645 0.28268,-3.14061 0.36524,-5.94434 0.36524,-7.84961 0,-7.48799 -0.76831,-29.18359 -11.9043,-29.18359 -13.63199,0 -2.68731,21.3125 -17.2793,21.3125 -11.71199,0 -12.28906,-0.38355 -12.28906,-11.51953 0,-6.76918 -0.19232,-11.811 0.14648,-15.56641 -14.6393,0.004 -29.27865,-0.006 -43.91796,-0.002 z m 91.41406,0.002 c 2.75908,4.19748 3.96193,8.07812 10.91797,8.07812 5.25399,0 8.04325,-3.68973 9.24414,-8.07812 -6.72069,9.8e-4 -13.44142,-10e-4 -20.16211,0 z m 40.50781,0 c -1.66676,4.32262 -2.51758,8.70373 -2.51758,12.87695 0,11.75836 5.56577,21.98114 13.72461,29.97461 33.60274,0.0259 67.20587,0.0468 100.80858,0.0781 -2.9639,-5.62692 -7.5942,-10.31303 -13.92577,-14.5 -22.27197,-14.78399 -48.57617,-10.75194 -48.57617,-25.91992 0,-0.9104 0.11779,-1.74242 0.32227,-2.50977 -16.61194,-0.002 -33.22399,-10e-4 -49.83594,0 z m 80.14453,0.002 c 8.09321,6.3935 14.00603,14.79492 21.97848,14.79492 7.104,0 11.3282,-6.52669 11.3282,-13.05468 0,-0.58221 -0.026,-1.16217 -0.062,-1.74024 -11.0814,-0.006 -22.16283,0.003 -33.24418,0 z" />
    <path
       id="path3945"
       style="opacity:0.983379;fill:#ffffff;fill-opacity:0.984314;stroke:#ffffff;stroke-width:0.9;stroke-linecap:square;stroke-linejoin:round;stroke-dasharray:none;stroke-opacity:1;paint-order:fill markers stroke"
       d="m 865.86719,325.71484 c -3.072,0 -6.71929,3.83985 -32.44727,3.83985 h -55.29687 c -7.872,0 -24,-1.92098 -24,9.79101 0,13.01434 13.29332,-0.19061 15.66797,24.14453 14.34436,0.0202 28.68883,0.0383 43.0332,0.0586 0.10048,-12.65535 2.0082,-15.17774 19.25195,-15.17774 26.84771,0 27.28614,9.97598 31.68945,15.24805 4.83333,0.007 9.66668,0.0126 14.5,0.0195 2.26729,-2.7658 3.1543,-6.90931 3.1543,-10.66015 0,-8.448 -4.60874,-27.26368 -15.55273,-27.26368 z m -700.22266,1.15235 c -31.77541,0 -50.40558,18.02381 -55.19726,35.71679 16.95569,0.022 33.91149,0.0482 50.86718,0.0703 -0.0547,-0.45445 -0.0859,-0.92609 -0.0859,-1.41992 0,-6.912 6.33511,-9.59961 12.2871,-9.59961 10.0609,0 16.95061,5.55258 22.95899,11.0664 9.50454,0.0124 19.00913,0.0266 28.51367,0.0391 0.11282,-0.7511 0.17578,-1.51196 0.17578,-2.27343 0,-16.12799 -14.59114,-30.91211 -21.11914,-30.91211 -4.03199,0 -6.7202,2.6875 -9.4082,2.6875 -2.88,0 -16.7042,-5.375 -28.99219,-5.375 z m 90.81445,0 c -10.55726,0 -23.78859,19.83087 -24.71093,35.88281 10.53513,0.0138 21.07033,0.0291 31.60547,0.043 2.81675,-3.96273 5.42969,-7.12695 8.6582,-7.12695 1.91228,0 4.49611,-0.0562 5.55664,7.14648 16.00322,0.0211 32.00654,0.0452 48.00976,0.0664 0.47193,-3.3577 1.96188,-7.21289 6.5293,-7.21289 3.69151,0 5.96596,3.22227 8.25977,7.23437 10.93617,0.0145 21.87242,0.0303 32.80859,0.0449 0.004,-0.18787 0.0195,-0.36813 0.0195,-0.55859 0,-20.73598 -15.55107,-35.51953 -23.03906,-35.51953 -3.648,0 -5.18505,0.57575 -7.87305,1.34375 -2.87999,0.576 -6.71861,1.34375 -14.97461,1.34375 h -47.23242 c -7.67999,0 -12.86372,-0.76775 -16.51172,-1.34375 -3.64799,-0.768 -5.76147,-1.34375 -7.10547,-1.34375 z m 441.0254,0 c -8.064,0 -24.96081,2.6875 -52.80079,2.6875 -4.79999,0 -9.40703,-0.38477 -14.20703,-0.38477 -5.95199,0 -14.40039,1.72821 -14.40039,9.4082 0,12.09599 17.85547,5.76018 17.85547,20.16016 v 4.56445 c 14.72002,0.0203 29.44014,0.0401 44.16016,0.0605 v -7.69726 c 0,-3.84 -0.19112,-6.14454 7.29687,-6.14454 9.78689,0 15.6723,5.78574 17.9336,13.87696 14.94462,0.0208 29.88935,0.0396 44.83398,0.0605 -3.91168,-24.00468 -26.88918,-36.59179 -50.67187,-36.59179 z m 257.4707,0 c -32.4247,0 -51.16483,18.76792 -55.47656,36.80078 17.11324,0.0245 34.2266,0.0456 51.33984,0.0703 -0.17931,-0.77354 -0.2793,-1.60282 -0.2793,-2.5039 0,-6.912 6.33707,-9.59961 12.28906,-9.59961 10.73484,0 17.83744,6.3021 24.13282,12.15234 9.04425,0.0131 18.08856,0.0239 27.13286,0.0371 0.2466,-1.09724 0.3828,-2.22622 0.3828,-3.35742 0,-16.12799 -14.59314,-30.91211 -21.12113,-30.91211 -4.032,0 -6.72021,2.6875 -9.4082,2.6875 -2.88,0 -16.7042,-5.375 -28.99219,-5.375 z m -379.39063,0.57617 c -3.83999,0 -43.00781,-0.002 -43.00781,13.82226 0,7.296 7.48635,7.87342 11.90234,13.44141 1.07613,1.36962 2.10177,3.50345 2.84961,8.47656 16.23044,0.0222 32.46098,0.0441 48.69141,0.0664 0.55641,-5.0584 1.47098,-9.09078 2.98828,-10.84766 4.416,-4.99199 11.71094,-4.60753 11.71094,-11.51953 0,-13.05598 -23.61478,-13.43945 -35.13477,-13.43945 z m -177.02539,0.76758 c -7.67999,0 -22.65429,1.3443 -22.65429,11.90429 0,10.92162 12.27348,1.50289 14.30078,22.85352 15.15361,0.0203 30.30732,0.0421 45.46093,0.0625 l 0.14063,-3.33203 c 0.384,-5.952 0.19288,-10.36914 7.29687,-10.36914 9.03518,0 12.25659,6.31932 13.1504,13.72851 16.67053,0.0225 33.34118,0.0457 50.01171,0.0684 -0.14579,-25.36915 -25.20898,-34.91601 -46.84179,-34.91601 -6.144,0 -12.48101,0.38417 -18.625,0.57617 -6.336,0.384 -12.47906,0.76758 -18.62305,0.76758 -3.84,0 -7.87289,-0.38358 -11.71289,-0.76758 -4.032,-0.192 -7.8723,-0.57617 -11.9043,-0.57617 z" />
    <path
       style="display:none;opacity:0.983379;fill:none;fill-opacity:1;stroke:#130092;stroke-width:35.0921;stroke-linecap:square;stroke-linejoin:round;stroke-dasharray:none;stroke-opacity:1;paint-order:fill markers stroke"
       d="m 100.27941,465.29106 929.37639,0.9887"
       id="path1711"
       sodipodi:insensitive="true" />
    <path
       style="display:none;opacity:0.983379;fill:none;fill-opacity:1;stroke:#ff1818;stroke-width:35.0921;stroke-linecap:square;stroke-linejoin:round;stroke-dasharray:none;stroke-opacity:1;paint-order:fill markers stroke"
       d="m 100.27941,422.34302 929.37639,0.9887"
       id="path1725"
       sodipodi:insensitive="true" />
    <path
       style="display:none;opacity:0.983379;fill:none;fill-opacity:1;stroke:#5199ff;stroke-width:35.0921;stroke-linecap:square;stroke-linejoin:round;stroke-dasharray:none;stroke-opacity:1;paint-order:fill markers stroke"
       d="m 100.27941,379.39498 929.37639,0.9887"
       id="path1823"
       sodipodi:insensitive="true" />
    <path
       style="display:none;opacity:0.983379;fill:none;fill-opacity:1;stroke:#ffffff;stroke-width:35.0921;stroke-linecap:square;stroke-linejoin:round;stroke-dasharray:none;stroke-opacity:1;paint-order:fill markers stroke"
       d="m 100.27941,336.44694 929.37639,0.9887"
       id="path1825"
       sodipodi:insensitive="true" />
    <text
       xml:space="preserve"
       style="font-style:normal;font-variant:normal;font-weight:normal;font-stretch:normal;font-size:26.6667px;font-family:'Cooper Std';-inkscape-font-specification:'Cooper Std, Normal';font-variant-ligatures:normal;font-variant-caps:normal;font-variant-numeric:normal;font-variant-east-asian:normal;opacity:0.983379;fill:#0c0062;fill-opacity:0.968627;stroke:#ffffff;stroke-width:0.9;stroke-linecap:square;stroke-linejoin:round;stroke-dasharray:none;stroke-opacity:1;paint-order:fill markers stroke"
       x="259.75281"
       y="509.81488"
       id="text4712"><tspan
         sodipodi:role="line"
         id="tspan4710"
         x="259.75281"
         y="509.81488">GRAB YOUR ART SUPPLIES • OPEN 24/7</tspan></text>
  </g>
</svg>
